<?xml version="1.0" encoding="UTF-8"?>
<!DOCTYPE svg PUBLIC "-//W3C//DTD SVG 1.1//EN" "http://www.w3.org/Graphics/SVG/1.1/DTD/svg11.dtd">
<svg xmlns="http://www.w3.org/2000/svg" version="1.1" width="512px" height="512px" style="shape-rendering:geometricPrecision; text-rendering:geometricPrecision; image-rendering:optimizeQuality; fill-rule:evenodd; clip-rule:evenodd" xmlns:xlink="http://www.w3.org/1999/xlink">
<g><path style="opacity:0.992" fill="#65ba69" d="M 484.5,172.5 C 458.546,179.31 435.213,191.143 414.5,208C 392.106,226.219 372.772,247.052 356.5,270.5C 351.807,266.139 347.141,261.805 342.5,257.5C 369.648,226.622 400.315,199.956 434.5,177.5C 431.512,174.677 428.678,171.677 426,168.5C 421.829,158.715 423.329,149.882 430.5,142C 406.167,117.667 381.833,93.3333 357.5,69C 353.401,69.6997 349.401,71.0331 345.5,73C 331.52,75.674 321.187,70.8406 314.5,58.5C 302.971,64.4277 292.304,71.5944 282.5,80C 261.309,99.3342 242.976,120.834 227.5,144.5C 223.441,140.435 219.107,136.768 214.5,133.5C 215.529,131.483 216.529,129.483 217.5,127.5C 218.338,127.158 218.672,126.492 218.5,125.5C 233.742,103.078 251.409,82.5777 271.5,64C 290.496,48.2501 311.996,37.0834 336,30.5C 337.627,30.6251 339.127,31.1251 340.5,32C 387.196,77.6972 434.196,123.03 481.5,168C 483.141,169.129 484.141,170.629 484.5,172.5 Z"/></g>
<g><path style="opacity:0.985" fill="#dfdfdf" d="M 218.5,125.5 C 218.672,126.492 218.338,127.158 217.5,127.5C 212.808,127.841 208.474,129.341 204.5,132C 199.772,135.726 194.772,139.059 189.5,142C 183.172,143.971 180.006,141.805 180,135.5C 182.275,129.781 185.442,124.615 189.5,120C 182.29,122.85 176.457,127.683 172,134.5C 165.9,153.051 171.734,158.051 189.5,149.5C 189.833,149.833 190.167,150.167 190.5,150.5C 182.972,163.226 177.972,176.893 175.5,191.5C 173.854,194.81 171.52,197.477 168.5,199.5C 165.482,199.665 162.482,199.498 159.5,199C 154.774,196.612 153.274,192.778 155,187.5C 156.616,182.267 158.783,177.267 161.5,172.5C 161.167,172.167 160.833,171.833 160.5,171.5C 151.932,179.189 141.932,182.356 130.5,181C 125.774,178.612 124.274,174.778 126,169.5C 127.823,163.687 130.323,158.187 133.5,153C 132.833,152.333 132.167,152.333 131.5,153C 121.622,163.275 109.622,168.609 95.5,169C 87.8367,165.355 85.67,159.521 89,151.5C 90.3726,148.588 91.8726,145.754 93.5,143C 86.4046,147.377 78.7379,151.044 70.5,154C 62.0007,156.793 54.1674,155.627 47,150.5C 45.8141,145.632 46.8141,141.298 50,137.5C 54.1994,132.966 58.6994,128.799 63.5,125C 53.7229,128.424 43.5562,130.59 33,131.5C 24.5737,131.583 17.2403,128.916 11,123.5C 7.58816,117.708 8.75483,112.874 14.5,109C 46.3998,96.8876 76.0665,80.8876 103.5,61C 120.564,50.3124 139.064,43.8124 159,41.5C 177.335,42.4832 189.335,51.8165 195,69.5C 198.023,80.9242 201.356,92.2576 205,103.5C 208.932,111.247 213.432,118.58 218.5,125.5 Z"/></g>
<g><path style="opacity:1" fill="#bebebe" d="M 139.5,54.5 C 141.379,54.3932 141.712,54.8932 140.5,56C 125.558,63.61 113.058,74.11 103,87.5C 101.168,92.8205 103.001,95.4871 108.5,95.5C 110.923,95.4057 113.256,94.9057 115.5,94C 128.089,84.7905 140.923,75.9572 154,67.5C 154.5,67.6667 155,67.8333 155.5,68C 147.302,75.8634 139.469,84.03 132,92.5C 120.984,112.48 125.817,116.98 146.5,106C 156.589,98.5816 166.089,90.415 175,81.5C 174.358,83.8072 173.358,86.1405 172,88.5C 166,95.8333 160,103.167 154,110.5C 151.126,114.02 150.292,117.853 151.5,122C 153.534,123.006 155.7,123.506 158,123.5C 164.902,122.638 171.402,120.805 177.5,118C 169.064,127.886 158.397,132.886 145.5,133C 140.436,130.371 138.436,126.204 139.5,120.5C 135.156,121.558 130.823,122.724 126.5,124C 108.742,125.094 104.409,117.76 113.5,102C 108.703,103.879 103.703,105.545 98.5,107C 88,108.5 83.5,104 85,93.5C 91.237,81.6306 100.404,72.7972 112.5,67C 121.591,62.7846 130.591,58.6179 139.5,54.5 Z"/></g>
<g><path style="opacity:1" fill="#307f34" d="M 342.5,257.5 C 340.833,256.5 339.5,255.167 338.5,253.5C 356.679,231.488 377.012,211.655 399.5,194C 407.715,188.399 415.715,182.566 423.5,176.5C 414.943,165.691 414.276,154.358 421.5,142.5C 399.374,120.874 377.374,99.041 355.5,77C 338.566,84.2835 323.899,81.1168 311.5,67.5C 295.061,77.7602 280.228,90.0935 267,104.5C 254.923,119.066 243.09,133.732 231.5,148.5C 229.833,147.5 228.5,146.167 227.5,144.5C 242.976,120.834 261.309,99.3342 282.5,80C 292.304,71.5944 302.971,64.4277 314.5,58.5C 321.187,70.8406 331.52,75.674 345.5,73C 349.401,71.0331 353.401,69.6997 357.5,69C 381.833,93.3333 406.167,117.667 430.5,142C 423.329,149.882 421.829,158.715 426,168.5C 428.678,171.677 431.512,174.677 434.5,177.5C 400.315,199.956 369.648,226.622 342.5,257.5 Z"/></g>
<g><path style="opacity:1" fill="#65ba69" d="M 338.5,253.5 C 332.5,248.167 326.833,242.5 321.5,236.5C 353.3,222.234 365.467,197.901 358,163.5C 342.698,129.935 317.198,118.101 281.5,128C 264.556,135.434 253.556,147.934 248.5,165.5C 242.5,160.167 236.833,154.5 231.5,148.5C 243.09,133.732 254.923,119.066 267,104.5C 280.228,90.0935 295.061,77.7602 311.5,67.5C 323.899,81.1168 338.566,84.2835 355.5,77C 377.374,99.041 399.374,120.874 421.5,142.5C 414.276,154.358 414.943,165.691 423.5,176.5C 415.715,182.566 407.715,188.399 399.5,194C 377.012,211.655 356.679,231.488 338.5,253.5 Z"/></g>
<g><path style="opacity:1" fill="#bdbebd" d="M 217.5,127.5 C 216.529,129.483 215.529,131.483 214.5,133.5C 201.339,152.483 188.672,171.816 176.5,191.5C 176.167,191.5 175.833,191.5 175.5,191.5C 177.972,176.893 182.972,163.226 190.5,150.5C 190.167,150.167 189.833,149.833 189.5,149.5C 171.734,158.051 165.9,153.051 172,134.5C 176.457,127.683 182.29,122.85 189.5,120C 185.442,124.615 182.275,129.781 180,135.5C 180.006,141.805 183.172,143.971 189.5,142C 194.772,139.059 199.772,135.726 204.5,132C 208.474,129.341 212.808,127.841 217.5,127.5 Z"/></g>
<g><path style="opacity:1" fill="#4a9c4e" d="M 321.5,236.5 C 296.836,213.169 272.502,189.502 248.5,165.5C 253.556,147.934 264.556,135.434 281.5,128C 317.198,118.101 342.698,129.935 358,163.5C 365.467,197.901 353.3,222.234 321.5,236.5 Z"/></g>
<g><path style="opacity:1" fill="#feebb2" d="M 214.5,133.5 C 219.107,136.768 223.441,140.435 227.5,144.5C 228.5,146.167 229.833,147.5 231.5,148.5C 236.833,154.5 242.5,160.167 248.5,165.5C 272.502,189.502 296.836,213.169 321.5,236.5C 326.833,242.5 332.5,248.167 338.5,253.5C 339.5,255.167 340.833,256.5 342.5,257.5C 347.141,261.805 351.807,266.139 356.5,270.5C 356.5,270.833 356.5,271.167 356.5,271.5C 342.081,291.601 328.415,312.268 315.5,333.5C 315.167,333.5 314.833,333.5 314.5,333.5C 309.167,327.5 303.5,321.833 297.5,316.5C 296.5,314.833 295.167,313.5 293.5,312.5C 259.835,277.502 225.835,242.835 191.5,208.5C 190.167,206.833 188.833,205.167 187.5,203.5C 183.833,199.5 180.167,195.5 176.5,191.5C 188.672,171.816 201.339,152.483 214.5,133.5 Z"/></g>
<g><path style="opacity:0.994" fill="#2e7d32" d="M 484.5,172.5 C 486.068,174.811 486.902,177.478 487,180.5C 487.696,191.196 487.362,201.863 486,212.5C 485.605,216.019 484.605,219.352 483,222.5C 446.247,234.606 415.414,255.273 390.5,284.5C 381.061,285.421 371.728,287.087 362.5,289.5C 362.672,288.508 362.338,287.842 361.5,287.5C 360.232,282.03 358.565,276.696 356.5,271.5C 356.5,271.167 356.5,270.833 356.5,270.5C 372.772,247.052 392.106,226.219 414.5,208C 435.213,191.143 458.546,179.31 484.5,172.5 Z"/></g>
<g><path style="opacity:0.996" fill="#65ba69" d="M 175.5,191.5 C 175.833,191.5 176.167,191.5 176.5,191.5C 180.167,195.5 183.833,199.5 187.5,203.5C 171.833,222.675 154.833,240.842 136.5,258C 128.928,264.741 120.928,270.907 112.5,276.5C 122.178,283.095 124.011,291.429 118,301.5C 115.273,304.731 112.106,307.397 108.5,309.5C 131.193,336.873 154.36,363.873 178,390.5C 188.047,379.745 199.213,378.578 211.5,387C 216.02,390.536 219.186,395.036 221,400.5C 243.25,385.584 262.25,367.251 278,345.5C 285.016,336.121 291.516,326.454 297.5,316.5C 303.5,321.833 309.167,327.5 314.5,333.5C 299.277,356.901 281.277,378.067 260.5,397C 241.574,413.13 219.907,423.963 195.5,429.5C 152.942,381.009 109.942,333.009 66.5,285.5C 67.2071,283.219 68.2071,281.052 69.5,279C 111.58,263.748 144.58,237.248 168.5,199.5C 171.52,197.477 173.854,194.81 175.5,191.5 Z"/></g>
<g><path style="opacity:1" fill="#307f34" d="M 187.5,203.5 C 188.833,205.167 190.167,206.833 191.5,208.5C 171.901,233.933 149.401,256.6 124,276.5C 131.052,289.29 129.218,300.956 118.5,311.5C 138.5,334.5 158.5,357.5 178.5,380.5C 189.952,372.78 201.619,372.613 213.5,380C 217.667,382.833 221.167,386.333 224,390.5C 240.96,378.541 255.626,364.207 268,347.5C 276.363,335.651 284.863,323.985 293.5,312.5C 295.167,313.5 296.5,314.833 297.5,316.5C 291.516,326.454 285.016,336.121 278,345.5C 262.25,367.251 243.25,385.584 221,400.5C 219.186,395.036 216.02,390.536 211.5,387C 199.213,378.578 188.047,379.745 178,390.5C 154.36,363.873 131.193,336.873 108.5,309.5C 112.106,307.397 115.273,304.731 118,301.5C 124.011,291.429 122.178,283.095 112.5,276.5C 120.928,270.907 128.928,264.741 136.5,258C 154.833,240.842 171.833,222.675 187.5,203.5 Z"/></g>
<g><path style="opacity:1" fill="#66bb6a" d="M 191.5,208.5 C 225.835,242.835 259.835,277.502 293.5,312.5C 284.863,323.985 276.363,335.651 268,347.5C 255.626,364.207 240.96,378.541 224,390.5C 221.167,386.333 217.667,382.833 213.5,380C 201.619,372.613 189.952,372.78 178.5,380.5C 158.5,357.5 138.5,334.5 118.5,311.5C 129.218,300.956 131.052,289.29 124,276.5C 149.401,256.6 171.901,233.933 191.5,208.5 Z"/></g>
<g><path style="opacity:1" fill="#fbfdfb" d="M 163.5,261.5 C 164.873,261.343 166.207,261.51 167.5,262C 170.016,264.683 172.683,267.183 175.5,269.5C 185.881,262.834 196.214,263 206.5,270C 211.861,273.985 211.528,277.651 205.5,281C 204.167,281.667 202.833,281.667 201.5,281C 196.121,275.435 190.121,274.268 183.5,277.5C 190.35,284.516 197.017,291.683 203.5,299C 208.068,297.739 212.735,296.406 217.5,295C 231.8,293.299 241.633,299.132 247,312.5C 248.483,321.38 246.316,329.214 240.5,336C 242.847,339.011 245.181,342.011 247.5,345C 246.185,348.344 243.852,350.01 240.5,350C 238.317,347.65 235.984,345.483 233.5,343.5C 221.344,351.831 209.511,351.498 198,342.5C 198.686,338.451 201.02,335.451 205,333.5C 211.595,339.043 218.761,339.876 226.5,336C 219.35,327.683 211.683,319.849 203.5,312.5C 186.241,321.296 173.074,317.296 164,300.5C 160.986,291.599 162.486,283.599 168.5,276.5C 166.183,273.683 163.683,271.016 161,268.5C 160.333,267.167 160.333,265.833 161,264.5C 162.045,263.627 162.878,262.627 163.5,261.5 Z"/></g>
<g><path style="opacity:1" fill="#fdbf6b" d="M 356.5,271.5 C 358.565,276.696 360.232,282.03 361.5,287.5C 341.198,303.079 329.365,323.746 326,349.5C 325.302,357.528 325.468,365.528 326.5,373.5C 322.236,360.457 318.57,347.124 315.5,333.5C 328.415,312.268 342.081,291.601 356.5,271.5 Z"/></g>
<g><path style="opacity:0.987" fill="#dfdfdf" d="M 336.5,365.5 C 332.789,342.356 337.289,321.023 350,301.5C 354.062,297.269 358.229,293.269 362.5,289.5C 371.728,287.087 381.061,285.421 390.5,284.5C 401.935,282.976 413.268,280.809 424.5,278C 440.172,275.259 455.172,277.259 469.5,284C 479.657,292.814 485.157,303.981 486,317.5C 482.276,362.578 485.109,407.245 494.5,451.5C 494.602,460.572 490.269,464.406 481.5,463C 477.49,461.657 473.99,459.491 471,456.5C 462.283,445.357 457.283,432.69 456,418.5C 454.84,427.637 452.173,436.304 448,444.5C 440.519,448.08 434.852,446.08 431,438.5C 429.275,435.326 427.942,431.993 427,428.5C 425.82,419.55 425.153,410.55 425,401.5C 422.952,407.103 419.786,411.936 415.5,416C 407.371,419.623 401.204,417.456 397,409.5C 396.012,406.576 395.346,403.576 395,400.5C 394.506,391.087 394.84,381.754 396,372.5C 392.947,379.444 388.781,385.611 383.5,391C 375.408,394.71 369.908,392.21 367,383.5C 365.796,375.228 365.129,366.894 365,358.5C 361.692,364.95 357.526,370.783 352.5,376C 347.718,379.202 343.552,378.368 340,373.5C 338.546,370.929 337.38,368.262 336.5,365.5 Z"/></g>
<g><path style="opacity:1" fill="#6bbd6f" d="M 175.5,283.5 C 181.937,290.438 188.603,297.271 195.5,304C 183.048,307.568 175.715,302.901 173.5,290C 173.482,287.558 174.149,285.392 175.5,283.5 Z"/></g>
<g><path style="opacity:1" fill="#206022" d="M 66.5,285.5 C 109.942,333.009 152.942,381.009 195.5,429.5C 199.606,443.891 199.44,458.224 195,472.5C 194.186,475.177 192.686,477.177 190.5,478.5C 147.531,428.692 104.698,378.692 62,328.5C 63.2486,314.173 64.7486,299.84 66.5,285.5 Z"/></g>
<g><path style="opacity:1" fill="#e1a14a" d="M 361.5,287.5 C 362.338,287.842 362.672,288.508 362.5,289.5C 358.229,293.269 354.062,297.269 350,301.5C 337.289,321.023 332.789,342.356 336.5,365.5C 333.846,369.463 331.18,373.463 328.5,377.5C 326.824,376.817 326.157,375.483 326.5,373.5C 325.468,365.528 325.302,357.528 326,349.5C 329.365,323.746 341.198,303.079 361.5,287.5 Z"/></g>
<g><path style="opacity:1" fill="#69bc6d" d="M 216.5,306.5 C 227.238,304.855 233.904,309.188 236.5,319.5C 236.192,322.592 235.192,325.425 233.5,328C 226.72,322.231 220.053,315.898 213.5,309C 214.571,308.148 215.571,307.315 216.5,306.5 Z"/></g>
<g><path style="opacity:1" fill="#bebebe" d="M 434.5,305.5 C 435.097,305.735 435.43,306.235 435.5,307C 431.879,318.436 429.546,330.103 428.5,342C 427.923,348.787 429.257,355.12 432.5,361C 434.5,361.667 436.5,361.667 438.5,361C 441.787,357.707 444.287,353.873 446,349.5C 449.654,337.876 452.821,326.21 455.5,314.5C 455.558,329.131 455.725,343.798 456,358.5C 456.72,362.716 458.053,366.716 460,370.5C 464.845,373.798 468.512,372.798 471,367.5C 471.774,363.853 472.441,360.186 473,356.5C 473.333,344.833 473.667,333.167 474,321.5C 478.972,340.602 480.306,359.936 478,379.5C 473.752,389.876 466.918,392.043 457.5,386C 452.087,381.345 448.587,375.512 447,368.5C 443.456,377.188 437.289,380.354 428.5,378C 426.641,376.442 425.141,374.609 424,372.5C 421.711,367.283 420.045,361.949 419,356.5C 408.019,362.833 401.019,359.833 398,347.5C 397.333,343.5 397.333,339.5 398,335.5C 401.208,326.082 406.208,317.749 413,310.5C 411.687,315.496 410.021,320.496 408,325.5C 405.742,332.322 406.076,338.989 409,345.5C 413.677,348.555 416.677,347.221 418,341.5C 421.631,328.576 427.131,316.576 434.5,305.5 Z"/></g>
<g><path style="opacity:1" fill="#bebebe" d="M 378.5,308.5 C 379.586,308.62 380.253,309.287 380.5,310.5C 379.079,317.447 378.579,324.447 379,331.5C 381.025,336.145 384.525,337.645 389.5,336C 391.709,334.127 393.542,331.96 395,329.5C 396.057,341.1 390.891,346.933 379.5,347C 374.63,343.08 372.464,337.914 373,331.5C 369.299,339.937 363.132,342.77 354.5,340C 350.216,331.57 350.716,323.404 356,315.5C 356.37,318.338 356.203,321.171 355.5,324C 355.631,326.253 356.131,328.419 357,330.5C 361.877,331.407 365.877,329.741 369,325.5C 372.179,319.806 375.345,314.139 378.5,308.5 Z"/></g>
<g><path style="opacity:0.993" fill="#2e7d32" d="M 314.5,333.5 C 314.833,333.5 315.167,333.5 315.5,333.5C 318.57,347.124 322.236,360.457 326.5,373.5C 326.157,375.483 326.824,376.817 328.5,377.5C 312.866,402.532 293.199,424.032 269.5,442C 245.786,458.524 220.119,471.357 192.5,480.5C 191.478,480.145 190.811,479.478 190.5,478.5C 192.686,477.177 194.186,475.177 195,472.5C 199.44,458.224 199.606,443.891 195.5,429.5C 219.907,423.963 241.574,413.13 260.5,397C 281.277,378.067 299.277,356.901 314.5,333.5 Z"/></g>
</svg>
