<svg width="537" height="132" viewBox="0 0 537 132" fill="none" xmlns="http://www.w3.org/2000/svg">
<g filter="url(#filter0_d_1951_3311)">
<rect x="16" y="12" width="505" height="100" rx="10" fill="white"/>
<path d="M48.92 48.2C48.92 46.1067 49.48 44.4267 50.6 43.16C51.72 41.8933 53.22 41.26 55.1 41.26C57.02 41.26 58.5333 41.8933 59.64 43.16C60.7467 44.4133 61.3 46.0933 61.3 48.2C61.3 50.3067 60.74 51.9933 59.62 53.26C58.5133 54.5267 57.0133 55.16 55.12 55.16C53.24 55.16 51.7333 54.5267 50.6 53.26C49.48 51.9933 48.92 50.3067 48.92 48.2ZM52.14 44.54C51.4333 45.4333 51.08 46.6533 51.08 48.2C51.08 49.7467 51.4467 50.9733 52.18 51.88C52.9133 52.7867 53.8933 53.24 55.12 53.24C56.3867 53.24 57.3733 52.7933 58.08 51.9C58.7867 51.0067 59.14 49.7733 59.14 48.2C59.14 46.64 58.78 45.4133 58.06 44.52C57.3533 43.6267 56.3667 43.18 55.1 43.18C53.8467 43.18 52.86 43.6333 52.14 44.54ZM72.6806 53.42C73.4006 53.42 74.0273 53.1267 74.5606 52.54C75.1073 51.9533 75.3806 51.0733 75.3806 49.9C75.3806 48.7 75.1073 47.8267 74.5606 47.28C74.014 46.72 73.3673 46.44 72.6206 46.44C71.8606 46.44 71.2273 46.7533 70.7206 47.38C70.2273 48.0067 69.9806 48.84 69.9806 49.88C69.9806 50.9867 70.234 51.8533 70.7406 52.48C71.2606 53.1067 71.9073 53.42 72.6806 53.42ZM75.3806 44.86H77.3606V58.88H75.3806V53.44C74.6606 54.5733 73.6406 55.14 72.3206 55.14C71.0006 55.14 69.9406 54.6467 69.1406 53.66C68.354 52.66 67.9606 51.3933 67.9606 49.86C67.9606 48.3667 68.3473 47.14 69.1206 46.18C69.9073 45.2067 70.9673 44.72 72.3006 44.72C73.634 44.72 74.6606 45.2733 75.3806 46.38V44.86ZM86.4222 44.86H88.3822V55H86.4222V53.26C85.8889 54.5 84.8355 55.12 83.2622 55.12C82.2622 55.12 81.4689 54.8267 80.8822 54.24C80.2955 53.64 80.0022 52.82 80.0022 51.78V44.86H81.9822V51.3C81.9822 51.9933 82.1489 52.5267 82.4822 52.9C82.8289 53.26 83.3022 53.44 83.9022 53.44C84.6622 53.44 85.2689 53.1733 85.7222 52.64C86.1889 52.1067 86.4222 51.3533 86.4222 50.38V44.86ZM97.4378 49.2V48.84C97.4111 48.08 97.2045 47.48 96.8178 47.04C96.4311 46.5867 95.8778 46.36 95.1578 46.36C94.4911 46.36 93.9178 46.6067 93.4378 47.1C92.9578 47.58 92.6578 48.28 92.5378 49.2H97.4378ZM98.6978 52.7V54.46C97.9511 54.8867 96.9645 55.1 95.7378 55.1C94.1645 55.1 92.9111 54.6267 91.9778 53.68C91.0445 52.7333 90.5778 51.4933 90.5778 49.96C90.5778 48.3333 91.0045 47.06 91.8578 46.14C92.7111 45.2067 93.7978 44.74 95.1178 44.74C96.4111 44.74 97.4378 45.1467 98.1978 45.96C98.9578 46.76 99.3378 47.92 99.3378 49.44C99.3378 49.8533 99.2978 50.2867 99.2178 50.74H92.5578C92.6911 51.62 93.0645 52.2933 93.6778 52.76C94.2911 53.2267 95.0645 53.46 95.9978 53.46C97.0778 53.46 97.9778 53.2067 98.6978 52.7ZM111.788 40.84V42.56C111.481 42.4267 111.161 42.36 110.828 42.36C109.854 42.36 109.368 42.94 109.368 44.1V44.86H111.508V46.38H109.368V55H107.408V46.38H105.788V44.86H107.408V44.08C107.408 43.0267 107.688 42.2 108.248 41.6C108.821 40.9867 109.621 40.68 110.648 40.68C111.021 40.68 111.401 40.7333 111.788 40.84ZM118.587 50.48H117.067C116.321 50.48 115.754 50.6267 115.367 50.92C114.994 51.2133 114.807 51.5867 114.807 52.04C114.807 52.5067 114.954 52.8733 115.247 53.14C115.541 53.4067 115.967 53.54 116.527 53.54C117.167 53.54 117.667 53.3667 118.027 53.02C118.401 52.66 118.587 52.1933 118.587 51.62V50.48ZM113.487 47.28V45.38C114.274 44.9267 115.314 44.7 116.607 44.7C119.261 44.7 120.587 45.9867 120.587 48.56V55H118.647V53.8C118.127 54.6533 117.214 55.08 115.907 55.08C114.947 55.08 114.174 54.8067 113.587 54.26C113.014 53.7 112.727 52.9933 112.727 52.14C112.727 51.1667 113.094 50.4133 113.827 49.88C114.561 49.3333 115.587 49.06 116.907 49.06H118.587V48.48C118.587 47.7867 118.421 47.2667 118.087 46.92C117.754 46.56 117.201 46.38 116.427 46.38C115.347 46.38 114.367 46.68 113.487 47.28ZM129.948 44.86V46.26L124.968 53.34H130.208V55H122.708V53.5L127.628 46.5H122.888V44.86H129.948ZM138.746 49.2V48.84C138.72 48.08 138.513 47.48 138.126 47.04C137.74 46.5867 137.186 46.36 136.466 46.36C135.8 46.36 135.226 46.6067 134.746 47.1C134.266 47.58 133.966 48.28 133.846 49.2H138.746ZM140.006 52.7V54.46C139.26 54.8867 138.273 55.1 137.046 55.1C135.473 55.1 134.22 54.6267 133.286 53.68C132.353 52.7333 131.886 51.4933 131.886 49.96C131.886 48.3333 132.313 47.06 133.166 46.14C134.02 45.2067 135.106 44.74 136.426 44.74C137.72 44.74 138.746 45.1467 139.506 45.96C140.266 46.76 140.646 47.92 140.646 49.44C140.646 49.8533 140.606 50.2867 140.526 50.74H133.866C134 51.62 134.373 52.2933 134.986 52.76C135.6 53.2267 136.373 53.46 137.306 53.46C138.386 53.46 139.286 53.2067 140.006 52.7ZM144.914 44.86V46.48C145.488 45.3067 146.441 44.72 147.774 44.72C149.294 44.72 150.268 45.3733 150.694 46.68C150.974 46.0533 151.381 45.5733 151.914 45.24C152.448 44.8933 153.048 44.72 153.714 44.72C154.754 44.72 155.541 45.0267 156.074 45.64C156.621 46.2533 156.894 47.1 156.894 48.18V55H154.934V48.6C154.934 47.1467 154.348 46.42 153.174 46.42C152.588 46.42 152.061 46.68 151.594 47.2C151.141 47.72 150.914 48.4867 150.914 49.5V55H148.954V48.6C148.954 47.1467 148.361 46.42 147.174 46.42C146.601 46.42 146.081 46.68 145.614 47.2C145.148 47.72 144.914 48.4867 144.914 49.5V55H142.954V44.86H144.914ZM163.796 55.18C162.302 55.18 161.129 54.6933 160.276 53.72C159.422 52.7467 158.996 51.5133 158.996 50.02C158.996 48.5 159.436 47.24 160.316 46.24C161.196 45.2267 162.356 44.72 163.796 44.72C165.342 44.72 166.536 45.2133 167.376 46.2C168.216 47.1733 168.636 48.42 168.636 49.94C168.636 51.46 168.202 52.7133 167.336 53.7C166.482 54.6867 165.302 55.18 163.796 55.18ZM163.776 46.38C162.909 46.38 162.236 46.7267 161.756 47.42C161.276 48.1 161.036 48.9467 161.036 49.96C161.036 50.96 161.282 51.8067 161.776 52.5C162.269 53.18 162.942 53.52 163.796 53.52C164.702 53.52 165.389 53.1867 165.856 52.52C166.336 51.8533 166.576 51.0067 166.576 49.98C166.576 48.9267 166.349 48.0667 165.896 47.4C165.442 46.72 164.736 46.38 163.776 46.38ZM176.625 45.2V46.98C175.972 46.5933 175.132 46.4 174.105 46.4C173.638 46.4 173.265 46.5067 172.985 46.72C172.718 46.9333 172.585 47.2133 172.585 47.56C172.585 47.6533 172.592 47.7467 172.605 47.84C172.632 47.92 172.672 48.0067 172.725 48.1C172.778 48.18 172.825 48.2533 172.865 48.32C172.918 48.3733 172.998 48.4333 173.105 48.5C173.212 48.5667 173.292 48.6267 173.345 48.68C173.412 48.72 173.512 48.7733 173.645 48.84C173.792 48.9067 173.898 48.96 173.965 49C174.032 49.0267 174.145 49.08 174.305 49.16C174.478 49.2267 174.598 49.2733 174.665 49.3C175.452 49.6467 176.065 50.04 176.505 50.48C176.958 50.9067 177.185 51.48 177.185 52.2C177.185 53.1067 176.865 53.82 176.225 54.34C175.585 54.8467 174.718 55.1 173.625 55.1C172.425 55.1 171.425 54.9 170.625 54.5V52.64C171.558 53.2133 172.525 53.5 173.525 53.5C174.045 53.5 174.445 53.3933 174.725 53.18C175.018 52.9667 175.165 52.6867 175.165 52.34C175.165 52.0467 175.052 51.7867 174.825 51.56C174.598 51.32 174.365 51.1467 174.125 51.04C173.898 50.92 173.505 50.74 172.945 50.5C171.358 49.8467 170.565 48.8867 170.565 47.62C170.565 46.7267 170.898 46.0267 171.565 45.52C172.232 45.0133 173.065 44.76 174.065 44.76C175.158 44.76 176.012 44.9067 176.625 45.2ZM188.826 53.42C189.612 53.42 190.259 53.1133 190.766 52.5C191.272 51.8733 191.526 51 191.526 49.88C191.526 48.8267 191.279 47.9933 190.786 47.38C190.292 46.7533 189.666 46.44 188.906 46.44C188.146 46.44 187.486 46.72 186.926 47.28C186.379 47.8267 186.106 48.7 186.106 49.9C186.106 51.0733 186.379 51.9533 186.926 52.54C187.486 53.1267 188.119 53.42 188.826 53.42ZM186.106 44.86V46.42C186.799 45.2867 187.839 44.72 189.226 44.72C190.559 44.72 191.612 45.2067 192.386 46.18C193.159 47.14 193.546 48.3667 193.546 49.86C193.546 51.3933 193.146 52.66 192.346 53.66C191.559 54.6467 190.506 55.14 189.186 55.14C187.839 55.14 186.812 54.58 186.106 53.46V58.88H184.146V44.86H186.106ZM199.987 55.18C198.494 55.18 197.321 54.6933 196.467 53.72C195.614 52.7467 195.187 51.5133 195.187 50.02C195.187 48.5 195.627 47.24 196.507 46.24C197.387 45.2267 198.547 44.72 199.987 44.72C201.534 44.72 202.727 45.2133 203.567 46.2C204.407 47.1733 204.827 48.42 204.827 49.94C204.827 51.46 204.394 52.7133 203.527 53.7C202.674 54.6867 201.494 55.18 199.987 55.18ZM199.967 46.38C199.101 46.38 198.427 46.7267 197.947 47.42C197.467 48.1 197.227 48.9467 197.227 49.96C197.227 50.96 197.474 51.8067 197.967 52.5C198.461 53.18 199.134 53.52 199.987 53.52C200.894 53.52 201.581 53.1867 202.047 52.52C202.527 51.8533 202.767 51.0067 202.767 49.98C202.767 48.9267 202.541 48.0667 202.087 47.4C201.634 46.72 200.927 46.38 199.967 46.38ZM208.996 44.86V46.64C209.49 45.3867 210.376 44.76 211.656 44.76C211.843 44.76 212.05 44.78 212.276 44.82V46.74C211.996 46.62 211.683 46.56 211.336 46.56C210.656 46.56 210.096 46.86 209.656 47.46C209.216 48.06 208.996 48.7733 208.996 49.6V55H207.036V44.86H208.996ZM221.335 55L217.735 44.86H219.795L221.175 49.14C221.495 50.1267 221.762 50.98 221.975 51.7C222.202 52.42 222.342 52.8933 222.395 53.12L222.475 53.46C222.595 52.8067 223.035 51.3667 223.795 49.14L225.215 44.86H227.255L223.575 55H221.335ZM233.249 55.18C231.756 55.18 230.582 54.6933 229.729 53.72C228.876 52.7467 228.449 51.5133 228.449 50.02C228.449 48.5 228.889 47.24 229.769 46.24C230.649 45.2267 231.809 44.72 233.249 44.72C234.796 44.72 235.989 45.2133 236.829 46.2C237.669 47.1733 238.089 48.42 238.089 49.94C238.089 51.46 237.656 52.7133 236.789 53.7C235.936 54.6867 234.756 55.18 233.249 55.18ZM233.229 46.38C232.362 46.38 231.689 46.7267 231.209 47.42C230.729 48.1 230.489 48.9467 230.489 49.96C230.489 50.96 230.736 51.8067 231.229 52.5C231.722 53.18 232.396 53.52 233.249 53.52C234.156 53.52 234.842 53.1867 235.309 52.52C235.789 51.8533 236.029 51.0067 236.029 49.98C236.029 48.9267 235.802 48.0667 235.349 47.4C234.896 46.72 234.189 46.38 233.229 46.38ZM241.758 49.98C241.785 51.0067 242.098 51.8533 242.698 52.52C243.298 53.1733 244.138 53.5 245.218 53.5C246.018 53.5 246.765 53.28 247.458 52.84V54.6C246.805 55 245.971 55.2 244.958 55.2C243.371 55.2 242.105 54.7 241.158 53.7C240.211 52.7 239.738 51.4533 239.738 49.96C239.738 48.5067 240.211 47.2667 241.158 46.24C242.118 45.2 243.411 44.68 245.038 44.68C245.918 44.68 246.725 44.8667 247.458 45.24V47.04C246.805 46.6267 246.065 46.42 245.238 46.42C244.185 46.42 243.338 46.7533 242.698 47.42C242.071 48.0867 241.758 48.94 241.758 49.98ZM253.872 41.8L252.232 43.84H250.292L252.992 40.6H254.792L257.492 43.84H255.552L253.872 41.8ZM256.012 49.2V48.84C255.985 48.08 255.779 47.48 255.392 47.04C255.005 46.5867 254.452 46.36 253.732 46.36C253.065 46.36 252.492 46.6067 252.012 47.1C251.532 47.58 251.232 48.28 251.112 49.2H256.012ZM257.272 52.7V54.46C256.525 54.8867 255.539 55.1 254.312 55.1C252.739 55.1 251.485 54.6267 250.552 53.68C249.619 52.7333 249.152 51.4933 249.152 49.96C249.152 48.3333 249.579 47.06 250.432 46.14C251.285 45.2067 252.372 44.74 253.692 44.74C254.985 44.74 256.012 45.1467 256.772 45.96C257.532 46.76 257.912 47.92 257.912 49.44C257.912 49.8533 257.872 50.2867 257.792 50.74H251.132C251.265 51.62 251.639 52.2933 252.252 52.76C252.865 53.2267 253.639 53.46 254.572 53.46C255.652 53.46 256.552 53.2067 257.272 52.7Z" fill="#3C5060"/>
<path d="M55.408 70.216V71.352H52.496V81H51.2V71.352H48.288V70.216H55.408ZM62.0548 76.424V76.104C62.0548 75.432 61.8734 74.8987 61.5108 74.504C61.1481 74.0987 60.6468 73.896 60.0068 73.896C59.3988 73.896 58.8814 74.1147 58.4548 74.552C58.0281 74.9893 57.7774 75.6133 57.7028 76.424H62.0548ZM62.8068 79.4V80.584C62.1774 80.9147 61.4094 81.08 60.5028 81.08C59.2761 81.08 58.2841 80.7067 57.5268 79.96C56.7801 79.2027 56.4068 78.2053 56.4068 76.968C56.4068 75.6773 56.7428 74.6587 57.4148 73.912C58.0868 73.1653 58.9508 72.792 60.0068 72.792C61.0201 72.792 61.8254 73.1173 62.4228 73.768C63.0201 74.4187 63.3188 75.3413 63.3188 76.536C63.3188 76.8773 63.2921 77.192 63.2388 77.48H57.7028C57.7988 78.28 58.1028 78.8933 58.6148 79.32C59.1268 79.7467 59.7988 79.96 60.6308 79.96C61.5374 79.96 62.2628 79.7733 62.8068 79.4ZM73.5204 77.256H72.1124C71.4297 77.256 70.9177 77.3893 70.5764 77.656C70.235 77.9227 70.0644 78.2587 70.0644 78.664C70.0644 79.0693 70.1977 79.4 70.4644 79.656C70.731 79.9013 71.1204 80.024 71.6324 80.024C72.2084 80.024 72.667 79.864 73.0084 79.544C73.3497 79.2133 73.5204 78.7973 73.5204 78.296V77.256ZM69.3284 74.584V73.32C69.9364 72.9467 70.7364 72.76 71.7284 72.76C73.7657 72.76 74.7844 73.7947 74.7844 75.864V81H73.5364V80.04C73.1204 80.7333 72.363 81.08 71.2644 81.08C70.507 81.08 69.8937 80.856 69.4244 80.408C68.9657 79.96 68.7364 79.3947 68.7364 78.712C68.7364 77.9333 69.0297 77.3307 69.6164 76.904C70.2137 76.4667 71.0244 76.248 72.0484 76.248H73.5204V75.832C73.5204 75.192 73.3764 74.712 73.0884 74.392C72.8004 74.0613 72.315 73.896 71.6324 73.896C70.7684 73.896 70.0004 74.1253 69.3284 74.584ZM82.0674 72.888H83.3314V81H82.0674V79.592C81.6407 80.5947 80.7927 81.096 79.5234 81.096C78.7234 81.096 78.0887 80.8613 77.6194 80.392C77.1607 79.912 76.9314 79.272 76.9314 78.472V72.888H78.1954V78.152C78.1954 78.7387 78.3447 79.1867 78.6434 79.496C78.942 79.8053 79.3474 79.96 79.8594 79.96C80.5314 79.96 81.0647 79.7253 81.4594 79.256C81.8647 78.7867 82.0674 78.152 82.0674 77.352V72.888ZM89.028 76.856L91.748 81H90.292L88.324 77.8L86.292 81H84.9L87.62 76.84L85.06 72.872H86.516L88.356 75.912L90.212 72.872H91.652L89.028 76.856ZM93.3726 81V72.888H94.6366V81H93.3726ZM93.4046 70.936C93.2553 70.776 93.1806 70.5787 93.1806 70.344C93.1806 70.1093 93.2553 69.912 93.4046 69.752C93.5646 69.592 93.762 69.512 93.9966 69.512C94.2313 69.512 94.4286 69.592 94.5886 69.752C94.7486 69.912 94.8286 70.1093 94.8286 70.344C94.8286 70.5787 94.7486 70.776 94.5886 70.936C94.4286 71.0853 94.2313 71.16 93.9966 71.16C93.762 71.16 93.5646 71.0853 93.4046 70.936ZM97.107 81V69.688H98.371V81H97.107ZM100.841 81V72.888H102.105V81H100.841ZM100.873 70.936C100.724 70.776 100.649 70.5787 100.649 70.344C100.649 70.1093 100.724 69.912 100.873 69.752C101.033 69.592 101.231 69.512 101.465 69.512C101.7 69.512 101.897 69.592 102.057 69.752C102.217 69.912 102.297 70.1093 102.297 70.344C102.297 70.5787 102.217 70.776 102.057 70.936C101.897 71.0853 101.7 71.16 101.465 71.16C101.231 71.16 101.033 71.0853 100.873 70.936ZM108.88 77.256H107.472C106.789 77.256 106.277 77.3893 105.936 77.656C105.594 77.9227 105.424 78.2587 105.424 78.664C105.424 79.0693 105.557 79.4 105.824 79.656C106.09 79.9013 106.48 80.024 106.992 80.024C107.568 80.024 108.026 79.864 108.368 79.544C108.709 79.2133 108.88 78.7973 108.88 78.296V77.256ZM104.688 74.584V73.32C105.296 72.9467 106.096 72.76 107.088 72.76C109.125 72.76 110.144 73.7947 110.144 75.864V81H108.896V80.04C108.48 80.7333 107.722 81.08 106.624 81.08C105.866 81.08 105.253 80.856 104.784 80.408C104.325 79.96 104.096 79.3947 104.096 78.712C104.096 77.9333 104.389 77.3307 104.976 76.904C105.573 76.4667 106.384 76.248 107.408 76.248H108.88V75.832C108.88 75.192 108.736 74.712 108.448 74.392C108.16 74.0613 107.674 73.896 106.992 73.896C106.128 73.896 105.36 74.1253 104.688 74.584ZM113.635 72.888V74.2C114.083 73.2507 114.845 72.776 115.923 72.776C117.171 72.776 117.96 73.304 118.291 74.36C118.525 73.848 118.851 73.4587 119.267 73.192C119.693 72.9147 120.168 72.776 120.691 72.776C121.533 72.776 122.168 73.016 122.595 73.496C123.021 73.976 123.235 74.6213 123.235 75.432V81H121.971V75.752C121.971 74.5253 121.453 73.912 120.419 73.912C119.907 73.912 119.448 74.1467 119.043 74.616C118.637 75.0747 118.435 75.7253 118.435 76.568V81H117.171V75.752C117.171 74.5253 116.653 73.912 115.619 73.912C115.107 73.912 114.648 74.1467 114.243 74.616C113.837 75.0747 113.635 75.7253 113.635 76.568V81H112.387V72.888H113.635ZM128.777 81.144C127.614 81.144 126.691 80.7547 126.009 79.976C125.337 79.1867 125.001 78.1947 125.001 77C125.001 75.7947 125.347 74.792 126.041 73.992C126.745 73.1813 127.657 72.776 128.777 72.776C130.003 72.776 130.947 73.1707 131.609 73.96C132.281 74.7493 132.617 75.752 132.617 76.968C132.617 78.1733 132.275 79.1707 131.593 79.96C130.91 80.7493 129.971 81.144 128.777 81.144ZM128.777 73.896C128.009 73.896 127.406 74.1947 126.969 74.792C126.531 75.3893 126.312 76.12 126.312 76.984C126.312 77.8267 126.537 78.5467 126.985 79.144C127.433 79.7307 128.03 80.024 128.777 80.024C129.587 80.024 130.211 79.736 130.649 79.16C131.086 78.5733 131.305 77.848 131.305 76.984C131.305 76.088 131.097 75.352 130.681 74.776C130.265 74.1893 129.63 73.896 128.777 73.896ZM138.881 73.16V74.36C138.39 74.0613 137.718 73.912 136.865 73.912C136.438 73.912 136.097 74.0133 135.841 74.216C135.596 74.408 135.473 74.6587 135.473 74.968C135.473 75.16 135.51 75.3307 135.585 75.48C135.66 75.6187 135.804 75.7573 136.017 75.896C136.241 76.0347 136.401 76.1307 136.497 76.184C136.604 76.2267 136.828 76.3227 137.169 76.472C137.852 76.7493 138.385 77.064 138.769 77.416C139.153 77.768 139.345 78.2427 139.345 78.84C139.345 79.5333 139.1 80.0827 138.609 80.488C138.129 80.8933 137.468 81.096 136.625 81.096C135.644 81.096 134.849 80.9307 134.241 80.6V79.368C134.956 79.7947 135.724 80.008 136.545 80.008C137.036 80.008 137.409 79.912 137.665 79.72C137.921 79.528 138.049 79.2667 138.049 78.936C138.049 78.552 137.905 78.2533 137.617 78.04C137.34 77.8267 136.87 77.5867 136.209 77.32C135.601 77.0853 135.11 76.792 134.737 76.44C134.374 76.088 134.193 75.6133 134.193 75.016C134.193 74.344 134.444 73.8107 134.945 73.416C135.457 73.0107 136.092 72.808 136.849 72.808C137.692 72.808 138.369 72.9253 138.881 73.16ZM149.333 77.256H147.925C147.242 77.256 146.73 77.3893 146.389 77.656C146.048 77.9227 145.877 78.2587 145.877 78.664C145.877 79.0693 146.01 79.4 146.277 79.656C146.544 79.9013 146.933 80.024 147.445 80.024C148.021 80.024 148.48 79.864 148.821 79.544C149.162 79.2133 149.333 78.7973 149.333 78.296V77.256ZM145.141 74.584V73.32C145.749 72.9467 146.549 72.76 147.541 72.76C149.578 72.76 150.597 73.7947 150.597 75.864V81H149.349V80.04C148.933 80.7333 148.176 81.08 147.077 81.08C146.32 81.08 145.706 80.856 145.237 80.408C144.778 79.96 144.549 79.3947 144.549 78.712C144.549 77.9333 144.842 77.3307 145.429 76.904C146.026 76.4667 146.837 76.248 147.861 76.248H149.333V75.832C149.333 75.192 149.189 74.712 148.901 74.392C148.613 74.0613 148.128 73.896 147.445 73.896C146.581 73.896 145.813 74.1253 145.141 74.584ZM152.904 81V69.688H154.168V81H152.904ZM157.406 76.984C157.417 77.8587 157.684 78.5893 158.206 79.176C158.729 79.752 159.47 80.04 160.43 80.04C161.049 80.04 161.625 79.864 162.158 79.512V80.712C161.646 81.0213 161.017 81.176 160.27 81.176C158.99 81.176 157.972 80.7707 157.214 79.96C156.468 79.1387 156.094 78.1413 156.094 76.968C156.094 75.816 156.468 74.824 157.214 73.992C157.972 73.16 159.001 72.744 160.302 72.744C160.996 72.744 161.614 72.8933 162.158 73.192V74.392C161.668 74.0613 161.092 73.896 160.43 73.896C159.513 73.896 158.777 74.1947 158.222 74.792C157.678 75.3787 157.406 76.1093 157.406 76.984ZM168.474 77.256H167.066C166.383 77.256 165.871 77.3893 165.53 77.656C165.188 77.9227 165.018 78.2587 165.018 78.664C165.018 79.0693 165.151 79.4 165.418 79.656C165.684 79.9013 166.074 80.024 166.586 80.024C167.162 80.024 167.62 79.864 167.962 79.544C168.303 79.2133 168.474 78.7973 168.474 78.296V77.256ZM164.282 74.584V73.32C164.89 72.9467 165.69 72.76 166.682 72.76C168.719 72.76 169.738 73.7947 169.738 75.864V81H168.49V80.04C168.074 80.7333 167.316 81.08 166.218 81.08C165.46 81.08 164.847 80.856 164.378 80.408C163.919 79.96 163.69 79.3947 163.69 78.712C163.69 77.9333 163.983 77.3307 164.57 76.904C165.167 76.4667 165.978 76.248 167.002 76.248H168.474V75.832C168.474 75.192 168.33 74.712 168.042 74.392C167.754 74.0613 167.268 73.896 166.586 73.896C165.722 73.896 164.954 74.1253 164.282 74.584ZM173.229 72.888V74.296C173.709 73.2827 174.562 72.776 175.789 72.776C176.578 72.776 177.207 73.016 177.677 73.496C178.146 73.976 178.381 74.616 178.381 75.416V81H177.117V75.752C177.117 75.1547 176.962 74.7013 176.653 74.392C176.354 74.072 175.959 73.912 175.469 73.912C174.861 73.912 174.333 74.1467 173.885 74.616C173.447 75.0853 173.229 75.736 173.229 76.568V81H171.981V72.888H173.229ZM181.453 76.984C181.464 77.8587 181.73 78.5893 182.253 79.176C182.776 79.752 183.517 80.04 184.477 80.04C185.096 80.04 185.672 79.864 186.205 79.512V80.712C185.693 81.0213 185.064 81.176 184.317 81.176C183.037 81.176 182.018 80.7707 181.261 79.96C180.514 79.1387 180.141 78.1413 180.141 76.968C180.141 75.816 180.514 74.824 181.261 73.992C182.018 73.16 183.048 72.744 184.349 72.744C185.042 72.744 185.661 72.8933 186.205 73.192V74.392C185.714 74.0613 185.138 73.896 184.477 73.896C183.56 73.896 182.824 74.1947 182.269 74.792C181.725 75.3787 181.453 76.1093 181.453 76.984ZM184.877 82.952C184.877 83.528 184.669 84.0133 184.253 84.408C183.848 84.8027 183.256 85.0107 182.477 85.032V84.104C183.373 84.04 183.821 83.6613 183.821 82.968C183.821 82.6053 183.698 82.2213 183.453 81.816H184.589C184.781 82.0827 184.877 82.4613 184.877 82.952ZM192.52 77.256H191.112C190.43 77.256 189.918 77.3893 189.576 77.656C189.235 77.9227 189.064 78.2587 189.064 78.664C189.064 79.0693 189.198 79.4 189.464 79.656C189.731 79.9013 190.12 80.024 190.632 80.024C191.208 80.024 191.667 79.864 192.008 79.544C192.35 79.2133 192.52 78.7973 192.52 78.296V77.256ZM188.328 74.584V73.32C188.936 72.9467 189.736 72.76 190.728 72.76C192.766 72.76 193.784 73.7947 193.784 75.864V81H192.536V80.04C192.12 80.7333 191.363 81.08 190.264 81.08C189.507 81.08 188.894 80.856 188.424 80.408C187.966 79.96 187.736 79.3947 187.736 78.712C187.736 77.9333 188.03 77.3307 188.616 76.904C189.214 76.4667 190.024 76.248 191.048 76.248H192.52V75.832C192.52 75.192 192.376 74.712 192.088 74.392C191.8 74.0613 191.315 73.896 190.632 73.896C189.768 73.896 189 74.1253 188.328 74.584ZM197.275 72.888V74.312C197.702 73.3093 198.438 72.808 199.483 72.808C199.675 72.808 199.825 72.8187 199.931 72.84V74.088C199.707 74.0133 199.478 73.976 199.243 73.976C198.678 73.976 198.209 74.2373 197.835 74.76C197.462 75.2827 197.275 75.8853 197.275 76.568V81H196.011L196.027 72.888H197.275ZM209.568 73.16V74.36C209.078 74.0613 208.406 73.912 207.552 73.912C207.126 73.912 206.784 74.0133 206.528 74.216C206.283 74.408 206.16 74.6587 206.16 74.968C206.16 75.16 206.198 75.3307 206.272 75.48C206.347 75.6187 206.491 75.7573 206.704 75.896C206.928 76.0347 207.088 76.1307 207.184 76.184C207.291 76.2267 207.515 76.3227 207.856 76.472C208.539 76.7493 209.072 77.064 209.456 77.416C209.84 77.768 210.032 78.2427 210.032 78.84C210.032 79.5333 209.787 80.0827 209.296 80.488C208.816 80.8933 208.155 81.096 207.312 81.096C206.331 81.096 205.536 80.9307 204.928 80.6V79.368C205.643 79.7947 206.411 80.008 207.232 80.008C207.723 80.008 208.096 79.912 208.352 79.72C208.608 79.528 208.736 79.2667 208.736 78.936C208.736 78.552 208.592 78.2533 208.304 78.04C208.027 77.8267 207.558 77.5867 206.896 77.32C206.288 77.0853 205.798 76.792 205.424 76.44C205.062 76.088 204.88 75.6133 204.88 75.016C204.88 74.344 205.131 73.8107 205.632 73.416C206.144 73.0107 206.779 72.808 207.536 72.808C208.379 72.808 209.056 72.9253 209.568 73.16ZM216.786 72.888H218.05V81H216.786V79.592C216.359 80.5947 215.511 81.096 214.242 81.096C213.442 81.096 212.807 80.8613 212.338 80.392C211.879 79.912 211.65 79.272 211.65 78.472V72.888H212.914V78.152C212.914 78.7387 213.063 79.1867 213.362 79.496C213.661 79.8053 214.066 79.96 214.578 79.96C215.25 79.96 215.783 79.7253 216.178 79.256C216.583 78.7867 216.786 78.152 216.786 77.352V72.888ZM224.755 77.256H223.347C222.664 77.256 222.152 77.3893 221.811 77.656C221.469 77.9227 221.299 78.2587 221.299 78.664C221.299 79.0693 221.432 79.4 221.699 79.656C221.965 79.9013 222.355 80.024 222.867 80.024C223.443 80.024 223.901 79.864 224.243 79.544C224.584 79.2133 224.755 78.7973 224.755 78.296V77.256ZM220.563 74.584V73.32C221.171 72.9467 221.971 72.76 222.963 72.76C225 72.76 226.019 73.7947 226.019 75.864V81H224.771V80.04C224.355 80.7333 223.597 81.08 222.499 81.08C221.741 81.08 221.128 80.856 220.659 80.408C220.2 79.96 219.971 79.3947 219.971 78.712C219.971 77.9333 220.264 77.3307 220.851 76.904C221.448 76.4667 222.259 76.248 223.283 76.248H224.755V75.832C224.755 75.192 224.611 74.712 224.323 74.392C224.035 74.0613 223.549 73.896 222.867 73.896C222.003 73.896 221.235 74.1253 220.563 74.584ZM232.678 73.16V74.36C232.187 74.0613 231.515 73.912 230.662 73.912C230.235 73.912 229.894 74.0133 229.638 74.216C229.392 74.408 229.27 74.6587 229.27 74.968C229.27 75.16 229.307 75.3307 229.382 75.48C229.456 75.6187 229.6 75.7573 229.814 75.896C230.038 76.0347 230.198 76.1307 230.294 76.184C230.4 76.2267 230.624 76.3227 230.966 76.472C231.648 76.7493 232.182 77.064 232.566 77.416C232.95 77.768 233.142 78.2427 233.142 78.84C233.142 79.5333 232.896 80.0827 232.406 80.488C231.926 80.8933 231.264 81.096 230.422 81.096C229.44 81.096 228.646 80.9307 228.038 80.6V79.368C228.752 79.7947 229.52 80.008 230.342 80.008C230.832 80.008 231.206 79.912 231.462 79.72C231.718 79.528 231.846 79.2667 231.846 78.936C231.846 78.552 231.702 78.2533 231.414 78.04C231.136 77.8267 230.667 77.5867 230.006 77.32C229.398 77.0853 228.907 76.792 228.534 76.44C228.171 76.088 227.99 75.6133 227.99 75.016C227.99 74.344 228.24 73.8107 228.742 73.416C229.254 73.0107 229.888 72.808 230.646 72.808C231.488 72.808 232.166 72.9253 232.678 73.16ZM240.01 72.888V74.2C240.458 73.2507 241.22 72.776 242.298 72.776C243.546 72.776 244.335 73.304 244.666 74.36C244.9 73.848 245.226 73.4587 245.642 73.192C246.068 72.9147 246.543 72.776 247.066 72.776C247.908 72.776 248.543 73.016 248.97 73.496C249.396 73.976 249.61 74.6213 249.61 75.432V81H248.346V75.752C248.346 74.5253 247.828 73.912 246.794 73.912C246.282 73.912 245.823 74.1467 245.418 74.616C245.012 75.0747 244.81 75.7253 244.81 76.568V81H243.546V75.752C243.546 74.5253 243.028 73.912 241.994 73.912C241.482 73.912 241.023 74.1467 240.618 74.616C240.212 75.0747 240.01 75.7253 240.01 76.568V81H238.762V72.888H240.01ZM257.024 76.424V76.104C257.024 75.432 256.842 74.8987 256.48 74.504C256.117 74.0987 255.616 73.896 254.976 73.896C254.368 73.896 253.85 74.1147 253.424 74.552C252.997 74.9893 252.746 75.6133 252.672 76.424H257.024ZM257.776 79.4V80.584C257.146 80.9147 256.378 81.08 255.472 81.08C254.245 81.08 253.253 80.7067 252.496 79.96C251.749 79.2027 251.376 78.2053 251.376 76.968C251.376 75.6773 251.712 74.6587 252.384 73.912C253.056 73.1653 253.92 72.792 254.976 72.792C255.989 72.792 256.794 73.1173 257.392 73.768C257.989 74.4187 258.288 75.3413 258.288 76.536C258.288 76.8773 258.261 77.192 258.208 77.48H252.672C252.768 78.28 253.072 78.8933 253.584 79.32C254.096 79.7467 254.768 79.96 255.6 79.96C256.506 79.96 257.232 79.7733 257.776 79.4ZM261.959 73.912V78.664C261.959 79.528 262.364 79.96 263.175 79.96C263.591 79.96 263.959 79.8373 264.279 79.592V80.792C263.927 80.984 263.532 81.08 263.095 81.08C261.495 81.08 260.695 80.264 260.695 78.632V73.912H259.399V72.888H260.695V70.872H261.959V72.888H264.199V73.912H261.959ZM270.489 77.256H269.081C268.398 77.256 267.886 77.3893 267.545 77.656C267.204 77.9227 267.033 78.2587 267.033 78.664C267.033 79.0693 267.166 79.4 267.433 79.656C267.7 79.9013 268.089 80.024 268.601 80.024C269.177 80.024 269.636 79.864 269.977 79.544C270.318 79.2133 270.489 78.7973 270.489 78.296V77.256ZM266.297 74.584V73.32C266.905 72.9467 267.705 72.76 268.697 72.76C270.734 72.76 271.753 73.7947 271.753 75.864V81H270.505V80.04C270.089 80.7333 269.332 81.08 268.233 81.08C267.476 81.08 266.862 80.856 266.393 80.408C265.934 79.96 265.705 79.3947 265.705 78.712C265.705 77.9333 265.998 77.3307 266.585 76.904C267.182 76.4667 267.993 76.248 269.017 76.248H270.489V75.832C270.489 75.192 270.345 74.712 270.057 74.392C269.769 74.0613 269.284 73.896 268.601 73.896C267.737 73.896 266.969 74.1253 266.297 74.584ZM278.412 73.16V74.36C277.921 74.0613 277.249 73.912 276.396 73.912C275.969 73.912 275.628 74.0133 275.372 74.216C275.127 74.408 275.004 74.6587 275.004 74.968C275.004 75.16 275.041 75.3307 275.116 75.48C275.191 75.6187 275.335 75.7573 275.548 75.896C275.772 76.0347 275.932 76.1307 276.028 76.184C276.135 76.2267 276.359 76.3227 276.7 76.472C277.383 76.7493 277.916 77.064 278.3 77.416C278.684 77.768 278.876 78.2427 278.876 78.84C278.876 79.5333 278.631 80.0827 278.14 80.488C277.66 80.8933 276.999 81.096 276.156 81.096C275.175 81.096 274.38 80.9307 273.772 80.6V79.368C274.487 79.7947 275.255 80.008 276.076 80.008C276.567 80.008 276.94 79.912 277.196 79.72C277.452 79.528 277.58 79.2667 277.58 78.936C277.58 78.552 277.436 78.2533 277.148 78.04C276.871 77.8267 276.401 77.5867 275.74 77.32C275.132 77.0853 274.641 76.792 274.268 76.44C273.905 76.088 273.724 75.6133 273.724 75.016C273.724 74.344 273.975 73.8107 274.476 73.416C274.988 73.0107 275.623 72.808 276.38 72.808C277.223 72.808 277.9 72.9253 278.412 73.16ZM280.078 80.856C279.897 80.6747 279.806 80.4507 279.806 80.184C279.806 79.9173 279.897 79.6933 280.078 79.512C280.259 79.3307 280.483 79.24 280.75 79.24C281.017 79.24 281.241 79.3307 281.422 79.512C281.603 79.6933 281.694 79.9173 281.694 80.184C281.694 80.4507 281.603 80.6747 281.422 80.856C281.241 81.0373 281.017 81.128 280.75 81.128C280.483 81.128 280.259 81.0373 280.078 80.856Z" fill="#979797"/>
<path d="M429 92.2822H406C404.895 92.2822 404 93.4015 404 94.7822V96.0322C404 97.4129 404.895 98.5322 406 98.5322H429C430.105 98.5322 431 97.4129 431 96.0322V94.7822C431 93.4015 430.105 92.2822 429 92.2822Z" fill="#FFAF40"/>
<path d="M429 86.0322H406C404.895 86.0322 404 87.1515 404 88.5322V89.7822C404 91.1629 404.895 92.2822 406 92.2822H429C430.105 92.2822 431 91.1629 431 89.7822V88.5322C431 87.1515 430.105 86.0322 429 86.0322Z" fill="#FFDD95"/>
<path d="M429 79.7822H406C404.895 79.7822 404 80.9015 404 82.2822V83.5322C404 84.9129 404.895 86.0322 406 86.0322H429C430.105 86.0322 431 84.9129 431 83.5322V82.2822C431 80.9015 430.105 79.7822 429 79.7822Z" fill="#FFAF40"/>
<path d="M429 73.5322H406C404.895 73.5322 404 74.6515 404 76.0322V77.2822C404 78.6629 404.895 79.7822 406 79.7822H429C430.105 79.7822 431 78.6629 431 77.2822V76.0322C431 74.6515 430.105 73.5322 429 73.5322Z" fill="#FFDD95"/>
<path d="M429 67.2822H406C404.895 67.2822 404 68.4015 404 69.7822V71.0322C404 72.4129 404.895 73.5322 406 73.5322H429C430.105 73.5322 431 72.4129 431 71.0322V69.7822C431 68.4015 430.105 67.2822 429 67.2822Z" fill="#FFAF40"/>
<path d="M429 61.0322H406C404.895 61.0322 404 62.1515 404 63.5322V64.7822C404 66.1629 404.895 67.2822 406 67.2822H429C430.105 67.2822 431 66.1629 431 64.7822V63.5322C431 62.1515 430.105 61.0322 429 61.0322Z" fill="#FFDD95"/>
<path d="M460 84.7822H437C435.895 84.7822 435 85.9015 435 87.2822V88.5322C435 89.9129 435.895 91.0322 437 91.0322H460C461.105 91.0322 462 89.9129 462 88.5322V87.2822C462 85.9015 461.105 84.7822 460 84.7822Z" fill="#FFAF40"/>
<path d="M460 78.5322H437C435.895 78.5322 435 79.6515 435 81.0322V82.2822C435 83.6629 435.895 84.7822 437 84.7822H460C461.105 84.7822 462 83.6629 462 82.2822V81.0322C462 79.6515 461.105 78.5322 460 78.5322Z" fill="#FFDD95"/>
<path d="M460 72.2822H437C435.895 72.2822 435 73.4015 435 74.7822V76.0322C435 77.4129 435.895 78.5322 437 78.5322H460C461.105 78.5322 462 77.4129 462 76.0322V74.7822C462 73.4015 461.105 72.2822 460 72.2822Z" fill="#FFAF40"/>
<path d="M460 66.0322H437C435.895 66.0322 435 67.1515 435 68.5322V69.7822C435 71.1629 435.895 72.2822 437 72.2822H460C461.105 72.2822 462 71.1629 462 69.7822V68.5322C462 67.1515 461.105 66.0322 460 66.0322Z" fill="#FFDD95"/>
<path d="M460 59.7822H437C435.895 59.7822 435 60.9015 435 62.2822V63.5322C435 64.9129 435.895 66.0322 437 66.0322H460C461.105 66.0322 462 64.9129 462 63.5322V62.2822C462 60.9015 461.105 59.7822 460 59.7822Z" fill="#FFAF40"/>
<path d="M460 47.2822H437C435.895 47.2822 435 48.4015 435 49.7822V51.0322C435 52.4129 435.895 53.5322 437 53.5322H460C461.105 53.5322 462 52.4129 462 51.0322V49.7822C462 48.4015 461.105 47.2822 460 47.2822Z" fill="#FFAF40"/>
<path d="M460 53.5322H437C435.895 53.5322 435 54.6515 435 56.0322V57.2822C435 58.6629 435.895 59.7822 437 59.7822H460C461.105 59.7822 462 58.6629 462 57.2822V56.0322C462 54.6515 461.105 53.5322 460 53.5322Z" fill="#FFDD95"/>
<path d="M460 41.0322H437C435.895 41.0322 435 42.1515 435 43.5322V44.7822C435 46.1629 435.895 47.2822 437 47.2822H460C461.105 47.2822 462 46.1629 462 44.7822V43.5322C462 42.1515 461.105 41.0322 460 41.0322Z" fill="#FFDD95"/>
<path d="M406.106 56.83L427.631 48.3838V38.015L449.455 30.2188" stroke="#22BA8E" stroke-width="2" stroke-linecap="round"/>
<path d="M445.813 27L449.903 30.1825L447.858 35.6125" stroke="#22BA8E" stroke-width="2" stroke-linecap="round"/>
</g>
<defs>
<filter id="filter0_d_1951_3311" x="0" y="0" width="537" height="132" filterUnits="userSpaceOnUse" color-interpolation-filters="sRGB">
<feFlood flood-opacity="0" result="BackgroundImageFix"/>
<feColorMatrix in="SourceAlpha" type="matrix" values="0 0 0 0 0 0 0 0 0 0 0 0 0 0 0 0 0 0 127 0" result="hardAlpha"/>
<feOffset dy="4"/>
<feGaussianBlur stdDeviation="8"/>
<feComposite in2="hardAlpha" operator="out"/>
<feColorMatrix type="matrix" values="0 0 0 0 0 0 0 0 0 0 0 0 0 0 0 0 0 0 0.03 0"/>
<feBlend mode="normal" in2="BackgroundImageFix" result="effect1_dropShadow_1951_3311"/>
<feBlend mode="normal" in="SourceGraphic" in2="effect1_dropShadow_1951_3311" result="shape"/>
</filter>
</defs>
</svg>
