<svg width="537" height="132" viewBox="0 0 537 132" fill="none" xmlns="http://www.w3.org/2000/svg">
<g filter="url(#filter0_d_1296_2745)">
<rect x="16" y="12" width="505" height="100" rx="10" fill="white"/>
<path d="M49.46 46V32.52H51.9L55.22 38.16C55.8333 39.2133 56.3867 40.1867 56.88 41.08C57.3867 41.9733 57.7333 42.6 57.92 42.96L58.2 43.52C58.12 42.3067 58.08 40.5267 58.08 38.18V32.52H60.14V46H57.7L54.36 40.38C53.76 39.3667 53.2067 38.4133 52.7 37.52C52.2067 36.6133 51.86 35.96 51.66 35.56L51.36 34.98C51.4667 36.3133 51.52 38.1067 51.52 40.36V46H49.46ZM67.2138 46.18C65.7204 46.18 64.5471 45.6933 63.6938 44.72C62.8404 43.7467 62.4138 42.5133 62.4138 41.02C62.4138 39.5 62.8538 38.24 63.7338 37.24C64.6138 36.2267 65.7738 35.72 67.2138 35.72C68.7604 35.72 69.9538 36.2133 70.7938 37.2C71.6338 38.1733 72.0538 39.42 72.0538 40.94C72.0538 42.46 71.6204 43.7133 70.7538 44.7C69.9004 45.6867 68.7204 46.18 67.2138 46.18ZM67.1938 37.38C66.3271 37.38 65.6538 37.7267 65.1738 38.42C64.6938 39.1 64.4538 39.9467 64.4538 40.96C64.4538 41.96 64.7004 42.8067 65.1938 43.5C65.6871 44.18 66.3604 44.52 67.2138 44.52C68.1204 44.52 68.8071 44.1867 69.2738 43.52C69.7538 42.8533 69.9938 42.0067 69.9938 40.98C69.9938 39.9267 69.7671 39.0667 69.3138 38.4C68.8604 37.72 68.1538 37.38 67.1938 37.38ZM80.0428 36.2V37.98C79.3895 37.5933 78.5495 37.4 77.5228 37.4C77.0561 37.4 76.6828 37.5067 76.4028 37.72C76.1361 37.9333 76.0028 38.2133 76.0028 38.56C76.0028 38.6533 76.0095 38.7467 76.0228 38.84C76.0495 38.92 76.0895 39.0067 76.1428 39.1C76.1961 39.18 76.2428 39.2533 76.2828 39.32C76.3361 39.3733 76.4161 39.4333 76.5228 39.5C76.6295 39.5667 76.7095 39.6267 76.7628 39.68C76.8295 39.72 76.9295 39.7733 77.0628 39.84C77.2095 39.9067 77.3161 39.96 77.3828 40C77.4495 40.0267 77.5628 40.08 77.7228 40.16C77.8961 40.2267 78.0161 40.2733 78.0828 40.3C78.8695 40.6467 79.4828 41.04 79.9228 41.48C80.3761 41.9067 80.6028 42.48 80.6028 43.2C80.6028 44.1067 80.2828 44.82 79.6428 45.34C79.0028 45.8467 78.1361 46.1 77.0428 46.1C75.8428 46.1 74.8428 45.9 74.0428 45.5V43.64C74.9761 44.2133 75.9428 44.5 76.9428 44.5C77.4628 44.5 77.8628 44.3933 78.1428 44.18C78.4361 43.9667 78.5828 43.6867 78.5828 43.34C78.5828 43.0467 78.4695 42.7867 78.2428 42.56C78.0161 42.32 77.7828 42.1467 77.5428 42.04C77.3161 41.92 76.9228 41.74 76.3628 41.5C74.7761 40.8467 73.9828 39.8867 73.9828 38.62C73.9828 37.7267 74.3161 37.0267 74.9828 36.52C75.6495 36.0133 76.4828 35.76 77.4828 35.76C78.5761 35.76 79.4295 35.9067 80.0428 36.2ZM88.4217 36.2V37.98C87.7684 37.5933 86.9284 37.4 85.9017 37.4C85.4351 37.4 85.0617 37.5067 84.7817 37.72C84.5151 37.9333 84.3817 38.2133 84.3817 38.56C84.3817 38.6533 84.3884 38.7467 84.4017 38.84C84.4284 38.92 84.4684 39.0067 84.5217 39.1C84.5751 39.18 84.6217 39.2533 84.6617 39.32C84.7151 39.3733 84.7951 39.4333 84.9017 39.5C85.0084 39.5667 85.0884 39.6267 85.1417 39.68C85.2084 39.72 85.3084 39.7733 85.4417 39.84C85.5884 39.9067 85.6951 39.96 85.7617 40C85.8284 40.0267 85.9417 40.08 86.1017 40.16C86.2751 40.2267 86.3951 40.2733 86.4617 40.3C87.2484 40.6467 87.8617 41.04 88.3017 41.48C88.7551 41.9067 88.9817 42.48 88.9817 43.2C88.9817 44.1067 88.6617 44.82 88.0217 45.34C87.3817 45.8467 86.5151 46.1 85.4217 46.1C84.2217 46.1 83.2217 45.9 82.4217 45.5V43.64C83.3551 44.2133 84.3217 44.5 85.3217 44.5C85.8417 44.5 86.2417 44.3933 86.5217 44.18C86.8151 43.9667 86.9617 43.6867 86.9617 43.34C86.9617 43.0467 86.8484 42.7867 86.6217 42.56C86.3951 42.32 86.1617 42.1467 85.9217 42.04C85.6951 41.92 85.3017 41.74 84.7417 41.5C83.1551 40.8467 82.3617 39.8867 82.3617 38.62C82.3617 37.7267 82.6951 37.0267 83.3617 36.52C84.0284 36.0133 84.8617 35.76 85.8617 35.76C86.9551 35.76 87.8084 35.9067 88.4217 36.2ZM95.2606 46.18C93.7673 46.18 92.594 45.6933 91.7406 44.72C90.8873 43.7467 90.4606 42.5133 90.4606 41.02C90.4606 39.5 90.9006 38.24 91.7806 37.24C92.6606 36.2267 93.8206 35.72 95.2606 35.72C96.8073 35.72 98.0006 36.2133 98.8406 37.2C99.6806 38.1733 100.101 39.42 100.101 40.94C100.101 42.46 99.6673 43.7133 98.8006 44.7C97.9473 45.6867 96.7673 46.18 95.2606 46.18ZM95.2406 37.38C94.374 37.38 93.7006 37.7267 93.2206 38.42C92.7406 39.1 92.5006 39.9467 92.5006 40.96C92.5006 41.96 92.7473 42.8067 93.2406 43.5C93.734 44.18 94.4073 44.52 95.2606 44.52C96.1673 44.52 96.854 44.1867 97.3206 43.52C97.8006 42.8533 98.0406 42.0067 98.0406 40.98C98.0406 39.9267 97.814 39.0667 97.3606 38.4C96.9073 37.72 96.2006 37.38 95.2406 37.38ZM111.472 46.18C109.978 46.18 108.805 45.6933 107.952 44.72C107.098 43.7467 106.672 42.5133 106.672 41.02C106.672 39.5 107.112 38.24 107.992 37.24C108.872 36.2267 110.032 35.72 111.472 35.72C113.018 35.72 114.212 36.2133 115.052 37.2C115.892 38.1733 116.312 39.42 116.312 40.94C116.312 42.46 115.878 43.7133 115.012 44.7C114.158 45.6867 112.978 46.18 111.472 46.18ZM111.452 37.38C110.585 37.38 109.912 37.7267 109.432 38.42C108.952 39.1 108.712 39.9467 108.712 40.96C108.712 41.96 108.958 42.8067 109.452 43.5C109.945 44.18 110.618 44.52 111.472 44.52C112.378 44.52 113.065 44.1867 113.532 43.52C114.012 42.8533 114.252 42.0067 114.252 40.98C114.252 39.9267 114.025 39.0667 113.572 38.4C113.118 37.72 112.412 37.38 111.452 37.38ZM123.301 44.42C124.047 44.42 124.674 44.1067 125.181 43.48C125.687 42.84 125.941 42.02 125.941 41.02C125.941 39.8733 125.687 38.9933 125.181 38.38C124.674 37.7533 124.027 37.44 123.241 37.44C122.547 37.44 121.921 37.72 121.361 38.28C120.814 38.84 120.541 39.7 120.541 40.86C120.541 42.06 120.807 42.9533 121.341 43.54C121.874 44.1267 122.527 44.42 123.301 44.42ZM120.541 31.86V37.4C121.261 36.28 122.281 35.72 123.601 35.72C124.881 35.72 125.927 36.2 126.741 37.16C127.554 38.12 127.961 39.3933 127.961 40.98C127.961 42.4067 127.574 43.6267 126.801 44.64C126.027 45.64 124.967 46.14 123.621 46.14C122.274 46.14 121.247 45.58 120.541 44.46V46H118.561V31.86H120.541ZM127.901 49.62V47.96C128.328 48.1733 128.755 48.28 129.181 48.28C129.915 48.28 130.281 47.8067 130.281 46.86V35.86H132.241V46.9C132.241 47.8467 131.988 48.5867 131.481 49.12C130.988 49.6533 130.281 49.92 129.361 49.92C128.935 49.92 128.448 49.82 127.901 49.62ZM130.381 33.64C130.141 33.4 130.021 33.1067 130.021 32.76C130.021 32.4133 130.135 32.12 130.361 31.88C130.601 31.64 130.895 31.52 131.241 31.52C131.588 31.52 131.881 31.64 132.121 31.88C132.361 32.12 132.481 32.4133 132.481 32.76C132.481 33.0933 132.361 33.38 132.121 33.62C131.881 33.86 131.588 33.98 131.241 33.98C130.908 33.98 130.621 33.8667 130.381 33.64ZM141.305 40.2V39.84C141.278 39.08 141.072 38.48 140.685 38.04C140.298 37.5867 139.745 37.36 139.025 37.36C138.358 37.36 137.785 37.6067 137.305 38.1C136.825 38.58 136.525 39.28 136.405 40.2H141.305ZM142.565 43.7V45.46C141.818 45.8867 140.832 46.1 139.605 46.1C138.032 46.1 136.778 45.6267 135.845 44.68C134.912 43.7333 134.445 42.4933 134.445 40.96C134.445 39.3333 134.872 38.06 135.725 37.14C136.578 36.2067 137.665 35.74 138.985 35.74C140.278 35.74 141.305 36.1467 142.065 36.96C142.825 37.76 143.205 38.92 143.205 40.44C143.205 40.8533 143.165 41.2867 143.085 41.74H136.425C136.558 42.62 136.932 43.2933 137.545 43.76C138.158 44.2267 138.932 44.46 139.865 44.46C140.945 44.46 141.845 44.2067 142.565 43.7ZM148.053 37.38V42.96C148.053 43.9333 148.519 44.42 149.453 44.42C149.999 44.42 150.459 44.2733 150.833 43.98V45.74C150.393 45.98 149.853 46.1 149.213 46.1C147.119 46.1 146.073 45.04 146.073 42.92V37.38H144.493V35.86H146.073V33.38H148.053V35.86H150.713V37.38H148.053ZM153.073 46V35.86H155.053V46H153.073ZM153.173 33.64C152.947 33.4 152.833 33.1067 152.833 32.76C152.833 32.4133 152.947 32.12 153.173 31.88C153.413 31.64 153.707 31.52 154.053 31.52C154.4 31.52 154.693 31.64 154.933 31.88C155.173 32.12 155.293 32.4133 155.293 32.76C155.293 33.0933 155.173 33.38 154.933 33.62C154.693 33.86 154.4 33.98 154.053 33.98C153.707 33.98 153.413 33.8667 153.173 33.64ZM160.496 46L156.896 35.86H158.956L160.336 40.14C160.656 41.1267 160.922 41.98 161.136 42.7C161.362 43.42 161.502 43.8933 161.556 44.12L161.636 44.46C161.756 43.8067 162.196 42.3667 162.956 40.14L164.376 35.86H166.416L162.736 46H160.496ZM172.409 46.18C170.916 46.18 169.742 45.6933 168.889 44.72C168.036 43.7467 167.609 42.5133 167.609 41.02C167.609 39.5 168.049 38.24 168.929 37.24C169.809 36.2267 170.969 35.72 172.409 35.72C173.956 35.72 175.149 36.2133 175.989 37.2C176.829 38.1733 177.249 39.42 177.249 40.94C177.249 42.46 176.816 43.7133 175.949 44.7C175.096 45.6867 173.916 46.18 172.409 46.18ZM172.389 37.38C171.522 37.38 170.849 37.7267 170.369 38.42C169.889 39.1 169.649 39.9467 169.649 40.96C169.649 41.96 169.896 42.8067 170.389 43.5C170.882 44.18 171.556 44.52 172.409 44.52C173.316 44.52 174.002 44.1867 174.469 43.52C174.949 42.8533 175.189 42.0067 175.189 40.98C175.189 39.9267 174.962 39.0667 174.509 38.4C174.056 37.72 173.349 37.38 172.389 37.38Z" fill="#3C5060"/>
<path d="M50.528 66.928H52.192C53.0027 66.928 53.6373 66.72 54.096 66.304C54.5547 65.8773 54.784 65.3387 54.784 64.688C54.784 63.9627 54.5493 63.3867 54.08 62.96C53.6107 62.5333 52.944 62.32 52.08 62.32H50.528V66.928ZM49.232 61.216H52.064C53.312 61.216 54.2933 61.5413 55.008 62.192C55.7333 62.832 56.096 63.664 56.096 64.688C56.096 65.648 55.7387 66.448 55.024 67.088C54.3093 67.7173 53.3653 68.032 52.192 68.032H50.528V72H49.232V61.216ZM59.1348 63.888V65.312C59.5614 64.3093 60.2974 63.808 61.3428 63.808C61.5348 63.808 61.6841 63.8187 61.7908 63.84V65.088C61.5668 65.0133 61.3374 64.976 61.1028 64.976C60.5374 64.976 60.0681 65.2373 59.6948 65.76C59.3214 66.2827 59.1348 66.8853 59.1348 67.568V72H57.8708L57.8868 63.888H59.1348ZM66.4015 72.144C65.2388 72.144 64.3162 71.7547 63.6335 70.976C62.9615 70.1867 62.6255 69.1947 62.6255 68C62.6255 66.7947 62.9722 65.792 63.6655 64.992C64.3695 64.1813 65.2815 63.776 66.4015 63.776C67.6282 63.776 68.5722 64.1707 69.2335 64.96C69.9055 65.7493 70.2415 66.752 70.2415 67.968C70.2415 69.1733 69.9002 70.1707 69.2175 70.96C68.5348 71.7493 67.5962 72.144 66.4015 72.144ZM66.4015 64.896C65.6335 64.896 65.0308 65.1947 64.5935 65.792C64.1562 66.3893 63.9375 67.12 63.9375 67.984C63.9375 68.8267 64.1615 69.5467 64.6095 70.144C65.0575 70.7307 65.6548 71.024 66.4015 71.024C67.2122 71.024 67.8362 70.736 68.2735 70.16C68.7108 69.5733 68.9295 68.848 68.9295 67.984C68.9295 67.088 68.7215 66.352 68.3055 65.776C67.8895 65.1893 67.2548 64.896 66.4015 64.896ZM75.6579 70.976C76.3405 70.976 76.9005 70.7093 77.3379 70.176C77.7752 69.632 77.9939 68.864 77.9939 67.872C77.9939 66.9867 77.7805 66.272 77.3539 65.728C76.9272 65.184 76.3885 64.912 75.7379 64.912C75.0872 64.912 74.5219 65.152 74.0419 65.632C73.5725 66.1013 73.3379 66.8747 73.3379 67.952C73.3379 68.9867 73.5779 69.7493 74.0579 70.24C74.5379 70.7307 75.0712 70.976 75.6579 70.976ZM73.3379 63.888V65.12C73.9032 64.2133 74.7405 63.76 75.8499 63.76C76.9272 63.76 77.7699 64.1547 78.3779 64.944C78.9965 65.7227 79.3059 66.6987 79.3059 67.872C79.3059 69.12 78.9805 70.144 78.3299 70.944C77.6899 71.7333 76.8525 72.128 75.8179 72.128C74.7512 72.128 73.9245 71.6747 73.3379 70.768V75.152H72.0899V63.888H73.3379ZM84.464 72.144C83.3013 72.144 82.3787 71.7547 81.696 70.976C81.024 70.1867 80.688 69.1947 80.688 68C80.688 66.7947 81.0347 65.792 81.728 64.992C82.432 64.1813 83.344 63.776 84.464 63.776C85.6907 63.776 86.6347 64.1707 87.296 64.96C87.968 65.7493 88.304 66.752 88.304 67.968C88.304 69.1733 87.9627 70.1707 87.28 70.96C86.5973 71.7493 85.6587 72.144 84.464 72.144ZM84.464 64.896C83.696 64.896 83.0933 65.1947 82.656 65.792C82.2187 66.3893 82 67.12 82 67.984C82 68.8267 82.224 69.5467 82.672 70.144C83.12 70.7307 83.7173 71.024 84.464 71.024C85.2747 71.024 85.8987 70.736 86.336 70.16C86.7733 69.5733 86.992 68.848 86.992 67.984C86.992 67.088 86.784 66.352 86.368 65.776C85.952 65.1893 85.3173 64.896 84.464 64.896ZM91.4004 63.888V65.312C91.827 64.3093 92.563 63.808 93.6084 63.808C93.8004 63.808 93.9497 63.8187 94.0564 63.84V65.088C93.8324 65.0133 93.603 64.976 93.3684 64.976C92.803 64.976 92.3337 65.2373 91.9604 65.76C91.587 66.2827 91.4004 66.8853 91.4004 67.568V72H90.1364L90.1524 63.888H91.4004ZM96.2031 67.984C96.2138 68.8587 96.4805 69.5893 97.0031 70.176C97.5258 70.752 98.2671 71.04 99.2271 71.04C99.8458 71.04 100.422 70.864 100.955 70.512V71.712C100.443 72.0213 99.8138 72.176 99.0671 72.176C97.7871 72.176 96.7685 71.7707 96.0111 70.96C95.2645 70.1387 94.8911 69.1413 94.8911 67.968C94.8911 66.816 95.2645 65.824 96.0111 64.992C96.7685 64.16 97.7978 63.744 99.0991 63.744C99.7925 63.744 100.411 63.8933 100.955 64.192V65.392C100.464 65.0613 99.8885 64.896 99.2271 64.896C98.3098 64.896 97.5738 65.1947 97.0191 65.792C96.4751 66.3787 96.2031 67.1093 96.2031 67.984ZM102.966 72V63.888H104.23V72H102.966ZM102.998 61.936C102.849 61.776 102.774 61.5787 102.774 61.344C102.774 61.1093 102.849 60.912 102.998 60.752C103.158 60.592 103.356 60.512 103.59 60.512C103.825 60.512 104.022 60.592 104.182 60.752C104.342 60.912 104.422 61.1093 104.422 61.344C104.422 61.5787 104.342 61.776 104.182 61.936C104.022 62.0853 103.825 62.16 103.59 62.16C103.356 62.16 103.158 62.0853 102.998 61.936ZM109.933 72.144C108.77 72.144 107.847 71.7547 107.165 70.976C106.493 70.1867 106.157 69.1947 106.157 68C106.157 66.7947 106.503 65.792 107.197 64.992C107.901 64.1813 108.813 63.776 109.933 63.776C111.159 63.776 112.103 64.1707 112.765 64.96C113.437 65.7493 113.773 66.752 113.773 67.968C113.773 69.1733 113.431 70.1707 112.749 70.96C112.066 71.7493 111.127 72.144 109.933 72.144ZM109.933 64.896C109.165 64.896 108.562 65.1947 108.125 65.792C107.687 66.3893 107.469 67.12 107.469 67.984C107.469 68.8267 107.693 69.5467 108.141 70.144C108.589 70.7307 109.186 71.024 109.933 71.024C110.743 71.024 111.367 70.736 111.805 70.16C112.242 69.5733 112.461 68.848 112.461 67.984C112.461 67.088 112.253 66.352 111.837 65.776C111.421 65.1893 110.786 64.896 109.933 64.896ZM116.869 63.888V65.296C117.349 64.2827 118.202 63.776 119.429 63.776C120.218 63.776 120.848 64.016 121.317 64.496C121.786 64.976 122.021 65.616 122.021 66.416V72H120.757V66.752C120.757 66.1547 120.602 65.7013 120.293 65.392C119.994 65.072 119.6 64.912 119.109 64.912C118.501 64.912 117.973 65.1467 117.525 65.616C117.088 66.0853 116.869 66.736 116.869 67.568V72H115.621V63.888H116.869ZM128.63 68.256H127.222C126.539 68.256 126.027 68.3893 125.686 68.656C125.344 68.9227 125.174 69.2587 125.174 69.664C125.174 70.0693 125.307 70.4 125.574 70.656C125.84 70.9013 126.23 71.024 126.742 71.024C127.318 71.024 127.776 70.864 128.118 70.544C128.459 70.2133 128.63 69.7973 128.63 69.296V68.256ZM124.438 65.584V64.32C125.046 63.9467 125.846 63.76 126.838 63.76C128.875 63.76 129.894 64.7947 129.894 66.864V72H128.646V71.04C128.23 71.7333 127.472 72.08 126.374 72.08C125.616 72.08 125.003 71.856 124.534 71.408C124.075 70.96 123.846 70.3947 123.846 69.712C123.846 68.9333 124.139 68.3307 124.726 67.904C125.323 67.4667 126.134 67.248 127.158 67.248H128.63V66.832C128.63 66.192 128.486 65.712 128.198 65.392C127.91 65.0613 127.424 64.896 126.742 64.896C125.878 64.896 125.11 65.1253 124.438 65.584ZM133.385 63.888V65.312C133.811 64.3093 134.547 63.808 135.593 63.808C135.785 63.808 135.934 63.8187 136.041 63.84V65.088C135.817 65.0133 135.587 64.976 135.353 64.976C134.787 64.976 134.318 65.2373 133.945 65.76C133.571 66.2827 133.385 66.8853 133.385 67.568V72H132.121L132.137 63.888H133.385ZM146.302 63.888H147.566V72H146.302V70.592C145.875 71.5947 145.027 72.096 143.758 72.096C142.958 72.096 142.323 71.8613 141.854 71.392C141.395 70.912 141.166 70.272 141.166 69.472V63.888H142.43V69.152C142.43 69.7387 142.579 70.1867 142.878 70.496C143.176 70.8053 143.582 70.96 144.094 70.96C144.766 70.96 145.299 70.7253 145.694 70.256C146.099 69.7867 146.302 69.152 146.302 68.352V63.888ZM151.15 63.888V65.2C151.598 64.2507 152.361 63.776 153.438 63.776C154.686 63.776 155.476 64.304 155.806 65.36C156.041 64.848 156.366 64.4587 156.782 64.192C157.209 63.9147 157.684 63.776 158.206 63.776C159.049 63.776 159.684 64.016 160.11 64.496C160.537 64.976 160.75 65.6213 160.75 66.432V72H159.486V66.752C159.486 65.5253 158.969 64.912 157.934 64.912C157.422 64.912 156.964 65.1467 156.558 65.616C156.153 66.0747 155.95 66.7253 155.95 67.568V72H154.686V66.752C154.686 65.5253 154.169 64.912 153.134 64.912C152.622 64.912 152.164 65.1467 151.758 65.616C151.353 66.0747 151.15 66.7253 151.15 67.568V72H149.902V63.888H151.15ZM171.318 64.16V65.36C170.828 65.0613 170.156 64.912 169.302 64.912C168.876 64.912 168.534 65.0133 168.278 65.216C168.033 65.408 167.91 65.6587 167.91 65.968C167.91 66.16 167.948 66.3307 168.022 66.48C168.097 66.6187 168.241 66.7573 168.454 66.896C168.678 67.0347 168.838 67.1307 168.934 67.184C169.041 67.2267 169.265 67.3227 169.606 67.472C170.289 67.7493 170.822 68.064 171.206 68.416C171.59 68.768 171.782 69.2427 171.782 69.84C171.782 70.5333 171.537 71.0827 171.046 71.488C170.566 71.8933 169.905 72.096 169.062 72.096C168.081 72.096 167.286 71.9307 166.678 71.6V70.368C167.393 70.7947 168.161 71.008 168.982 71.008C169.473 71.008 169.846 70.912 170.102 70.72C170.358 70.528 170.486 70.2667 170.486 69.936C170.486 69.552 170.342 69.2533 170.054 69.04C169.777 68.8267 169.308 68.5867 168.646 68.32C168.038 68.0853 167.548 67.792 167.174 67.44C166.812 67.088 166.63 66.6133 166.63 66.016C166.63 65.344 166.881 64.8107 167.382 64.416C167.894 64.0107 168.529 63.808 169.286 63.808C170.129 63.808 170.806 63.9253 171.318 64.16ZM173.56 72V63.888H174.824V72H173.56ZM173.592 61.936C173.443 61.776 173.368 61.5787 173.368 61.344C173.368 61.1093 173.443 60.912 173.592 60.752C173.752 60.592 173.949 60.512 174.184 60.512C174.419 60.512 174.616 60.592 174.776 60.752C174.936 60.912 175.016 61.1093 175.016 61.344C175.016 61.5787 174.936 61.776 174.776 61.936C174.616 62.0853 174.419 62.16 174.184 62.16C173.949 62.16 173.752 62.0853 173.592 61.936ZM181.647 64.16V65.36C181.156 65.0613 180.484 64.912 179.631 64.912C179.204 64.912 178.863 65.0133 178.607 65.216C178.361 65.408 178.239 65.6587 178.239 65.968C178.239 66.16 178.276 66.3307 178.351 66.48C178.425 66.6187 178.569 66.7573 178.783 66.896C179.007 67.0347 179.167 67.1307 179.263 67.184C179.369 67.2267 179.593 67.3227 179.935 67.472C180.617 67.7493 181.151 68.064 181.535 68.416C181.919 68.768 182.111 69.2427 182.111 69.84C182.111 70.5333 181.865 71.0827 181.375 71.488C180.895 71.8933 180.233 72.096 179.391 72.096C178.409 72.096 177.615 71.9307 177.007 71.6V70.368C177.721 70.7947 178.489 71.008 179.311 71.008C179.801 71.008 180.175 70.912 180.431 70.72C180.687 70.528 180.815 70.2667 180.815 69.936C180.815 69.552 180.671 69.2533 180.383 69.04C180.105 68.8267 179.636 68.5867 178.975 68.32C178.367 68.0853 177.876 67.792 177.503 67.44C177.14 67.088 176.959 66.6133 176.959 66.016C176.959 65.344 177.209 64.8107 177.711 64.416C178.223 64.0107 178.857 63.808 179.615 63.808C180.457 63.808 181.135 63.9253 181.647 64.16ZM185.568 64.912V69.664C185.568 70.528 185.974 70.96 186.784 70.96C187.2 70.96 187.568 70.8373 187.888 70.592V71.792C187.536 71.984 187.142 72.08 186.704 72.08C185.104 72.08 184.304 71.264 184.304 69.632V64.912H183.008V63.888H184.304V61.872H185.568V63.888H187.808V64.912H185.568ZM194.899 67.424V67.104C194.899 66.432 194.717 65.8987 194.355 65.504C193.992 65.0987 193.491 64.896 192.851 64.896C192.243 64.896 191.725 65.1147 191.299 65.552C190.872 65.9893 190.621 66.6133 190.547 67.424H194.899ZM195.651 70.4V71.584C195.021 71.9147 194.253 72.08 193.347 72.08C192.12 72.08 191.128 71.7067 190.371 70.96C189.624 70.2027 189.251 69.2053 189.251 67.968C189.251 66.6773 189.587 65.6587 190.259 64.912C190.931 64.1653 191.795 63.792 192.851 63.792C193.864 63.792 194.669 64.1173 195.267 64.768C195.864 65.4187 196.163 66.3413 196.163 67.536C196.163 67.8773 196.136 68.192 196.083 68.48H190.547C190.643 69.28 190.947 69.8933 191.459 70.32C191.971 70.7467 192.643 70.96 193.475 70.96C194.381 70.96 195.107 70.7733 195.651 70.4ZM199.338 63.888V65.2C199.786 64.2507 200.549 63.776 201.626 63.776C202.874 63.776 203.663 64.304 203.994 65.36C204.229 64.848 204.554 64.4587 204.97 64.192C205.397 63.9147 205.871 63.776 206.394 63.776C207.237 63.776 207.871 64.016 208.298 64.496C208.725 64.976 208.938 65.6213 208.938 66.432V72H207.674V66.752C207.674 65.5253 207.157 64.912 206.122 64.912C205.61 64.912 205.151 65.1467 204.746 65.616C204.341 66.0747 204.138 66.7253 204.138 67.568V72H202.874V66.752C202.874 65.5253 202.357 64.912 201.322 64.912C200.81 64.912 200.351 65.1467 199.946 65.616C199.541 66.0747 199.338 66.7253 199.338 67.568V72H198.09V63.888H199.338ZM215.552 68.256H214.144C213.461 68.256 212.949 68.3893 212.608 68.656C212.266 68.9227 212.096 69.2587 212.096 69.664C212.096 70.0693 212.229 70.4 212.496 70.656C212.762 70.9013 213.152 71.024 213.664 71.024C214.24 71.024 214.698 70.864 215.04 70.544C215.381 70.2133 215.552 69.7973 215.552 69.296V68.256ZM211.36 65.584V64.32C211.968 63.9467 212.768 63.76 213.76 63.76C215.797 63.76 216.816 64.7947 216.816 66.864V72H215.568V71.04C215.152 71.7333 214.394 72.08 213.296 72.08C212.538 72.08 211.925 71.856 211.456 71.408C210.997 70.96 210.768 70.3947 210.768 69.712C210.768 68.9333 211.061 68.3307 211.648 67.904C212.245 67.4667 213.056 67.248 214.08 67.248H215.552V66.832C215.552 66.192 215.408 65.712 215.12 65.392C214.832 65.0613 214.346 64.896 213.664 64.896C212.8 64.896 212.032 65.1253 211.36 65.584ZM227.381 64.16V65.36C226.89 65.0613 226.218 64.912 225.365 64.912C224.938 64.912 224.597 65.0133 224.341 65.216C224.096 65.408 223.973 65.6587 223.973 65.968C223.973 66.16 224.01 66.3307 224.085 66.48C224.16 66.6187 224.304 66.7573 224.517 66.896C224.741 67.0347 224.901 67.1307 224.997 67.184C225.104 67.2267 225.328 67.3227 225.669 67.472C226.352 67.7493 226.885 68.064 227.269 68.416C227.653 68.768 227.845 69.2427 227.845 69.84C227.845 70.5333 227.6 71.0827 227.109 71.488C226.629 71.8933 225.968 72.096 225.125 72.096C224.144 72.096 223.349 71.9307 222.741 71.6V70.368C223.456 70.7947 224.224 71.008 225.045 71.008C225.536 71.008 225.909 70.912 226.165 70.72C226.421 70.528 226.549 70.2667 226.549 69.936C226.549 69.552 226.405 69.2533 226.117 69.04C225.84 68.8267 225.37 68.5867 224.709 68.32C224.101 68.0853 223.61 67.792 223.237 67.44C222.874 67.088 222.693 66.6133 222.693 66.016C222.693 65.344 222.944 64.8107 223.445 64.416C223.957 64.0107 224.592 63.808 225.349 63.808C226.192 63.808 226.869 63.9253 227.381 64.16ZM229.623 72V63.888H230.887V72H229.623ZM229.655 61.936C229.505 61.776 229.431 61.5787 229.431 61.344C229.431 61.1093 229.505 60.912 229.655 60.752C229.815 60.592 230.012 60.512 230.247 60.512C230.481 60.512 230.679 60.592 230.839 60.752C230.999 60.912 231.079 61.1093 231.079 61.344C231.079 61.5787 230.999 61.776 230.839 61.936C230.679 62.0853 230.481 62.16 230.247 62.16C230.012 62.16 229.815 62.0853 229.655 61.936ZM234.541 63.888V65.2C234.989 64.2507 235.752 63.776 236.829 63.776C238.077 63.776 238.866 64.304 239.197 65.36C239.432 64.848 239.757 64.4587 240.173 64.192C240.6 63.9147 241.074 63.776 241.597 63.776C242.44 63.776 243.074 64.016 243.501 64.496C243.928 64.976 244.141 65.6213 244.141 66.432V72H242.877V66.752C242.877 65.5253 242.36 64.912 241.325 64.912C240.813 64.912 240.354 65.1467 239.949 65.616C239.544 66.0747 239.341 66.7253 239.341 67.568V72H238.077V66.752C238.077 65.5253 237.56 64.912 236.525 64.912C236.013 64.912 235.554 65.1467 235.149 65.616C234.744 66.0747 234.541 66.7253 234.541 67.568V72H233.293V63.888H234.541ZM249.955 70.976C250.637 70.976 251.197 70.7093 251.635 70.176C252.072 69.632 252.291 68.864 252.291 67.872C252.291 66.9867 252.077 66.272 251.651 65.728C251.224 65.184 250.685 64.912 250.035 64.912C249.384 64.912 248.819 65.152 248.339 65.632C247.869 66.1013 247.635 66.8747 247.635 67.952C247.635 68.9867 247.875 69.7493 248.355 70.24C248.835 70.7307 249.368 70.976 249.955 70.976ZM247.635 63.888V65.12C248.2 64.2133 249.037 63.76 250.147 63.76C251.224 63.76 252.067 64.1547 252.675 64.944C253.293 65.7227 253.603 66.6987 253.603 67.872C253.603 69.12 253.277 70.144 252.627 70.944C251.987 71.7333 251.149 72.128 250.115 72.128C249.048 72.128 248.221 71.6747 247.635 70.768V75.152H246.387V63.888H247.635ZM255.529 72V60.688H256.793V72H255.529ZM264.367 67.424V67.104C264.367 66.432 264.186 65.8987 263.823 65.504C263.461 65.0987 262.959 64.896 262.319 64.896C261.711 64.896 261.194 65.1147 260.767 65.552C260.341 65.9893 260.09 66.6133 260.015 67.424H264.367ZM265.119 70.4V71.584C264.49 71.9147 263.722 72.08 262.815 72.08C261.589 72.08 260.597 71.7067 259.839 70.96C259.093 70.2027 258.719 69.2053 258.719 67.968C258.719 66.6773 259.055 65.6587 259.727 64.912C260.399 64.1653 261.263 63.792 262.319 63.792C263.333 63.792 264.138 64.1173 264.735 64.768C265.333 65.4187 265.631 66.3413 265.631 67.536C265.631 67.8773 265.605 68.192 265.551 68.48H260.015C260.111 69.28 260.415 69.8933 260.927 70.32C261.439 70.7467 262.111 70.96 262.943 70.96C263.85 70.96 264.575 70.7733 265.119 70.4ZM271.975 64.16V65.36C271.484 65.0613 270.812 64.912 269.959 64.912C269.532 64.912 269.191 65.0133 268.935 65.216C268.689 65.408 268.567 65.6587 268.567 65.968C268.567 66.16 268.604 66.3307 268.679 66.48C268.753 66.6187 268.897 66.7573 269.111 66.896C269.335 67.0347 269.495 67.1307 269.591 67.184C269.697 67.2267 269.921 67.3227 270.263 67.472C270.945 67.7493 271.479 68.064 271.863 68.416C272.247 68.768 272.439 69.2427 272.439 69.84C272.439 70.5333 272.193 71.0827 271.703 71.488C271.223 71.8933 270.561 72.096 269.719 72.096C268.737 72.096 267.943 71.9307 267.335 71.6V70.368C268.049 70.7947 268.817 71.008 269.639 71.008C270.129 71.008 270.503 70.912 270.759 70.72C271.015 70.528 271.143 70.2667 271.143 69.936C271.143 69.552 270.999 69.2533 270.711 69.04C270.433 68.8267 269.964 68.5867 269.303 68.32C268.695 68.0853 268.204 67.792 267.831 67.44C267.468 67.088 267.287 66.6133 267.287 66.016C267.287 65.344 267.537 64.8107 268.039 64.416C268.551 64.0107 269.185 63.808 269.943 63.808C270.785 63.808 271.463 63.9253 271.975 64.16ZM281.147 70.976C281.808 70.976 282.368 70.7307 282.827 70.24C283.296 69.7493 283.531 68.9653 283.531 67.888C283.531 66.864 283.291 66.112 282.811 65.632C282.331 65.152 281.803 64.912 281.227 64.912C280.555 64.912 279.995 65.184 279.547 65.728C279.109 66.2613 278.891 67.0293 278.891 68.032C278.891 68.9067 279.104 69.616 279.531 70.16C279.957 70.704 280.496 70.976 281.147 70.976ZM283.531 60.688H284.795V72H283.531V70.8C282.955 71.6853 282.123 72.128 281.035 72.128C279.957 72.128 279.109 71.728 278.491 70.928C277.883 70.128 277.579 69.1573 277.579 68.016C277.579 66.7467 277.904 65.7227 278.555 64.944C279.205 64.1547 280.043 63.76 281.067 63.76C282.123 63.76 282.944 64.2133 283.531 65.12V60.688ZM292.305 67.424V67.104C292.305 66.432 292.123 65.8987 291.761 65.504C291.398 65.0987 290.897 64.896 290.257 64.896C289.649 64.896 289.131 65.1147 288.705 65.552C288.278 65.9893 288.027 66.6133 287.953 67.424H292.305ZM293.057 70.4V71.584C292.427 71.9147 291.659 72.08 290.753 72.08C289.526 72.08 288.534 71.7067 287.777 70.96C287.03 70.2027 286.657 69.2053 286.657 67.968C286.657 66.6773 286.993 65.6587 287.665 64.912C288.337 64.1653 289.201 63.792 290.257 63.792C291.27 63.792 292.075 64.1173 292.673 64.768C293.27 65.4187 293.569 66.3413 293.569 67.536C293.569 67.8773 293.542 68.192 293.489 68.48H287.953C288.049 69.28 288.353 69.8933 288.865 70.32C289.377 70.7467 290.049 70.96 290.881 70.96C291.787 70.96 292.513 70.7733 293.057 70.4ZM52.736 94.976C53.4187 94.976 53.9787 94.7093 54.416 94.176C54.8533 93.632 55.072 92.864 55.072 91.872C55.072 90.9867 54.8587 90.272 54.432 89.728C54.0053 89.184 53.4667 88.912 52.816 88.912C52.1653 88.912 51.6 89.152 51.12 89.632C50.6507 90.1013 50.416 90.8747 50.416 91.952C50.416 92.9867 50.656 93.7493 51.136 94.24C51.616 94.7307 52.1493 94.976 52.736 94.976ZM50.416 87.888V89.12C50.9813 88.2133 51.8187 87.76 52.928 87.76C54.0053 87.76 54.848 88.1547 55.456 88.944C56.0747 89.7227 56.384 90.6987 56.384 91.872C56.384 93.12 56.0587 94.144 55.408 94.944C54.768 95.7333 53.9307 96.128 52.896 96.128C51.8293 96.128 51.0027 95.6747 50.416 94.768V99.152H49.168V87.888H50.416ZM58.3101 96V84.688H59.5741V96H58.3101ZM66.3485 92.256H64.9405C64.2578 92.256 63.7458 92.3893 63.4045 92.656C63.0632 92.9227 62.8925 93.2587 62.8925 93.664C62.8925 94.0693 63.0258 94.4 63.2925 94.656C63.5592 94.9013 63.9485 95.024 64.4605 95.024C65.0365 95.024 65.4952 94.864 65.8365 94.544C66.1778 94.2133 66.3485 93.7973 66.3485 93.296V92.256ZM62.1565 89.584V88.32C62.7645 87.9467 63.5645 87.76 64.5565 87.76C66.5938 87.76 67.6125 88.7947 67.6125 90.864V96H66.3645V95.04C65.9485 95.7333 65.1912 96.08 64.0925 96.08C63.3352 96.08 62.7218 95.856 62.2525 95.408C61.7938 94.96 61.5645 94.3947 61.5645 93.712C61.5645 92.9333 61.8578 92.3307 62.4445 91.904C63.0418 91.4667 63.8525 91.248 64.8765 91.248H66.3485V90.832C66.3485 90.192 66.2045 89.712 65.9165 89.392C65.6285 89.0613 65.1432 88.896 64.4605 88.896C63.5965 88.896 62.8285 89.1253 62.1565 89.584ZM71.1035 87.888V89.296C71.5835 88.2827 72.4368 87.776 73.6635 87.776C74.4528 87.776 75.0822 88.016 75.5515 88.496C76.0208 88.976 76.2555 89.616 76.2555 90.416V96H74.9915V90.752C74.9915 90.1547 74.8368 89.7013 74.5275 89.392C74.2288 89.072 73.8342 88.912 73.3435 88.912C72.7355 88.912 72.2075 89.1467 71.7595 89.616C71.3222 90.0853 71.1035 90.736 71.1035 91.568V96H69.8555V87.888H71.1035ZM83.6641 91.424V91.104C83.6641 90.432 83.4828 89.8987 83.1201 89.504C82.7575 89.0987 82.2561 88.896 81.6161 88.896C81.0081 88.896 80.4908 89.1147 80.0641 89.552C79.6375 89.9893 79.3868 90.6133 79.3121 91.424H83.6641ZM84.4161 94.4V95.584C83.7868 95.9147 83.0188 96.08 82.1121 96.08C80.8855 96.08 79.8935 95.7067 79.1361 94.96C78.3895 94.2027 78.0161 93.2053 78.0161 91.968C78.0161 90.6773 78.3521 89.6587 79.0241 88.912C79.6961 88.1653 80.5601 87.792 81.6161 87.792C82.6295 87.792 83.4348 88.1173 84.0321 88.768C84.6295 89.4187 84.9281 90.3413 84.9281 91.536C84.9281 91.8773 84.9015 92.192 84.8481 92.48H79.3121C79.4081 93.28 79.7121 93.8933 80.2241 94.32C80.7361 94.7467 81.4081 94.96 82.2401 94.96C83.1468 94.96 83.8721 94.7733 84.4161 94.4ZM84.9515 98.88V97.76C85.3568 97.9307 85.7195 98.016 86.0395 98.016C86.6368 98.016 86.9355 97.6267 86.9355 96.848V87.888H88.1835V96.88C88.1835 97.584 87.9968 98.1333 87.6235 98.528C87.2608 98.9227 86.7542 99.12 86.1035 99.12C85.7515 99.12 85.3675 99.04 84.9515 98.88ZM86.9515 85.936C86.8022 85.776 86.7275 85.5787 86.7275 85.344C86.7275 85.1093 86.8022 84.912 86.9515 84.752C87.1115 84.592 87.3088 84.512 87.5435 84.512C87.7782 84.512 87.9755 84.592 88.1355 84.752C88.2955 84.912 88.3755 85.1093 88.3755 85.344C88.3755 85.5787 88.2955 85.776 88.1355 85.936C87.9755 86.0853 87.7782 86.16 87.5435 86.16C87.3088 86.16 87.1115 86.0853 86.9515 85.936ZM94.8641 92.256H93.4561C92.7735 92.256 92.2615 92.3893 91.9201 92.656C91.5788 92.9227 91.4081 93.2587 91.4081 93.664C91.4081 94.0693 91.5415 94.4 91.8081 94.656C92.0748 94.9013 92.4641 95.024 92.9761 95.024C93.5521 95.024 94.0108 94.864 94.3521 94.544C94.6935 94.2133 94.8641 93.7973 94.8641 93.296V92.256ZM90.6721 89.584V88.32C91.2801 87.9467 92.0801 87.76 93.0721 87.76C95.1095 87.76 96.1281 88.7947 96.1281 90.864V96H94.8801V95.04C94.4641 95.7333 93.7068 96.08 92.6081 96.08C91.8508 96.08 91.2375 95.856 90.7681 95.408C90.3095 94.96 90.0801 94.3947 90.0801 93.712C90.0801 92.9333 90.3735 92.3307 90.9601 91.904C91.5575 91.4667 92.3681 91.248 93.3921 91.248H94.8641V90.832C94.8641 90.192 94.7201 89.712 94.4321 89.392C94.1441 89.0613 93.6588 88.896 92.9761 88.896C92.1121 88.896 91.3441 89.1253 90.6721 89.584ZM99.6191 87.888V89.2C100.067 88.2507 100.83 87.776 101.907 87.776C103.155 87.776 103.944 88.304 104.275 89.36C104.51 88.848 104.835 88.4587 105.251 88.192C105.678 87.9147 106.152 87.776 106.675 87.776C107.518 87.776 108.152 88.016 108.579 88.496C109.006 88.976 109.219 89.6213 109.219 90.432V96H107.955V90.752C107.955 89.5253 107.438 88.912 106.403 88.912C105.891 88.912 105.432 89.1467 105.027 89.616C104.622 90.0747 104.419 90.7253 104.419 91.568V96H103.155V90.752C103.155 89.5253 102.638 88.912 101.603 88.912C101.091 88.912 100.632 89.1467 100.227 89.616C99.8218 90.0747 99.6191 90.7253 99.6191 91.568V96H98.3711V87.888H99.6191ZM116.633 91.424V91.104C116.633 90.432 116.452 89.8987 116.089 89.504C115.726 89.0987 115.225 88.896 114.585 88.896C113.977 88.896 113.46 89.1147 113.033 89.552C112.606 89.9893 112.356 90.6133 112.281 91.424H116.633ZM117.385 94.4V95.584C116.756 95.9147 115.988 96.08 115.081 96.08C113.854 96.08 112.862 95.7067 112.105 94.96C111.358 94.2027 110.985 93.2053 110.985 91.968C110.985 90.6773 111.321 89.6587 111.993 88.912C112.665 88.1653 113.529 87.792 114.585 87.792C115.598 87.792 116.404 88.1173 117.001 88.768C117.598 89.4187 117.897 90.3413 117.897 91.536C117.897 91.8773 117.87 92.192 117.817 92.48H112.281C112.377 93.28 112.681 93.8933 113.193 94.32C113.705 94.7467 114.377 94.96 115.209 94.96C116.116 94.96 116.841 94.7733 117.385 94.4ZM121.072 87.888V89.296C121.552 88.2827 122.406 87.776 123.632 87.776C124.422 87.776 125.051 88.016 125.52 88.496C125.99 88.976 126.224 89.616 126.224 90.416V96H124.96V90.752C124.96 90.1547 124.806 89.7013 124.496 89.392C124.198 89.072 123.803 88.912 123.312 88.912C122.704 88.912 122.176 89.1467 121.728 89.616C121.291 90.0853 121.072 90.736 121.072 91.568V96H119.824V87.888H121.072ZM130.209 88.912V93.664C130.209 94.528 130.614 94.96 131.425 94.96C131.841 94.96 132.209 94.8373 132.529 94.592V95.792C132.177 95.984 131.782 96.08 131.345 96.08C129.745 96.08 128.945 95.264 128.945 93.632V88.912H127.649V87.888H128.945V85.872H130.209V87.888H132.449V88.912H130.209ZM137.667 96.144C136.504 96.144 135.582 95.7547 134.899 94.976C134.227 94.1867 133.891 93.1947 133.891 92C133.891 90.7947 134.238 89.792 134.931 88.992C135.635 88.1813 136.547 87.776 137.667 87.776C138.894 87.776 139.838 88.1707 140.499 88.96C141.171 89.7493 141.507 90.752 141.507 91.968C141.507 93.1733 141.166 94.1707 140.483 94.96C139.8 95.7493 138.862 96.144 137.667 96.144ZM137.667 88.896C136.899 88.896 136.296 89.1947 135.859 89.792C135.422 90.3893 135.203 91.12 135.203 91.984C135.203 92.8267 135.427 93.5467 135.875 94.144C136.323 94.7307 136.92 95.024 137.667 95.024C138.478 95.024 139.102 94.736 139.539 94.16C139.976 93.5733 140.195 92.848 140.195 91.984C140.195 91.088 139.987 90.352 139.571 89.776C139.155 89.1893 138.52 88.896 137.667 88.896ZM153.214 87.888V96H151.95V88.912H149.23V96H147.966V88.912H146.574V87.888H147.966V87.136C147.966 86.3467 148.179 85.7227 148.606 85.264C149.032 84.8053 149.635 84.576 150.414 84.576C151.171 84.576 151.912 84.7573 152.638 85.12V86.288C151.891 85.904 151.166 85.712 150.462 85.712C149.64 85.712 149.23 86.192 149.23 87.152V87.888H153.214ZM156.729 87.888V89.296C157.209 88.2827 158.062 87.776 159.289 87.776C160.078 87.776 160.707 88.016 161.177 88.496C161.646 88.976 161.881 89.616 161.881 90.416V96H160.617V90.752C160.617 90.1547 160.462 89.7013 160.153 89.392C159.854 89.072 159.459 88.912 158.969 88.912C158.361 88.912 157.833 89.1467 157.385 89.616C156.947 90.0853 156.729 90.736 156.729 91.568V96H155.481V87.888H156.729ZM168.489 92.256H167.081C166.398 92.256 165.886 92.3893 165.545 92.656C165.204 92.9227 165.033 93.2587 165.033 93.664C165.033 94.0693 165.166 94.4 165.433 94.656C165.7 94.9013 166.089 95.024 166.601 95.024C167.177 95.024 167.636 94.864 167.977 94.544C168.318 94.2133 168.489 93.7973 168.489 93.296V92.256ZM164.297 89.584V88.32C164.905 87.9467 165.705 87.76 166.697 87.76C168.734 87.76 169.753 88.7947 169.753 90.864V96H168.505V95.04C168.089 95.7333 167.332 96.08 166.233 96.08C165.476 96.08 164.862 95.856 164.393 95.408C163.934 94.96 163.705 94.3947 163.705 93.712C163.705 92.9333 163.998 92.3307 164.585 91.904C165.182 91.4667 165.993 91.248 167.017 91.248H168.489V90.832C168.489 90.192 168.345 89.712 168.057 89.392C167.769 89.0613 167.284 88.896 166.601 88.896C165.737 88.896 164.969 89.1253 164.297 89.584ZM173.244 87.888V89.296C173.724 88.2827 174.577 87.776 175.804 87.776C176.593 87.776 177.223 88.016 177.692 88.496C178.161 88.976 178.396 89.616 178.396 90.416V96H177.132V90.752C177.132 90.1547 176.977 89.7013 176.668 89.392C176.369 89.072 175.975 88.912 175.484 88.912C174.876 88.912 174.348 89.1467 173.9 89.616C173.463 90.0853 173.244 90.736 173.244 91.568V96H171.996V87.888H173.244ZM181.469 91.984C181.479 92.8587 181.746 93.5893 182.269 94.176C182.791 94.752 183.533 95.04 184.493 95.04C185.111 95.04 185.687 94.864 186.221 94.512V95.712C185.709 96.0213 185.079 96.176 184.333 96.176C183.053 96.176 182.034 95.7707 181.277 94.96C180.53 94.1387 180.157 93.1413 180.157 91.968C180.157 90.816 180.53 89.824 181.277 88.992C182.034 88.16 183.063 87.744 184.365 87.744C185.058 87.744 185.677 87.8933 186.221 88.192V89.392C185.73 89.0613 185.154 88.896 184.493 88.896C183.575 88.896 182.839 89.1947 182.285 89.792C181.741 90.3787 181.469 91.1093 181.469 91.984ZM193.336 91.424V91.104C193.336 90.432 193.155 89.8987 192.792 89.504C192.429 89.0987 191.928 88.896 191.288 88.896C190.68 88.896 190.163 89.1147 189.736 89.552C189.309 89.9893 189.059 90.6133 188.984 91.424H193.336ZM194.088 94.4V95.584C193.459 95.9147 192.691 96.08 191.784 96.08C190.557 96.08 189.565 95.7067 188.808 94.96C188.061 94.2027 187.688 93.2053 187.688 91.968C187.688 90.6773 188.024 89.6587 188.696 88.912C189.368 88.1653 190.232 87.792 191.288 87.792C192.301 87.792 193.107 88.1173 193.704 88.768C194.301 89.4187 194.6 90.3413 194.6 91.536C194.6 91.8773 194.573 92.192 194.52 92.48H188.984C189.08 93.28 189.384 93.8933 189.896 94.32C190.408 94.7467 191.08 94.96 191.912 94.96C192.819 94.96 193.544 94.7733 194.088 94.4ZM196.591 96V87.888H197.855V96H196.591ZM196.623 85.936C196.474 85.776 196.399 85.5787 196.399 85.344C196.399 85.1093 196.474 84.912 196.623 84.752C196.783 84.592 196.981 84.512 197.215 84.512C197.45 84.512 197.647 84.592 197.807 84.752C197.967 84.912 198.047 85.1093 198.047 85.344C198.047 85.5787 197.967 85.776 197.807 85.936C197.647 86.0853 197.45 86.16 197.215 86.16C196.981 86.16 196.783 86.0853 196.623 85.936ZM201.51 87.888V89.312C201.936 88.3093 202.672 87.808 203.718 87.808C203.91 87.808 204.059 87.8187 204.166 87.84V89.088C203.942 89.0133 203.712 88.976 203.478 88.976C202.912 88.976 202.443 89.2373 202.07 89.76C201.696 90.2827 201.51 90.8853 201.51 91.568V96H200.246L200.262 87.888H201.51ZM208.777 96.144C207.614 96.144 206.691 95.7547 206.009 94.976C205.337 94.1867 205.001 93.1947 205.001 92C205.001 90.7947 205.347 89.792 206.041 88.992C206.745 88.1813 207.657 87.776 208.777 87.776C210.003 87.776 210.947 88.1707 211.609 88.96C212.281 89.7493 212.617 90.752 212.617 91.968C212.617 93.1733 212.275 94.1707 211.593 94.96C210.91 95.7493 209.971 96.144 208.777 96.144ZM208.777 88.896C208.009 88.896 207.406 89.1947 206.969 89.792C206.531 90.3893 206.312 91.12 206.312 91.984C206.312 92.8267 206.537 93.5467 206.985 94.144C207.433 94.7307 208.03 95.024 208.777 95.024C209.587 95.024 210.211 94.736 210.649 94.16C211.086 93.5733 211.305 92.848 211.305 91.984C211.305 91.088 211.097 90.352 210.681 89.776C210.265 89.1893 209.63 88.896 208.777 88.896ZM213.953 95.856C213.772 95.6747 213.681 95.4507 213.681 95.184C213.681 94.9173 213.772 94.6933 213.953 94.512C214.134 94.3307 214.358 94.24 214.625 94.24C214.892 94.24 215.116 94.3307 215.297 94.512C215.478 94.6933 215.569 94.9173 215.569 95.184C215.569 95.4507 215.478 95.6747 215.297 95.856C215.116 96.0373 214.892 96.128 214.625 96.128C214.358 96.128 214.134 96.0373 213.953 95.856Z" fill="#979797"/>
<path d="M428 81C427.869 81.0001 427.739 80.9743 427.617 80.924C427.496 80.8738 427.386 80.8002 427.293 80.7073C427.2 80.6144 427.126 80.5041 427.076 80.3828C427.026 80.2614 427 80.1313 427 80V75C427 74.7348 427.105 74.4804 427.293 74.2929C427.48 74.1054 427.735 74 428 74C428.265 74 428.52 74.1054 428.707 74.2929C428.895 74.4804 429 74.7348 429 75V80C429 80.1313 428.974 80.2614 428.924 80.3828C428.874 80.5041 428.8 80.6144 428.707 80.7073C428.614 80.8002 428.504 80.8738 428.383 80.924C428.261 80.9743 428.131 81.0001 428 81Z" fill="#8491C1"/>
<path d="M408 40H448C448.53 40 449.039 40.2107 449.414 40.5858C449.789 40.9609 450 41.4696 450 42V44H406V42C406 41.4696 406.211 40.9609 406.586 40.5858C406.961 40.2107 407.47 40 408 40Z" fill="#CC8679"/>
<path d="M448 40H446C446.53 40 447.039 40.2107 447.414 40.5858C447.789 40.9609 448 41.4696 448 42V44H450V42C450 41.4696 449.789 40.9609 449.414 40.5858C449.039 40.2107 448.53 40 448 40Z" fill="#BF7267"/>
<path d="M406 71H450V73C450 73.5304 449.789 74.0391 449.414 74.4142C449.039 74.7893 448.53 75 448 75H408C407.47 75 406.961 74.7893 406.586 74.4142C406.211 74.0391 406 73.5304 406 73V71Z" fill="#CC8679"/>
<path d="M448 71V73C448 73.5304 447.789 74.0391 447.414 74.4142C447.039 74.7893 446.53 75 446 75H448C448.53 75 449.039 74.7893 449.414 74.4142C449.789 74.0391 450 73.5304 450 73V71H448Z" fill="#BF7267"/>
<path d="M407 44H449V71H407V44Z" fill="#D3DBEF"/>
<path d="M447 44H449V71H447V44Z" fill="#BFCAE2"/>
<path d="M432 54H428C427.735 54 427.48 53.8946 427.293 53.7071C427.105 53.5196 427 53.2652 427 53C427 52.7348 427.105 52.4804 427.293 52.2929C427.48 52.1054 427.735 52 428 52H432C432.265 52 432.52 52.1054 432.707 52.2929C432.895 52.4804 433 52.7348 433 53C433 53.2652 432.895 53.5196 432.707 53.7071C432.52 53.8946 432.265 54 432 54Z" fill="#8491C1"/>
<path d="M441 58H428C427.735 58 427.48 57.8946 427.293 57.7071C427.105 57.5196 427 57.2652 427 57C427 56.7348 427.105 56.4804 427.293 56.2929C427.48 56.1054 427.735 56 428 56H441C441.265 56 441.52 56.1054 441.707 56.2929C441.895 56.4804 442 56.7348 442 57C442 57.2652 441.895 57.5196 441.707 57.7071C441.52 57.8946 441.265 58 441 58Z" fill="#8491C1"/>
<path d="M441 62H428C427.735 62 427.48 61.8946 427.293 61.7071C427.105 61.5196 427 61.2652 427 61C427 60.7348 427.105 60.4804 427.293 60.2929C427.48 60.1054 427.735 60 428 60H441C441.265 60 441.52 60.1054 441.707 60.2929C441.895 60.4804 442 60.7348 442 61C442 61.2652 441.895 61.5196 441.707 61.7071C441.52 61.8946 441.265 62 441 62Z" fill="#8491C1"/>
<path d="M420 62H415C414.735 62 414.48 61.8946 414.293 61.7071C414.105 61.5196 414 61.2652 414 61C414 60.7348 414.105 60.4804 414.293 60.2929C414.48 60.1054 414.735 60 415 60H420V58H416C415.47 57.9993 414.961 57.7884 414.587 57.4135C414.212 57.0385 414.001 56.5302 414 56V54C414.001 53.4698 414.212 52.9615 414.587 52.5865C414.961 52.2116 415.47 52.0007 416 52H421C421.265 52 421.52 52.1054 421.707 52.2929C421.895 52.4804 422 52.7348 422 53C422 53.2652 421.895 53.5196 421.707 53.7071C421.52 53.8946 421.265 54 421 54H416V56H420C420.53 56.0007 421.039 56.2116 421.413 56.5865C421.788 56.9615 421.999 57.4698 422 58V60C421.999 60.5302 421.788 61.0385 421.413 61.4135C421.039 61.7884 420.53 61.9993 420 62Z" fill="#8491C1"/>
<path d="M418 54C417.869 54.0001 417.739 53.9743 417.617 53.924C417.496 53.8738 417.386 53.8002 417.293 53.7073C417.2 53.6144 417.126 53.5041 417.076 53.3828C417.026 53.2614 417 53.1313 417 53V51C417 50.7348 417.105 50.4804 417.293 50.2929C417.48 50.1054 417.735 50 418 50C418.265 50 418.52 50.1054 418.707 50.2929C418.895 50.4804 419 50.7348 419 51V53C419 53.1313 418.974 53.2614 418.924 53.3828C418.874 53.5041 418.8 53.6144 418.707 53.7073C418.614 53.8002 418.504 53.8738 418.383 53.924C418.261 53.9743 418.131 54.0001 418 54Z" fill="#8491C1"/>
<path d="M418 64C417.869 64.0001 417.739 63.9743 417.617 63.924C417.496 63.8738 417.386 63.8002 417.293 63.7073C417.2 63.6144 417.126 63.5041 417.076 63.3828C417.026 63.2614 417 63.1313 417 63V61C417 60.7348 417.105 60.4804 417.293 60.2929C417.48 60.1054 417.735 60 418 60C418.265 60 418.52 60.1054 418.707 60.2929C418.895 60.4804 419 60.7348 419 61V63C419 63.1313 418.974 63.2614 418.924 63.3828C418.874 63.5041 418.8 63.6144 418.707 63.7073C418.614 63.8002 418.504 63.8738 418.383 63.924C418.261 63.9743 418.131 64.0001 418 64Z" fill="#8491C1"/>
<path d="M428 85C427.407 85 426.827 84.8241 426.333 84.4944C425.84 84.1648 425.455 83.6962 425.228 83.148C425.001 82.5999 424.942 81.9967 425.058 81.4147C425.173 80.8328 425.459 80.2982 425.879 79.8787C426.298 79.4591 426.833 79.1734 427.415 79.0576C427.997 78.9419 428.6 79.0013 429.148 79.2284C429.696 79.4554 430.165 79.8399 430.494 80.3333C430.824 80.8266 431 81.4067 431 82C430.999 82.7954 430.683 83.5579 430.12 84.1204C429.558 84.6828 428.795 84.9991 428 85ZM428 81C427.802 81 427.609 81.0586 427.444 81.1685C427.28 81.2784 427.152 81.4346 427.076 81.6173C427 81.8 426.981 82.0011 427.019 82.1951C427.058 82.3891 427.153 82.5673 427.293 82.7071C427.433 82.847 427.611 82.9422 427.805 82.9808C427.999 83.0194 428.2 82.9996 428.383 82.9239C428.565 82.8482 428.722 82.72 428.831 82.5556C428.941 82.3911 429 82.1978 429 82C429 81.7348 428.894 81.4806 428.707 81.2931C428.519 81.1056 428.265 81.0002 428 81Z" fill="#8491C1"/>
<path d="M451 44V42C450.999 41.2046 450.683 40.4421 450.12 39.8796C449.558 39.3172 448.795 39.0009 448 39H408C407.205 39.0009 406.442 39.3172 405.88 39.8796C405.317 40.4421 405.001 41.2046 405 42V44C405 44.1313 405.026 44.2614 405.076 44.3828C405.126 44.5041 405.2 44.6144 405.293 44.7073C405.386 44.8002 405.496 44.8738 405.617 44.924C405.739 44.9743 405.869 45.0001 406 45V70C405.869 69.9999 405.739 70.0257 405.617 70.076C405.496 70.1262 405.386 70.1998 405.293 70.2927C405.2 70.3856 405.126 70.4959 405.076 70.6172C405.026 70.7386 405 70.8687 405 71V73C405.001 73.7954 405.317 74.5579 405.88 75.1204C406.442 75.6828 407.205 75.9991 408 76H427V79.1843C426.333 79.4202 425.77 79.8844 425.412 80.4948C425.054 81.1052 424.924 81.8225 425.043 82.52C425.163 83.2175 425.525 83.8503 426.066 84.3064C426.607 84.7625 427.292 85.0127 428 85.0127C428.708 85.0127 429.393 84.7625 429.934 84.3064C430.475 83.8503 430.837 83.2175 430.957 82.52C431.076 81.8225 430.946 81.1052 430.588 80.4948C430.23 79.8844 429.667 79.4202 429 79.1843V76H448C448.795 75.9991 449.558 75.6828 450.12 75.1204C450.683 74.5579 450.999 73.7954 451 73V71C451 70.8687 450.974 70.7386 450.924 70.6172C450.874 70.4959 450.8 70.3856 450.707 70.2927C450.614 70.1998 450.504 70.1262 450.383 70.076C450.261 70.0257 450.131 69.9999 450 70V45C450.131 45.0001 450.261 44.9743 450.383 44.924C450.504 44.8738 450.614 44.8002 450.707 44.7073C450.8 44.6144 450.874 44.5041 450.924 44.3828C450.974 44.2614 451 44.1313 451 44ZM428 83C427.802 83 427.609 82.9414 427.444 82.8315C427.28 82.7216 427.152 82.5654 427.076 82.3827C427 82.2 426.981 81.9989 427.019 81.8049C427.058 81.6109 427.153 81.4327 427.293 81.2929C427.433 81.153 427.611 81.0578 427.805 81.0192C427.999 80.9806 428.2 81.0004 428.383 81.0761C428.565 81.1518 428.722 81.28 428.831 81.4444C428.941 81.6089 429 81.8022 429 82C429 82.2652 428.894 82.5194 428.707 82.7069C428.519 82.8944 428.265 82.9998 428 83ZM407 42C407 41.7348 407.106 41.4806 407.293 41.2931C407.481 41.1056 407.735 41.0002 408 41H448C448.265 41.0002 448.519 41.1056 448.707 41.2931C448.894 41.4806 449 41.7348 449 42V43H407V42ZM449 73C449 73.2652 448.894 73.5194 448.707 73.7069C448.519 73.8944 448.265 73.9998 448 74H408C407.735 73.9998 407.481 73.8944 407.293 73.7069C407.106 73.5194 407 73.2652 407 73V72H449V73ZM448 70H408V45H448V70Z" fill="#231F20"/>
<path d="M428 54H432C432.265 54 432.52 53.8946 432.707 53.7071C432.895 53.5196 433 53.2652 433 53C433 52.7348 432.895 52.4804 432.707 52.2929C432.52 52.1054 432.265 52 432 52H428C427.735 52 427.48 52.1054 427.293 52.2929C427.105 52.4804 427 52.7348 427 53C427 53.2652 427.105 53.5196 427.293 53.7071C427.48 53.8946 427.735 54 428 54Z" fill="#231F20"/>
<path d="M428 58H441C441.265 58 441.52 57.8946 441.707 57.7071C441.895 57.5196 442 57.2652 442 57C442 56.7348 441.895 56.4804 441.707 56.2929C441.52 56.1054 441.265 56 441 56H428C427.735 56 427.48 56.1054 427.293 56.2929C427.105 56.4804 427 56.7348 427 57C427 57.2652 427.105 57.5196 427.293 57.7071C427.48 57.8946 427.735 58 428 58Z" fill="#231F20"/>
<path d="M428 62H441C441.265 62 441.52 61.8946 441.707 61.7071C441.895 61.5196 442 61.2652 442 61C442 60.7348 441.895 60.4804 441.707 60.2929C441.52 60.1054 441.265 60 441 60H428C427.735 60 427.48 60.1054 427.293 60.2929C427.105 60.4804 427 60.7348 427 61C427 61.2652 427.105 61.5196 427.293 61.7071C427.48 61.8946 427.735 62 428 62Z" fill="#231F20"/>
<path d="M415 60C414.735 60 414.48 60.1054 414.293 60.2929C414.105 60.4804 414 60.7348 414 61C414 61.2652 414.105 61.5196 414.293 61.7071C414.48 61.8946 414.735 62 415 62H417V63C417 63.2652 417.105 63.5196 417.293 63.7071C417.48 63.8946 417.735 64 418 64C418.265 64 418.52 63.8946 418.707 63.7071C418.895 63.5196 419 63.2652 419 63V62H420C420.53 61.9993 421.039 61.7884 421.413 61.4135C421.788 61.0385 421.999 60.5302 422 60V58C421.999 57.4698 421.788 56.9615 421.413 56.5865C421.039 56.2116 420.53 56.0007 420 56H416V54H421C421.265 54 421.52 53.8946 421.707 53.7071C421.895 53.5196 422 53.2652 422 53C422 52.7348 421.895 52.4804 421.707 52.2929C421.52 52.1054 421.265 52 421 52H419V51C419 50.7348 418.895 50.4804 418.707 50.2929C418.52 50.1054 418.265 50 418 50C417.735 50 417.48 50.1054 417.293 50.2929C417.105 50.4804 417 50.7348 417 51V52H416C415.47 52.0007 414.961 52.2116 414.587 52.5865C414.212 52.9615 414.001 53.4698 414 54V56C414.001 56.5302 414.212 57.0385 414.587 57.4135C414.961 57.7884 415.47 57.9993 416 58H420V60H415Z" fill="#231F20"/>
</g>
<defs>
<filter id="filter0_d_1296_2745" x="0" y="0" width="537" height="132" filterUnits="userSpaceOnUse" color-interpolation-filters="sRGB">
<feFlood flood-opacity="0" result="BackgroundImageFix"/>
<feColorMatrix in="SourceAlpha" type="matrix" values="0 0 0 0 0 0 0 0 0 0 0 0 0 0 0 0 0 0 127 0" result="hardAlpha"/>
<feOffset dy="4"/>
<feGaussianBlur stdDeviation="8"/>
<feComposite in2="hardAlpha" operator="out"/>
<feColorMatrix type="matrix" values="0 0 0 0 0 0 0 0 0 0 0 0 0 0 0 0 0 0 0.03 0"/>
<feBlend mode="normal" in2="BackgroundImageFix" result="effect1_dropShadow_1296_2745"/>
<feBlend mode="normal" in="SourceGraphic" in2="effect1_dropShadow_1296_2745" result="shape"/>
</filter>
</defs>
</svg>
