<svg width="537" height="132" viewBox="0 0 537 132" fill="none" xmlns="http://www.w3.org/2000/svg">
<g filter="url(#filter0_d_1951_3204)">
<rect x="16" y="12" width="505" height="100" rx="10" fill="white"/>
<path d="M52.14 44.54C51.4333 45.4333 51.08 46.6533 51.08 48.2C51.08 49.7467 51.4467 50.9733 52.18 51.88C52.9133 52.7867 53.8933 53.24 55.12 53.24C56.3867 53.24 57.3733 52.7933 58.08 51.9C58.7867 51.0067 59.14 49.7733 59.14 48.2C59.14 46.64 58.78 45.4133 58.06 44.52C57.3533 43.6267 56.3667 43.18 55.1 43.18C53.8467 43.18 52.86 43.6333 52.14 44.54ZM61.98 56.98L59.7 57.88L55.76 55.14C55.6133 55.1533 55.4 55.16 55.12 55.16C53.24 55.16 51.7333 54.5267 50.6 53.26C49.48 51.9933 48.92 50.3067 48.92 48.2C48.92 46.1067 49.48 44.4267 50.6 43.16C51.72 41.8933 53.22 41.26 55.1 41.26C57.02 41.26 58.5333 41.8933 59.64 43.16C60.7467 44.4133 61.3 46.0933 61.3 48.2C61.3 49.7067 61.0067 51.0133 60.42 52.12C59.8333 53.2267 59.0067 54.04 57.94 54.56L61.98 56.98ZM70.055 44.86H72.015V55H70.055V53.26C69.5217 54.5 68.4683 55.12 66.895 55.12C65.895 55.12 65.1017 54.8267 64.515 54.24C63.9283 53.64 63.635 52.82 63.635 51.78V44.86H65.615V51.3C65.615 51.9933 65.7817 52.5267 66.115 52.9C66.4617 53.26 66.935 53.44 67.535 53.44C68.295 53.44 68.9017 53.1733 69.355 52.64C69.8217 52.1067 70.055 51.3533 70.055 50.38V44.86ZM81.0706 49.2V48.84C81.044 48.08 80.8373 47.48 80.4506 47.04C80.064 46.5867 79.5106 46.36 78.7906 46.36C78.124 46.36 77.5506 46.6067 77.0706 47.1C76.5906 47.58 76.2906 48.28 76.1706 49.2H81.0706ZM82.3306 52.7V54.46C81.584 54.8867 80.5973 55.1 79.3706 55.1C77.7973 55.1 76.544 54.6267 75.6106 53.68C74.6773 52.7333 74.2106 51.4933 74.2106 49.96C74.2106 48.3333 74.6373 47.06 75.4906 46.14C76.344 45.2067 77.4306 44.74 78.7506 44.74C80.044 44.74 81.0706 45.1467 81.8306 45.96C82.5906 46.76 82.9706 47.92 82.9706 49.44C82.9706 49.8533 82.9306 50.2867 82.8506 50.74H76.1906C76.324 51.62 76.6973 52.2933 77.3106 52.76C77.924 53.2267 78.6973 53.46 79.6306 53.46C80.7106 53.46 81.6106 53.2067 82.3306 52.7ZM87.2384 44.86V46.48C87.8118 45.3067 88.7651 44.72 90.0984 44.72C91.6184 44.72 92.5918 45.3733 93.0184 46.68C93.2984 46.0533 93.7051 45.5733 94.2384 45.24C94.7718 44.8933 95.3718 44.72 96.0384 44.72C97.0784 44.72 97.8651 45.0267 98.3984 45.64C98.9451 46.2533 99.2184 47.1 99.2184 48.18V55H97.2584V48.6C97.2584 47.1467 96.6718 46.42 95.4984 46.42C94.9118 46.42 94.3851 46.68 93.9184 47.2C93.4651 47.72 93.2384 48.4867 93.2384 49.5V55H91.2784V48.6C91.2784 47.1467 90.6851 46.42 89.4984 46.42C88.9251 46.42 88.4051 46.68 87.9384 47.2C87.4718 47.72 87.2384 48.4867 87.2384 49.5V55H85.2784V44.86H87.2384ZM112.582 45.2V46.98C111.929 46.5933 111.089 46.4 110.062 46.4C109.595 46.4 109.222 46.5067 108.942 46.72C108.675 46.9333 108.542 47.2133 108.542 47.56C108.542 47.6533 108.549 47.7467 108.562 47.84C108.589 47.92 108.629 48.0067 108.682 48.1C108.735 48.18 108.782 48.2533 108.822 48.32C108.875 48.3733 108.955 48.4333 109.062 48.5C109.169 48.5667 109.249 48.6267 109.302 48.68C109.369 48.72 109.469 48.7733 109.602 48.84C109.749 48.9067 109.855 48.96 109.922 49C109.989 49.0267 110.102 49.08 110.262 49.16C110.435 49.2267 110.555 49.2733 110.622 49.3C111.409 49.6467 112.022 50.04 112.462 50.48C112.915 50.9067 113.142 51.48 113.142 52.2C113.142 53.1067 112.822 53.82 112.182 54.34C111.542 54.8467 110.675 55.1 109.582 55.1C108.382 55.1 107.382 54.9 106.582 54.5V52.64C107.515 53.2133 108.482 53.5 109.482 53.5C110.002 53.5 110.402 53.3933 110.682 53.18C110.975 52.9667 111.122 52.6867 111.122 52.34C111.122 52.0467 111.009 51.7867 110.782 51.56C110.555 51.32 110.322 51.1467 110.082 51.04C109.855 50.92 109.462 50.74 108.902 50.5C107.315 49.8467 106.522 48.8867 106.522 47.62C106.522 46.7267 106.855 46.0267 107.522 45.52C108.189 45.0133 109.022 44.76 110.022 44.76C111.115 44.76 111.969 44.9067 112.582 45.2ZM119.421 55.18C117.927 55.18 116.754 54.6933 115.901 53.72C115.047 52.7467 114.621 51.5133 114.621 50.02C114.621 48.5 115.061 47.24 115.941 46.24C116.821 45.2267 117.981 44.72 119.421 44.72C120.967 44.72 122.161 45.2133 123.001 46.2C123.841 47.1733 124.261 48.42 124.261 49.94C124.261 51.46 123.827 52.7133 122.961 53.7C122.107 54.6867 120.927 55.18 119.421 55.18ZM119.401 46.38C118.534 46.38 117.861 46.7267 117.381 47.42C116.901 48.1 116.661 48.9467 116.661 49.96C116.661 50.96 116.907 51.8067 117.401 52.5C117.894 53.18 118.567 53.52 119.421 53.52C120.327 53.52 121.014 53.1867 121.481 52.52C121.961 51.8533 122.201 51.0067 122.201 49.98C122.201 48.9267 121.974 48.0667 121.521 47.4C121.067 46.72 120.361 46.38 119.401 46.38ZM128.43 44.86V46.48C129.003 45.3067 129.957 44.72 131.29 44.72C132.81 44.72 133.783 45.3733 134.21 46.68C134.49 46.0533 134.897 45.5733 135.43 45.24C135.963 44.8933 136.563 44.72 137.23 44.72C138.27 44.72 139.057 45.0267 139.59 45.64C140.137 46.2533 140.41 47.1 140.41 48.18V55H138.45V48.6C138.45 47.1467 137.863 46.42 136.69 46.42C136.103 46.42 135.577 46.68 135.11 47.2C134.657 47.72 134.43 48.4867 134.43 49.5V55H132.47V48.6C132.47 47.1467 131.877 46.42 130.69 46.42C130.117 46.42 129.597 46.68 129.13 47.2C128.663 47.72 128.43 48.4867 128.43 49.5V55H126.47V44.86H128.43ZM147.311 55.18C145.818 55.18 144.645 54.6933 143.791 53.72C142.938 52.7467 142.511 51.5133 142.511 50.02C142.511 48.5 142.951 47.24 143.831 46.24C144.711 45.2267 145.871 44.72 147.311 44.72C148.858 44.72 150.051 45.2133 150.891 46.2C151.731 47.1733 152.151 48.42 152.151 49.94C152.151 51.46 151.718 52.7133 150.851 53.7C149.998 54.6867 148.818 55.18 147.311 55.18ZM147.291 46.38C146.425 46.38 145.751 46.7267 145.271 47.42C144.791 48.1 144.551 48.9467 144.551 49.96C144.551 50.96 144.798 51.8067 145.291 52.5C145.785 53.18 146.458 53.52 147.311 53.52C148.218 53.52 148.905 53.1867 149.371 52.52C149.851 51.8533 150.091 51.0067 150.091 49.98C150.091 48.9267 149.865 48.0667 149.411 47.4C148.958 46.72 148.251 46.38 147.291 46.38ZM160.14 45.2V46.98C159.487 46.5933 158.647 46.4 157.62 46.4C157.154 46.4 156.78 46.5067 156.5 46.72C156.234 46.9333 156.1 47.2133 156.1 47.56C156.1 47.6533 156.107 47.7467 156.12 47.84C156.147 47.92 156.187 48.0067 156.24 48.1C156.294 48.18 156.34 48.2533 156.38 48.32C156.434 48.3733 156.514 48.4333 156.62 48.5C156.727 48.5667 156.807 48.6267 156.86 48.68C156.927 48.72 157.027 48.7733 157.16 48.84C157.307 48.9067 157.414 48.96 157.48 49C157.547 49.0267 157.66 49.08 157.82 49.16C157.994 49.2267 158.114 49.2733 158.18 49.3C158.967 49.6467 159.58 50.04 160.02 50.48C160.474 50.9067 160.7 51.48 160.7 52.2C160.7 53.1067 160.38 53.82 159.74 54.34C159.1 54.8467 158.234 55.1 157.14 55.1C155.94 55.1 154.94 54.9 154.14 54.5V52.64C155.074 53.2133 156.04 53.5 157.04 53.5C157.56 53.5 157.96 53.3933 158.24 53.18C158.534 52.9667 158.68 52.6867 158.68 52.34C158.68 52.0467 158.567 51.7867 158.34 51.56C158.114 51.32 157.88 51.1467 157.64 51.04C157.414 50.92 157.02 50.74 156.46 50.5C154.874 49.8467 154.08 48.8867 154.08 47.62C154.08 46.7267 154.414 46.0267 155.08 45.52C155.747 45.0133 156.58 44.76 157.58 44.76C158.674 44.76 159.527 44.9067 160.14 45.2Z" fill="#3C5060"/>
<path d="M55.808 76.936V70.216H57.104V76.904C57.104 78.2907 56.752 79.3413 56.048 80.056C55.3547 80.7707 54.384 81.128 53.136 81.128C51.9093 81.128 50.9493 80.7813 50.256 80.088C49.5627 79.384 49.216 78.3653 49.216 77.032V70.216H50.512V77.016C50.512 78.008 50.7467 78.7387 51.216 79.208C51.696 79.6773 52.336 79.912 53.136 79.912C54.9173 79.912 55.808 78.92 55.808 76.936ZM60.7285 72.888V74.2C61.1765 73.2507 61.9392 72.776 63.0165 72.776C64.2645 72.776 65.0538 73.304 65.3845 74.36C65.6192 73.848 65.9445 73.4587 66.3605 73.192C66.7872 72.9147 67.2618 72.776 67.7845 72.776C68.6272 72.776 69.2618 73.016 69.6885 73.496C70.1152 73.976 70.3285 74.6213 70.3285 75.432V81H69.0645V75.752C69.0645 74.5253 68.5472 73.912 67.5125 73.912C67.0005 73.912 66.5418 74.1467 66.1365 74.616C65.7312 75.0747 65.5285 75.7253 65.5285 76.568V81H64.2645V75.752C64.2645 74.5253 63.7472 73.912 62.7125 73.912C62.2005 73.912 61.7418 74.1467 61.3365 74.616C60.9312 75.0747 60.7285 75.7253 60.7285 76.568V81H59.4805V72.888H60.7285ZM80.8965 73.16V74.36C80.4058 74.0613 79.7338 73.912 78.8805 73.912C78.4538 73.912 78.1125 74.0133 77.8565 74.216C77.6112 74.408 77.4885 74.6587 77.4885 74.968C77.4885 75.16 77.5258 75.3307 77.6005 75.48C77.6752 75.6187 77.8192 75.7573 78.0325 75.896C78.2565 76.0347 78.4165 76.1307 78.5125 76.184C78.6192 76.2267 78.8432 76.3227 79.1845 76.472C79.8672 76.7493 80.4005 77.064 80.7845 77.416C81.1685 77.768 81.3605 78.2427 81.3605 78.84C81.3605 79.5333 81.1152 80.0827 80.6245 80.488C80.1445 80.8933 79.4832 81.096 78.6405 81.096C77.6592 81.096 76.8645 80.9307 76.2565 80.6V79.368C76.9712 79.7947 77.7392 80.008 78.5605 80.008C79.0512 80.008 79.4245 79.912 79.6805 79.72C79.9365 79.528 80.0645 79.2667 80.0645 78.936C80.0645 78.552 79.9205 78.2533 79.6325 78.04C79.3552 77.8267 78.8858 77.5867 78.2245 77.32C77.6165 77.0853 77.1258 76.792 76.7525 76.44C76.3898 76.088 76.2085 75.6133 76.2085 75.016C76.2085 74.344 76.4592 73.8107 76.9605 73.416C77.4725 73.0107 78.1072 72.808 78.8645 72.808C79.7072 72.808 80.3845 72.9253 80.8965 73.16ZM83.1383 81V72.888H84.4023V81H83.1383ZM83.1703 70.936C83.0209 70.776 82.9463 70.5787 82.9463 70.344C82.9463 70.1093 83.0209 69.912 83.1703 69.752C83.3303 69.592 83.5276 69.512 83.7623 69.512C83.9969 69.512 84.1943 69.592 84.3543 69.752C84.5143 69.912 84.5943 70.1093 84.5943 70.344C84.5943 70.5787 84.5143 70.776 84.3543 70.936C84.1943 71.0853 83.9969 71.16 83.7623 71.16C83.5276 71.16 83.3303 71.0853 83.1703 70.936ZM88.5526 73.912V78.664C88.5526 79.528 88.958 79.96 89.7686 79.96C90.1846 79.96 90.5526 79.8373 90.8726 79.592V80.792C90.5206 80.984 90.126 81.08 89.6886 81.08C88.0886 81.08 87.2886 80.264 87.2886 78.632V73.912H85.9926V72.888H87.2886V70.872H88.5526V72.888H90.7926V73.912H88.5526ZM97.8829 76.424V76.104C97.8829 75.432 97.7015 74.8987 97.3389 74.504C96.9762 74.0987 96.4749 73.896 95.8349 73.896C95.2269 73.896 94.7095 74.1147 94.2829 74.552C93.8562 74.9893 93.6055 75.6133 93.5309 76.424H97.8829ZM98.6349 79.4V80.584C98.0055 80.9147 97.2375 81.08 96.3309 81.08C95.1042 81.08 94.1122 80.7067 93.3549 79.96C92.6082 79.2027 92.2349 78.2053 92.2349 76.968C92.2349 75.6773 92.5709 74.6587 93.2429 73.912C93.9149 73.1653 94.7789 72.792 95.8349 72.792C96.8482 72.792 97.6535 73.1173 98.2509 73.768C98.8482 74.4187 99.1469 75.3413 99.1469 76.536C99.1469 76.8773 99.1202 77.192 99.0669 77.48H93.5309C93.6269 78.28 93.9309 78.8933 94.4429 79.32C94.9549 79.7467 95.6269 79.96 96.4589 79.96C97.3655 79.96 98.0909 79.7733 98.6349 79.4ZM108.069 79.976C108.73 79.976 109.29 79.7307 109.749 79.24C110.218 78.7493 110.453 77.9653 110.453 76.888C110.453 75.864 110.213 75.112 109.733 74.632C109.253 74.152 108.725 73.912 108.149 73.912C107.477 73.912 106.917 74.184 106.469 74.728C106.031 75.2613 105.812 76.0293 105.812 77.032C105.812 77.9067 106.026 78.616 106.453 79.16C106.879 79.704 107.418 79.976 108.069 79.976ZM110.453 69.688H111.717V81H110.453V79.8C109.877 80.6853 109.045 81.128 107.957 81.128C106.879 81.128 106.031 80.728 105.413 79.928C104.805 79.128 104.501 78.1573 104.501 77.016C104.501 75.7467 104.826 74.7227 105.477 73.944C106.127 73.1547 106.965 72.76 107.989 72.76C109.045 72.76 109.866 73.2133 110.453 74.12V69.688ZM119.227 76.424V76.104C119.227 75.432 119.045 74.8987 118.683 74.504C118.32 74.0987 117.819 73.896 117.179 73.896C116.571 73.896 116.053 74.1147 115.627 74.552C115.2 74.9893 114.949 75.6133 114.875 76.424H119.227ZM119.979 79.4V80.584C119.349 80.9147 118.581 81.08 117.675 81.08C116.448 81.08 115.456 80.7067 114.699 79.96C113.952 79.2027 113.579 78.2053 113.579 76.968C113.579 75.6773 113.915 74.6587 114.587 73.912C115.259 73.1653 116.123 72.792 117.179 72.792C118.192 72.792 118.997 73.1173 119.595 73.768C120.192 74.4187 120.491 75.3413 120.491 76.536C120.491 76.8773 120.464 77.192 120.411 77.48H114.875C114.971 78.28 115.275 78.8933 115.787 79.32C116.299 79.7467 116.971 79.96 117.803 79.96C118.709 79.96 119.435 79.7733 119.979 79.4ZM129.892 79.976C130.575 79.976 131.135 79.7093 131.572 79.176C132.01 78.632 132.228 77.864 132.228 76.872C132.228 75.9867 132.015 75.272 131.588 74.728C131.162 74.184 130.623 73.912 129.972 73.912C129.322 73.912 128.756 74.152 128.276 74.632C127.807 75.1013 127.572 75.8747 127.572 76.952C127.572 77.9867 127.812 78.7493 128.292 79.24C128.772 79.7307 129.306 79.976 129.892 79.976ZM127.572 72.888V74.12C128.138 73.2133 128.975 72.76 130.084 72.76C131.162 72.76 132.004 73.1547 132.612 73.944C133.231 74.7227 133.54 75.6987 133.54 76.872C133.54 78.12 133.215 79.144 132.564 79.944C131.924 80.7333 131.087 81.128 130.052 81.128C128.986 81.128 128.159 80.6747 127.572 79.768V84.152H126.324V72.888H127.572ZM135.466 81V69.688H136.73V81H135.466ZM143.505 77.256H142.097C141.414 77.256 140.902 77.3893 140.561 77.656C140.219 77.9227 140.049 78.2587 140.049 78.664C140.049 79.0693 140.182 79.4 140.449 79.656C140.715 79.9013 141.105 80.024 141.617 80.024C142.193 80.024 142.651 79.864 142.993 79.544C143.334 79.2133 143.505 78.7973 143.505 78.296V77.256ZM139.313 74.584V73.32C139.921 72.9467 140.721 72.76 141.713 72.76C143.75 72.76 144.769 73.7947 144.769 75.864V81H143.521V80.04C143.105 80.7333 142.347 81.08 141.249 81.08C140.491 81.08 139.878 80.856 139.409 80.408C138.95 79.96 138.721 79.3947 138.721 78.712C138.721 77.9333 139.014 77.3307 139.601 76.904C140.198 76.4667 141.009 76.248 142.033 76.248H143.505V75.832C143.505 75.192 143.361 74.712 143.073 74.392C142.785 74.0613 142.299 73.896 141.617 73.896C140.753 73.896 139.985 74.1253 139.313 74.584ZM148.26 72.888V74.296C148.74 73.2827 149.593 72.776 150.82 72.776C151.609 72.776 152.238 73.016 152.708 73.496C153.177 73.976 153.412 74.616 153.412 75.416V81H152.148V75.752C152.148 75.1547 151.993 74.7013 151.684 74.392C151.385 74.072 150.99 73.912 150.5 73.912C149.892 73.912 149.364 74.1467 148.916 74.616C148.478 75.0853 148.26 75.736 148.26 76.568V81H147.012V72.888H148.26ZM160.82 76.424V76.104C160.82 75.432 160.639 74.8987 160.276 74.504C159.914 74.0987 159.412 73.896 158.772 73.896C158.164 73.896 157.647 74.1147 157.22 74.552C156.794 74.9893 156.543 75.6133 156.468 76.424H160.82ZM161.572 79.4V80.584C160.943 80.9147 160.175 81.08 159.268 81.08C158.042 81.08 157.05 80.7067 156.292 79.96C155.546 79.2027 155.172 78.2053 155.172 76.968C155.172 75.6773 155.508 74.6587 156.18 73.912C156.852 73.1653 157.716 72.792 158.772 72.792C159.786 72.792 160.591 73.1173 161.188 73.768C161.786 74.4187 162.084 75.3413 162.084 76.536C162.084 76.8773 162.058 77.192 162.004 77.48H156.468C156.564 78.28 156.868 78.8933 157.38 79.32C157.892 79.7467 158.564 79.96 159.396 79.96C160.303 79.96 161.028 79.7733 161.572 79.4ZM162.108 83.88V82.76C162.513 82.9307 162.876 83.016 163.196 83.016C163.793 83.016 164.092 82.6267 164.092 81.848V72.888H165.34V81.88C165.34 82.584 165.153 83.1333 164.78 83.528C164.417 83.9227 163.91 84.12 163.26 84.12C162.908 84.12 162.524 84.04 162.108 83.88ZM164.108 70.936C163.958 70.776 163.884 70.5787 163.884 70.344C163.884 70.1093 163.958 69.912 164.108 69.752C164.268 69.592 164.465 69.512 164.7 69.512C164.934 69.512 165.132 69.592 165.292 69.752C165.452 69.912 165.532 70.1093 165.532 70.344C165.532 70.5787 165.452 70.776 165.292 70.936C165.132 71.0853 164.934 71.16 164.7 71.16C164.465 71.16 164.268 71.0853 164.108 70.936ZM172.02 77.256H170.612C169.93 77.256 169.418 77.3893 169.076 77.656C168.735 77.9227 168.564 78.2587 168.564 78.664C168.564 79.0693 168.698 79.4 168.964 79.656C169.231 79.9013 169.62 80.024 170.132 80.024C170.708 80.024 171.167 79.864 171.508 79.544C171.85 79.2133 172.02 78.7973 172.02 78.296V77.256ZM167.828 74.584V73.32C168.436 72.9467 169.236 72.76 170.228 72.76C172.266 72.76 173.284 73.7947 173.284 75.864V81H172.036V80.04C171.62 80.7333 170.863 81.08 169.764 81.08C169.007 81.08 168.394 80.856 167.924 80.408C167.466 79.96 167.236 79.3947 167.236 78.712C167.236 77.9333 167.53 77.3307 168.116 76.904C168.714 76.4667 169.524 76.248 170.548 76.248H172.02V75.832C172.02 75.192 171.876 74.712 171.588 74.392C171.3 74.0613 170.815 73.896 170.132 73.896C169.268 73.896 168.5 74.1253 167.828 74.584ZM176.775 72.888V74.2C177.223 73.2507 177.986 72.776 179.063 72.776C180.311 72.776 181.101 73.304 181.431 74.36C181.666 73.848 181.991 73.4587 182.407 73.192C182.834 72.9147 183.309 72.776 183.831 72.776C184.674 72.776 185.309 73.016 185.735 73.496C186.162 73.976 186.375 74.6213 186.375 75.432V81H185.111V75.752C185.111 74.5253 184.594 73.912 183.559 73.912C183.047 73.912 182.589 74.1467 182.183 74.616C181.778 75.0747 181.575 75.7253 181.575 76.568V81H180.311V75.752C180.311 74.5253 179.794 73.912 178.759 73.912C178.247 73.912 177.789 74.1467 177.383 74.616C176.978 75.0747 176.775 75.7253 176.775 76.568V81H175.527V72.888H176.775ZM193.789 76.424V76.104C193.789 75.432 193.608 74.8987 193.245 74.504C192.882 74.0987 192.381 73.896 191.741 73.896C191.133 73.896 190.616 74.1147 190.189 74.552C189.762 74.9893 189.512 75.6133 189.437 76.424H193.789ZM194.541 79.4V80.584C193.912 80.9147 193.144 81.08 192.237 81.08C191.01 81.08 190.018 80.7067 189.261 79.96C188.514 79.2027 188.141 78.2053 188.141 76.968C188.141 75.6773 188.477 74.6587 189.149 73.912C189.821 73.1653 190.685 72.792 191.741 72.792C192.754 72.792 193.56 73.1173 194.157 73.768C194.754 74.4187 195.053 75.3413 195.053 76.536C195.053 76.8773 195.026 77.192 194.973 77.48H189.437C189.533 78.28 189.837 78.8933 190.349 79.32C190.861 79.7467 191.533 79.96 192.365 79.96C193.272 79.96 193.997 79.7733 194.541 79.4ZM198.229 72.888V74.296C198.709 73.2827 199.562 72.776 200.789 72.776C201.578 72.776 202.207 73.016 202.677 73.496C203.146 73.976 203.381 74.616 203.381 75.416V81H202.117V75.752C202.117 75.1547 201.962 74.7013 201.653 74.392C201.354 74.072 200.959 73.912 200.469 73.912C199.861 73.912 199.333 74.1467 198.885 74.616C198.447 75.0853 198.229 75.736 198.229 76.568V81H196.981V72.888H198.229ZM207.365 73.912V78.664C207.365 79.528 207.77 79.96 208.581 79.96C208.997 79.96 209.365 79.8373 209.685 79.592V80.792C209.333 80.984 208.938 81.08 208.501 81.08C206.901 81.08 206.101 80.264 206.101 78.632V73.912H204.805V72.888H206.101V70.872H207.365V72.888H209.605V73.912H207.365ZM214.823 81.144C213.661 81.144 212.738 80.7547 212.055 79.976C211.383 79.1867 211.047 78.1947 211.047 77C211.047 75.7947 211.394 74.792 212.087 73.992C212.791 73.1813 213.703 72.776 214.823 72.776C216.05 72.776 216.994 73.1707 217.655 73.96C218.327 74.7493 218.663 75.752 218.663 76.968C218.663 78.1733 218.322 79.1707 217.639 79.96C216.957 80.7493 216.018 81.144 214.823 81.144ZM214.823 73.896C214.055 73.896 213.453 74.1947 213.015 74.792C212.578 75.3893 212.359 76.12 212.359 76.984C212.359 77.8267 212.583 78.5467 213.031 79.144C213.479 79.7307 214.077 80.024 214.823 80.024C215.634 80.024 216.258 79.736 216.695 79.16C217.133 78.5733 217.351 77.848 217.351 76.984C217.351 76.088 217.143 75.352 216.727 74.776C216.311 74.1893 215.677 73.896 214.823 73.896ZM230.37 72.888V81H229.106V73.912H226.386V81H225.122V73.912H223.73V72.888H225.122V72.136C225.122 71.3467 225.335 70.7227 225.762 70.264C226.189 69.8053 226.791 69.576 227.57 69.576C228.327 69.576 229.069 69.7573 229.794 70.12V71.288C229.047 70.904 228.322 70.712 227.618 70.712C226.797 70.712 226.386 71.192 226.386 72.152V72.888H230.37ZM233.885 72.888V74.296C234.365 73.2827 235.218 72.776 236.445 72.776C237.234 72.776 237.863 73.016 238.333 73.496C238.802 73.976 239.037 74.616 239.037 75.416V81H237.773V75.752C237.773 75.1547 237.618 74.7013 237.309 74.392C237.01 74.072 236.615 73.912 236.125 73.912C235.517 73.912 234.989 74.1467 234.541 74.616C234.103 75.0853 233.885 75.736 233.885 76.568V81H232.637V72.888H233.885ZM245.645 77.256H244.237C243.555 77.256 243.043 77.3893 242.701 77.656C242.36 77.9227 242.189 78.2587 242.189 78.664C242.189 79.0693 242.323 79.4 242.589 79.656C242.856 79.9013 243.245 80.024 243.757 80.024C244.333 80.024 244.792 79.864 245.133 79.544C245.475 79.2133 245.645 78.7973 245.645 78.296V77.256ZM241.453 74.584V73.32C242.061 72.9467 242.861 72.76 243.853 72.76C245.891 72.76 246.909 73.7947 246.909 75.864V81H245.661V80.04C245.245 80.7333 244.488 81.08 243.389 81.08C242.632 81.08 242.019 80.856 241.549 80.408C241.091 79.96 240.861 79.3947 240.861 78.712C240.861 77.9333 241.155 77.3307 241.741 76.904C242.339 76.4667 243.149 76.248 244.173 76.248H245.645V75.832C245.645 75.192 245.501 74.712 245.213 74.392C244.925 74.0613 244.44 73.896 243.757 73.896C242.893 73.896 242.125 74.1253 241.453 74.584ZM250.4 72.888V74.296C250.88 73.2827 251.734 72.776 252.96 72.776C253.75 72.776 254.379 73.016 254.848 73.496C255.318 73.976 255.552 74.616 255.552 75.416V81H254.288V75.752C254.288 75.1547 254.134 74.7013 253.824 74.392C253.526 74.072 253.131 73.912 252.64 73.912C252.032 73.912 251.504 74.1467 251.056 74.616C250.619 75.0853 250.4 75.736 250.4 76.568V81H249.152V72.888H250.4ZM258.625 76.984C258.636 77.8587 258.902 78.5893 259.425 79.176C259.948 79.752 260.689 80.04 261.649 80.04C262.268 80.04 262.844 79.864 263.377 79.512V80.712C262.865 81.0213 262.236 81.176 261.489 81.176C260.209 81.176 259.19 80.7707 258.433 79.96C257.686 79.1387 257.313 78.1413 257.313 76.968C257.313 75.816 257.686 74.824 258.433 73.992C259.19 73.16 260.22 72.744 261.521 72.744C262.214 72.744 262.833 72.8933 263.377 73.192V74.392C262.886 74.0613 262.31 73.896 261.649 73.896C260.732 73.896 259.996 74.1947 259.441 74.792C258.897 75.3787 258.625 76.1093 258.625 76.984ZM270.492 76.424V76.104C270.492 75.432 270.311 74.8987 269.948 74.504C269.586 74.0987 269.084 73.896 268.444 73.896C267.836 73.896 267.319 74.1147 266.892 74.552C266.466 74.9893 266.215 75.6133 266.14 76.424H270.492ZM271.244 79.4V80.584C270.615 80.9147 269.847 81.08 268.94 81.08C267.714 81.08 266.722 80.7067 265.964 79.96C265.218 79.2027 264.844 78.2053 264.844 76.968C264.844 75.6773 265.18 74.6587 265.852 73.912C266.524 73.1653 267.388 72.792 268.444 72.792C269.458 72.792 270.263 73.1173 270.86 73.768C271.458 74.4187 271.756 75.3413 271.756 76.536C271.756 76.8773 271.73 77.192 271.676 77.48H266.14C266.236 78.28 266.54 78.8933 267.052 79.32C267.564 79.7467 268.236 79.96 269.068 79.96C269.975 79.96 270.7 79.7733 271.244 79.4ZM273.748 81V72.888H275.012V81H273.748ZM273.78 70.936C273.63 70.776 273.556 70.5787 273.556 70.344C273.556 70.1093 273.63 69.912 273.78 69.752C273.94 69.592 274.137 69.512 274.372 69.512C274.606 69.512 274.804 69.592 274.964 69.752C275.124 69.912 275.204 70.1093 275.204 70.344C275.204 70.5787 275.124 70.776 274.964 70.936C274.804 71.0853 274.606 71.16 274.372 71.16C274.137 71.16 273.94 71.0853 273.78 70.936ZM278.666 72.888V74.312C279.093 73.3093 279.829 72.808 280.874 72.808C281.066 72.808 281.215 72.8187 281.322 72.84V74.088C281.098 74.0133 280.869 73.976 280.634 73.976C280.069 73.976 279.599 74.2373 279.226 74.76C278.853 75.2827 278.666 75.8853 278.666 76.568V81H277.402L277.418 72.888H278.666ZM285.933 81.144C284.77 81.144 283.847 80.7547 283.165 79.976C282.493 79.1867 282.157 78.1947 282.157 77C282.157 75.7947 282.503 74.792 283.197 73.992C283.901 73.1813 284.813 72.776 285.933 72.776C287.159 72.776 288.103 73.1707 288.765 73.96C289.437 74.7493 289.773 75.752 289.773 76.968C289.773 78.1733 289.431 79.1707 288.749 79.96C288.066 80.7493 287.127 81.144 285.933 81.144ZM285.933 73.896C285.165 73.896 284.562 74.1947 284.125 74.792C283.687 75.3893 283.469 76.12 283.469 76.984C283.469 77.8267 283.693 78.5467 284.141 79.144C284.589 79.7307 285.186 80.024 285.933 80.024C286.743 80.024 287.367 79.736 287.805 79.16C288.242 78.5733 288.461 77.848 288.461 76.984C288.461 76.088 288.253 75.352 287.837 74.776C287.421 74.1893 286.786 73.896 285.933 73.896ZM291.109 80.856C290.928 80.6747 290.837 80.4507 290.837 80.184C290.837 79.9173 290.928 79.6933 291.109 79.512C291.29 79.3307 291.514 79.24 291.781 79.24C292.048 79.24 292.272 79.3307 292.453 79.512C292.634 79.6933 292.725 79.9173 292.725 80.184C292.725 80.4507 292.634 80.6747 292.453 80.856C292.272 81.0373 292.048 81.128 291.781 81.128C291.514 81.128 291.29 81.0373 291.109 80.856Z" fill="#979797"/>
<path d="M415.832 35.1863C415.832 35.1863 412.246 35.1319 411.518 38.8855C410.826 42.4578 411.834 66.693 411.834 66.693H427.262V40.1254C427.262 35.1387 422.958 33.4637 419.596 33.6586C417.648 33.7697 415.832 35.1863 415.832 35.1863Z" fill="#725858"/>
<path d="M427.262 66.9204H411.834C411.781 66.9204 411.73 66.8966 411.693 66.854C411.655 66.8115 411.634 66.7539 411.634 66.6938C411.592 65.7032 410.634 42.3974 411.322 38.8387C412.02 35.2347 415.266 34.9854 415.768 34.9627C416.086 34.736 417.768 33.5347 419.586 33.4304C422.082 33.2854 424.42 34.1104 425.846 35.654C426.918 36.81 427.462 38.3128 427.462 40.1239V66.6938C427.462 66.7539 427.441 66.8115 427.404 66.854C427.366 66.8966 427.315 66.9204 427.262 66.9204ZM412.024 66.4671H427.062V40.1262C427.062 38.4443 426.56 37.0526 425.57 35.985C424.222 34.532 422 33.7455 419.6 33.8838C417.734 33.9926 415.956 35.3639 415.938 35.3775C415.904 35.4028 415.863 35.4162 415.822 35.416C415.69 35.416 412.39 35.416 411.708 38.9384C411.07 42.2591 411.926 64.0418 412.024 66.4671Z" fill="#093F68"/>
<path d="M433.54 66.0249C432.088 67.7634 429.978 70.1525 428.644 71.0614C426.468 72.5393 425.844 70.522 425.674 68.7064V73.4256H411V59.5989C411 58.7721 411.281 57.9771 411.785 57.3787C412.288 56.7803 412.975 56.4244 413.704 56.3848H413.84H426.156C426.458 56.3845 426.756 56.4516 427.035 56.5822C427.314 56.7129 427.567 56.9046 427.78 57.1462C427.993 57.3879 428.162 57.6749 428.278 57.9908C428.393 58.3066 428.452 58.6451 428.452 58.9869V65.66L432.064 63.3208C432.524 64.2441 433.016 65.1454 433.54 66.0249Z" fill="#68E1FD"/>
<path d="M425.674 73.6523H411C410.947 73.6523 410.896 73.6285 410.859 73.5859C410.821 73.5434 410.8 73.4858 410.8 73.4257V59.599C410.8 58.7138 411.1 57.8625 411.639 57.2218C412.178 56.581 412.914 56.2002 413.694 56.1582H413.84H426.156C426.818 56.1582 427.453 56.4562 427.921 56.9867C428.389 57.5172 428.652 58.2368 428.652 58.987V65.2657L431.966 63.1214C431.989 63.1065 432.014 63.0968 432.04 63.0929C432.066 63.089 432.093 63.091 432.118 63.0987C432.143 63.107 432.167 63.1209 432.188 63.1396C432.208 63.1582 432.225 63.1813 432.238 63.2075C432.678 64.0893 433.17 64.9937 433.706 65.8981C433.731 65.9406 433.743 65.9915 433.739 66.0426C433.736 66.0936 433.717 66.1417 433.686 66.1791C432.174 67.9925 430.086 70.3407 428.748 71.2542C427.922 71.8141 427.228 71.9342 426.682 71.635C426.318 71.4029 426.035 71.0354 425.882 70.5946V73.4257C425.882 73.4562 425.877 73.4864 425.866 73.5146C425.856 73.5427 425.84 73.5681 425.821 73.5892C425.801 73.6104 425.778 73.6269 425.753 73.6378C425.728 73.6486 425.701 73.6536 425.674 73.6523ZM411.202 73.199H425.474V68.7065C425.471 68.6464 425.489 68.5874 425.525 68.5425C425.56 68.4977 425.61 68.4706 425.663 68.4673C425.716 68.464 425.768 68.4847 425.808 68.5249C425.847 68.5651 425.871 68.6214 425.874 68.6815C426.002 70.0551 426.342 70.9369 426.86 71.2293C427.276 71.4559 427.842 71.3403 428.542 70.8666C429.812 70.0007 431.8 67.7703 433.286 66.0001C432.818 65.2045 432.384 64.4134 431.99 63.6269L428.552 65.8527C428.522 65.8726 428.487 65.883 428.452 65.8831C428.417 65.8832 428.383 65.8728 428.353 65.8531C428.322 65.8333 428.297 65.8049 428.279 65.7707C428.262 65.7364 428.252 65.6975 428.252 65.6578V58.987C428.252 58.3578 428.031 57.7545 427.638 57.3096C427.246 56.8646 426.713 56.6144 426.158 56.6138H413.722C413.043 56.6482 412.402 56.9783 411.932 57.5352C411.462 58.0922 411.2 58.833 411.2 59.6035L411.202 73.199Z" fill="#093F68"/>
<path d="M419.69 68.1527L416.548 56.3887H422.832L419.69 68.1527Z" fill="#093F68"/>
<path d="M419.69 68.3797C419.646 68.3818 419.602 68.3672 419.566 68.338C419.529 68.3089 419.503 68.2669 419.49 68.2187L416.348 56.4547C416.339 56.4206 416.337 56.3846 416.343 56.3495C416.348 56.3145 416.361 56.2814 416.38 56.253C416.399 56.2248 416.423 56.202 416.451 56.1863C416.478 56.1705 416.509 56.1623 416.54 56.1623H422.824C422.856 56.1608 422.888 56.1679 422.917 56.1831C422.946 56.1984 422.971 56.2213 422.991 56.2499C423.01 56.2785 423.024 56.3121 423.029 56.3477C423.035 56.3834 423.033 56.4201 423.024 56.4547L419.882 68.2187C419.87 68.2654 419.844 68.3062 419.81 68.3352C419.775 68.3642 419.733 68.3798 419.69 68.3797ZM416.818 56.6157L419.69 67.3733L422.562 56.6179L416.818 56.6157Z" fill="#093F68"/>
<path d="M413.712 56.6154C413.659 56.6154 413.608 56.5916 413.571 56.5491C413.533 56.5065 413.512 56.4489 413.512 56.3888C413.512 56.3287 413.533 56.271 413.571 56.2285C413.608 56.186 413.659 56.1621 413.712 56.1621H413.848C413.901 56.1621 413.952 56.186 413.989 56.2285C414.027 56.271 414.048 56.3287 414.048 56.3888C414.048 56.4489 414.027 56.5065 413.989 56.5491C413.952 56.5916 413.901 56.6154 413.848 56.6154H413.718H413.712Z" fill="#093F68"/>
<path d="M414.234 59.9229C413.859 60.3422 413.564 60.8442 413.368 61.3978C413.171 61.9514 413.076 62.5449 413.09 63.1415C413.103 64.4387 413.506 65.6919 414.234 66.6934" fill="#68E1FD"/>
<path d="M414.234 66.9202C414.206 66.9201 414.178 66.9134 414.153 66.9006C414.128 66.8877 414.105 66.8689 414.086 66.8454C413.322 65.8064 412.899 64.5006 412.886 63.1485C412.886 60.9498 414.052 59.8029 414.1 59.7485C414.141 59.7094 414.193 59.6902 414.246 59.6951C414.299 59.7 414.349 59.7286 414.383 59.7745C414.417 59.8205 414.434 59.8802 414.43 59.9403C414.426 60.0005 414.401 60.0562 414.36 60.0953C414.009 60.4951 413.734 60.971 413.549 61.4944C413.365 62.0179 413.275 62.5781 413.286 63.1417C413.302 64.382 413.687 65.58 414.378 66.5417C414.405 66.5741 414.422 66.6146 414.429 66.6583C414.435 66.7019 414.43 66.7467 414.414 66.7872C414.399 66.8277 414.373 66.862 414.34 66.8861C414.307 66.9101 414.269 66.9228 414.23 66.9225L414.234 66.9202Z" fill="#093F68"/>
<path d="M425.022 59.9229C425.397 60.3419 425.693 60.8438 425.89 61.3974C426.087 61.9511 426.182 62.5447 426.168 63.1415C426.155 64.439 425.75 65.6924 425.022 66.6934" fill="#68E1FD"/>
<path d="M425.022 66.9195C424.972 66.9194 424.925 66.8984 424.888 66.8606C424.868 66.8406 424.852 66.8164 424.841 66.7893C424.83 66.7623 424.823 66.7329 424.822 66.703C424.82 66.6731 424.824 66.6431 424.833 66.6149C424.842 66.5867 424.856 66.5609 424.874 66.5387C425.567 65.5782 425.953 64.3797 425.968 63.1387C425.979 62.575 425.89 62.0144 425.705 61.4909C425.52 60.9673 425.243 60.4916 424.892 60.0923C424.851 60.0533 424.826 59.9975 424.822 59.9374C424.818 59.8772 424.835 59.8176 424.869 59.7716C424.904 59.7256 424.953 59.697 425.006 59.6922C425.059 59.6873 425.111 59.7065 425.152 59.7455C425.202 59.7931 426.368 60.9401 426.368 63.1455C426.357 64.498 425.933 65.8042 425.168 66.8425C425.15 66.8661 425.127 66.8851 425.102 66.8984C425.077 66.9117 425.05 66.9189 425.022 66.9195Z" fill="#093F68"/>
<path d="M419.596 56.3848L418.244 59.5105L416.242 56.3848H419.596Z" fill="white"/>
<path d="M418.244 59.7373C418.212 59.7374 418.181 59.729 418.153 59.7128C418.125 59.6967 418.101 59.6732 418.082 59.6443L416.082 56.5163C416.061 56.4825 416.048 56.4427 416.045 56.4013C416.043 56.3599 416.05 56.3184 416.067 56.2815C416.084 56.2445 416.109 56.2135 416.14 56.1917C416.171 56.17 416.207 56.1584 416.244 56.1582H419.6C419.634 56.1581 419.667 56.1679 419.697 56.1865C419.727 56.2051 419.752 56.2321 419.77 56.2647C419.788 56.2992 419.797 56.3383 419.797 56.3781C419.797 56.4179 419.788 56.4569 419.77 56.4914L418.418 59.6171C418.403 59.6523 418.38 59.6825 418.352 59.7048C418.323 59.727 418.29 59.7405 418.256 59.7441L418.244 59.7373ZM416.634 56.6115L418.21 59.0731L419.274 56.6115H416.634Z" fill="#093F68"/>
<path d="M423.078 56.3848L421.068 59.4992L421.038 59.5694L419.724 56.3848H423.078Z" fill="white"/>
<path d="M421.038 59.7962C421 59.7959 420.963 59.7833 420.931 59.7601C420.899 59.7368 420.874 59.7037 420.858 59.6647L419.544 56.4801C419.53 56.4455 419.524 56.4074 419.526 56.3694C419.528 56.3314 419.539 56.2947 419.557 56.2626C419.575 56.2305 419.6 56.2041 419.63 56.1859C419.659 56.1676 419.692 56.1581 419.726 56.1582H423.08C423.117 56.1581 423.153 56.1696 423.185 56.1915C423.216 56.2133 423.242 56.2446 423.259 56.282C423.275 56.3193 423.283 56.3612 423.28 56.403C423.277 56.4447 423.264 56.4848 423.242 56.5186L421.218 59.667C421.202 59.7056 421.176 59.7382 421.144 59.761C421.112 59.7839 421.076 59.7961 421.038 59.7962ZM420.038 56.6229L421.07 59.1162L422.684 56.6229H420.038Z" fill="#093F68"/>
<path d="M418.504 54.9062H420.874V56.4521C420.874 56.7527 420.769 57.041 420.581 57.2535C420.393 57.466 420.139 57.5855 419.874 57.5855H419.516C419.251 57.5855 418.996 57.466 418.809 57.2535C418.621 57.041 418.516 56.7527 418.516 56.4521V54.9062H418.504Z" fill="#FFC9B0"/>
<path d="M419.868 57.8258H419.51C419.192 57.8258 418.887 57.6825 418.662 57.4275C418.436 57.1724 418.31 56.8265 418.31 56.4658V54.9064C418.31 54.8462 418.331 54.7886 418.369 54.7461C418.406 54.7036 418.457 54.6797 418.51 54.6797H420.88C420.933 54.6797 420.984 54.7036 421.021 54.7461C421.059 54.7886 421.08 54.8462 421.08 54.9064V56.4522C421.082 56.6331 421.051 56.8125 420.991 56.98C420.931 57.1475 420.842 57.2996 420.729 57.4276C420.616 57.5555 420.482 57.6566 420.334 57.725C420.186 57.7933 420.028 57.8276 419.868 57.8258ZM418.704 55.133V56.4522C418.704 56.6927 418.788 56.9233 418.938 57.0933C419.088 57.2634 419.292 57.3589 419.504 57.3589H419.862C420.074 57.3589 420.278 57.2634 420.428 57.0933C420.578 56.9233 420.662 56.6927 420.662 56.4522V55.133H418.704Z" fill="#093F68"/>
<path d="M412.916 50.1826C414.187 50.1826 415.218 49.1759 415.218 47.9341C415.218 46.6922 414.187 45.6855 412.916 45.6855C411.645 45.6855 410.614 46.6922 410.614 47.9341C410.614 49.1759 411.645 50.1826 412.916 50.1826Z" fill="#FFC9B0"/>
<path d="M412.916 50.4117C411.536 50.4117 410.412 49.301 410.412 47.9342C410.412 46.5674 411.536 45.459 412.916 45.459C414.296 45.459 415.418 46.5697 415.418 47.9342C415.418 49.2987 414.296 50.4117 412.916 50.4117ZM412.916 45.9123C411.756 45.9123 410.812 46.819 410.812 47.9342C410.812 49.0494 411.756 49.9583 412.916 49.9583C414.076 49.9583 415.018 49.0517 415.018 47.9342C415.018 46.8167 414.076 45.9123 412.916 45.9123Z" fill="#093F68"/>
<path d="M426.342 50.1826C427.613 50.1826 428.644 49.1759 428.644 47.9341C428.644 46.6922 427.613 45.6855 426.342 45.6855C425.071 45.6855 424.04 46.6922 424.04 47.9341C424.04 49.1759 425.071 50.1826 426.342 50.1826Z" fill="#FFC9B0"/>
<path d="M426.342 50.4117C424.962 50.4117 423.838 49.301 423.838 47.9342C423.838 46.5674 424.962 45.459 426.342 45.459C427.722 45.459 428.844 46.5697 428.844 47.9342C428.844 49.2987 427.722 50.4117 426.342 50.4117ZM426.342 45.9123C425.182 45.9123 424.238 46.819 424.238 47.9342C424.238 49.0494 425.182 49.9583 426.342 49.9583C427.502 49.9583 428.444 49.0517 428.444 47.9342C428.444 46.8167 427.5 45.9123 426.342 45.9123Z" fill="#093F68"/>
<path d="M422.464 39.2322C421.264 38.5907 418.246 37.9561 418.246 37.9561C417.61 39.9349 415.846 41.0977 414.208 42.095C413.858 42.3081 413.056 42.5846 412.744 42.3058V47.3945C412.744 49.4823 413.476 51.4846 414.778 52.9609C416.081 54.4372 417.848 55.2666 419.69 55.2666C421.532 55.2666 423.299 54.4372 424.601 52.9609C425.904 51.4846 426.636 49.4823 426.636 47.3945V41.2745C425.732 41.2699 423.254 39.6515 422.464 39.2322Z" fill="#FFC9B0"/>
<path d="M419.69 55.4916C417.796 55.4892 415.98 54.6355 414.64 53.1177C413.3 51.5999 412.547 49.5419 412.544 47.3951V42.3064C412.544 42.2637 412.554 42.2219 412.574 42.1856C412.594 42.1493 412.622 42.1202 412.656 42.1015C412.69 42.0828 412.728 42.0753 412.765 42.0798C412.803 42.0844 412.838 42.1009 412.868 42.1274C413.054 42.2951 413.718 42.1274 414.114 41.9007C415.852 40.8399 417.464 39.7338 418.058 37.8842C418.074 37.8339 418.106 37.7918 418.147 37.7652C418.188 37.7387 418.236 37.7294 418.282 37.7391C418.406 37.7663 421.332 38.3851 422.55 39.0311C422.734 39.1286 423.008 39.2918 423.326 39.4844C424.326 40.0715 425.988 41.053 426.636 41.0552C426.689 41.0552 426.74 41.0791 426.777 41.1216C426.815 41.1641 426.836 41.2218 426.836 41.2819V47.4019C426.832 49.5475 426.077 51.6038 424.738 53.1201C423.398 54.6364 421.583 55.4892 419.69 55.4916ZM412.944 42.6328V47.3928C412.944 49.4205 413.655 51.3652 414.92 52.799C416.185 54.2328 417.901 55.0383 419.69 55.0383C421.479 55.0383 423.195 54.2328 424.46 52.799C425.725 51.3652 426.436 49.4205 426.436 47.3928V41.4814C425.704 41.3612 424.46 40.654 423.142 39.8766C422.828 39.6907 422.556 39.532 422.38 39.4368C421.368 38.8996 419.012 38.3579 418.38 38.2151C417.696 40.1055 416.066 41.2252 414.31 42.2951C414.026 42.4651 413.4 42.7144 412.944 42.6328Z" fill="#093F68"/>
<path d="M416.474 46.9783C416.83 46.9783 417.118 46.6515 417.118 46.2484C417.118 45.8453 416.83 45.5186 416.474 45.5186C416.118 45.5186 415.83 45.8453 415.83 46.2484C415.83 46.6515 416.118 46.9783 416.474 46.9783Z" fill="#093F68"/>
<path d="M423.108 46.9783C423.464 46.9783 423.752 46.6515 423.752 46.2484C423.752 45.8453 423.464 45.5186 423.108 45.5186C422.752 45.5186 422.464 45.8453 422.464 46.2484C422.464 46.6515 422.752 46.9783 423.108 46.9783Z" fill="#093F68"/>
<path d="M419.656 48.9248C419.446 48.9244 419.237 48.9047 419.03 48.8659C419.004 48.8607 418.979 48.8498 418.957 48.8337C418.935 48.8177 418.916 48.7969 418.901 48.7725C418.886 48.748 418.875 48.7205 418.87 48.6914C418.864 48.6623 418.863 48.6323 418.868 48.6029C418.873 48.5736 418.882 48.5456 418.896 48.5205C418.911 48.4954 418.929 48.4737 418.951 48.4567C418.972 48.4396 418.996 48.4275 419.022 48.4211C419.048 48.4147 419.074 48.4141 419.1 48.4193C419.415 48.4818 419.738 48.4856 420.054 48.4307C420.094 48.2221 419.854 47.4401 419.512 46.708C419.5 46.6815 419.493 46.6526 419.49 46.6229C419.488 46.5931 419.491 46.5632 419.499 46.5348C419.507 46.5063 419.52 46.48 419.537 46.4572C419.554 46.4344 419.575 46.4157 419.598 46.402C419.645 46.3748 419.699 46.3695 419.749 46.3873C419.799 46.4051 419.841 46.4446 419.866 46.4972C420.092 46.9868 420.596 48.1745 420.412 48.6392C420.392 48.6948 420.36 48.7443 420.32 48.7836C420.279 48.823 420.232 48.8511 420.18 48.8659C420.008 48.9083 419.832 48.9281 419.656 48.9248Z" fill="#093F68"/>
<path d="M417.788 44.1126H414.72C414.636 44.1126 414.555 44.0746 414.495 44.007C414.436 43.9394 414.402 43.8477 414.402 43.7522C414.402 43.6566 414.436 43.5649 414.495 43.4973C414.555 43.4297 414.636 43.3918 414.72 43.3918H417.788C417.832 43.3878 417.876 43.3942 417.917 43.4104C417.959 43.4267 417.997 43.4525 418.029 43.4863C418.061 43.52 418.087 43.561 418.105 43.6065C418.122 43.6521 418.131 43.7013 418.131 43.751C418.131 43.8008 418.122 43.85 418.105 43.8955C418.087 43.9411 418.061 43.982 418.029 44.0158C417.997 44.0495 417.959 44.0753 417.917 44.0916C417.876 44.1079 417.832 44.1142 417.788 44.1103V44.1126Z" fill="#093F68"/>
<path d="M422.16 44.1994C422.076 44.2018 421.994 44.1661 421.933 44.1002C421.872 44.0343 421.836 43.9436 421.834 43.848C421.832 43.7524 421.863 43.6598 421.922 43.5905C421.98 43.5212 422.06 43.481 422.144 43.4786L425.2 43.3018C425.281 43.3028 425.359 43.3387 425.417 43.4023C425.475 43.4659 425.51 43.5523 425.514 43.644C425.518 43.7356 425.491 43.8256 425.439 43.8955C425.387 43.9654 425.313 44.0101 425.232 44.0203L422.168 44.1994H422.16Z" fill="#093F68"/>
<path d="M417.788 50.1855H421.25V51.3574C421.25 51.8776 421.068 52.3766 420.744 52.7446C420.419 53.1127 419.979 53.3197 419.52 53.3203C419.061 53.3203 418.62 53.1135 418.295 52.7454C417.971 52.3773 417.788 51.878 417.788 51.3574V50.1855Z" fill="#093F68"/>
<path d="M419.52 53.5468C419.008 53.5462 418.517 53.3153 418.154 52.9048C417.792 52.4943 417.588 51.9377 417.588 51.3572V50.1876C417.588 50.1275 417.609 50.0698 417.646 50.0273C417.684 49.9848 417.735 49.9609 417.788 49.9609H421.25C421.303 49.9609 421.354 49.9848 421.391 50.0273C421.429 50.0698 421.45 50.1275 421.45 50.1876V51.3572C421.45 51.9375 421.247 52.4941 420.885 52.9047C420.523 53.3152 420.032 53.5462 419.52 53.5468ZM417.988 50.4143V51.3572C417.98 51.5903 418.015 51.8228 418.088 52.0407C418.162 52.2585 418.273 52.4574 418.416 52.6253C418.559 52.7932 418.73 52.9267 418.92 53.018C419.109 53.1092 419.313 53.1562 419.519 53.1562C419.725 53.1562 419.928 53.1092 420.118 53.018C420.307 52.9267 420.479 52.7932 420.622 52.6253C420.764 52.4574 420.876 52.2585 420.95 52.0407C421.023 51.8228 421.057 51.5903 421.05 51.3572V50.4143H417.988Z" fill="#093F68"/>
<path d="M413.662 73.6522C413.609 73.6522 413.558 73.6283 413.52 73.5858C413.483 73.5433 413.462 73.4856 413.462 73.4255V65.7189C413.462 65.6587 413.483 65.6011 413.52 65.5586C413.558 65.5161 413.609 65.4922 413.662 65.4922C413.715 65.4922 413.766 65.5161 413.803 65.5586C413.841 65.6011 413.862 65.6587 413.862 65.7189V73.4255C413.862 73.4856 413.841 73.5433 413.803 73.5858C413.766 73.6283 413.715 73.6522 413.662 73.6522Z" fill="#093F68"/>
<path d="M416.902 37.3609C416.902 37.3609 423.584 41.0215 424.702 45.5209C424.702 45.5209 426.902 40.4095 425.224 36.7217" fill="#725858"/>
<path d="M424.702 45.7475H424.684C424.643 45.7437 424.605 45.7261 424.573 45.697C424.542 45.6678 424.519 45.6285 424.508 45.5843C423.428 41.2368 416.88 37.6033 416.814 37.5671C416.79 37.554 416.769 37.5358 416.752 37.5134C416.734 37.4911 416.721 37.4651 416.712 37.4369C416.704 37.4086 416.7 37.3788 416.702 37.349C416.703 37.3192 416.71 37.2901 416.722 37.2633C416.745 37.2097 416.786 37.1687 416.836 37.1492C416.886 37.1297 416.94 37.1332 416.988 37.1591C418.212 37.8584 419.386 38.664 420.5 39.5685C422.7 41.3637 424.116 43.1521 424.724 44.8907C425.216 43.5057 426.348 39.6773 425.046 36.8259C425.032 36.7993 425.022 36.7697 425.018 36.7389C425.014 36.7081 425.016 36.6767 425.024 36.6467C425.031 36.6167 425.044 36.5887 425.061 36.5645C425.078 36.5403 425.1 36.5204 425.124 36.506C425.148 36.4917 425.175 36.4831 425.203 36.481C425.23 36.4789 425.257 36.4832 425.283 36.4936C425.309 36.504 425.333 36.5204 425.353 36.5417C425.373 36.563 425.389 36.5887 425.4 36.6173C426.108 38.1723 426.242 40.2259 425.786 42.5537C425.583 43.608 425.279 44.634 424.88 45.6137C424.864 45.6528 424.839 45.6861 424.808 45.7098C424.776 45.7335 424.74 45.7465 424.702 45.7475Z" fill="#093F68"/>
<path d="M433.856 69.6992H436.428V73.4234H433.856V69.6992Z" fill="white"/>
<path d="M436.43 73.6524H433.856C433.803 73.6524 433.752 73.6285 433.715 73.586C433.677 73.5435 433.656 73.4858 433.656 73.4257V69.6993C433.656 69.6392 433.677 69.5816 433.715 69.539C433.752 69.4965 433.803 69.4727 433.856 69.4727H436.43C436.483 69.4727 436.534 69.4965 436.571 69.539C436.609 69.5816 436.63 69.6392 436.63 69.6993V73.4257C436.63 73.4858 436.609 73.5435 436.571 73.586C436.534 73.6285 436.483 73.6524 436.43 73.6524ZM434.056 73.1991H436.23V69.926H434.056V73.1991Z" fill="#093F68"/>
<path d="M438.028 66.8818H440.6V73.4234H438.028V66.8818Z" fill="white"/>
<path d="M440.6 73.6525H438.028C437.975 73.6525 437.924 73.6286 437.887 73.5861C437.849 73.5436 437.828 73.4859 437.828 73.4258V66.8819C437.828 66.8218 437.849 66.7642 437.887 66.7217C437.924 66.6792 437.975 66.6553 438.028 66.6553H440.6C440.653 66.6553 440.704 66.6792 440.742 66.7217C440.779 66.7642 440.8 66.8218 440.8 66.8819V73.4258C440.8 73.4859 440.779 73.5436 440.742 73.5861C440.704 73.6286 440.653 73.6525 440.6 73.6525ZM438.226 73.1991H440.4V67.1086H438.228L438.226 73.1991Z" fill="#093F68"/>
<path d="M442.2 63.3047H444.772V73.4254H442.2V63.3047Z" fill="white"/>
<path d="M444.774 73.6521H442.2C442.147 73.6521 442.096 73.6282 442.059 73.5857C442.021 73.5432 442 73.4856 442 73.4255V63.3048C442 63.2447 442.021 63.187 442.059 63.1445C442.096 63.102 442.147 63.0781 442.2 63.0781H444.774C444.827 63.0781 444.878 63.102 444.915 63.1445C444.953 63.187 444.974 63.2447 444.974 63.3048V73.4255C444.974 73.4856 444.953 73.5432 444.915 73.5857C444.878 73.6282 444.827 73.6521 444.774 73.6521ZM442.4 73.1988H444.574V63.5315H442.4V73.1988Z" fill="#093F68"/>
<path d="M432.064 63.3184L433.12 62.5046C433.12 62.5046 433.796 60.1654 434.284 59.558C434.772 58.9505 435.26 58.9188 435.146 59.558C435.032 60.1972 434.734 61.2013 434.734 61.2013C434.734 61.2013 437.212 58.504 437.586 59.0956C437.96 59.6872 437.924 60.408 437.4 61.6841C436.876 62.9602 433.54 66.0134 433.54 66.0134L432.064 63.3184Z" fill="#FFC9B0"/>
<path d="M433.54 66.2511H433.506C433.478 66.2456 433.452 66.2335 433.428 66.2155C433.405 66.1975 433.385 66.1741 433.37 66.1468L431.894 63.4404C431.867 63.3908 431.858 63.3313 431.869 63.2743C431.88 63.2173 431.91 63.1672 431.952 63.1344L432.952 62.3638C433.076 61.9512 433.672 59.9883 434.138 59.4171C434.504 58.9638 434.892 58.7847 435.138 58.932C435.246 58.9955 435.416 59.1587 435.338 59.612C435.294 59.8682 435.218 60.181 435.138 60.4666C435.836 59.7616 436.948 58.7416 437.454 58.796C437.51 58.7998 437.564 58.8174 437.613 58.8476C437.662 58.8778 437.705 58.9197 437.738 58.9706C438.164 59.6506 438.116 60.4598 437.568 61.7903C437.02 63.1208 433.8 66.0743 433.666 66.199C433.631 66.2323 433.586 66.2507 433.54 66.2511ZM432.34 63.3838L433.6 65.6844C434.29 65.0384 436.8 62.6516 437.228 61.6044C437.786 60.2444 437.714 59.6823 437.428 59.2426C437.198 59.161 436 60.1492 434.876 61.38C434.844 61.4132 434.803 61.4337 434.76 61.4384C434.717 61.4431 434.674 61.4319 434.637 61.4063C434.6 61.3808 434.571 61.3423 434.555 61.2967C434.539 61.251 434.537 61.2008 434.548 61.1534C434.705 60.6226 434.839 60.0832 434.948 59.5372C434.976 59.3876 434.948 59.34 434.948 59.34C434.948 59.34 434.704 59.3967 434.426 59.7367C434.05 60.19 433.49 61.9512 433.306 62.5882C433.292 62.6357 433.264 62.677 433.228 62.706L432.34 63.3838Z" fill="#093F68"/>
<path d="M434.734 61.2129C434.734 61.2129 435.842 63.0262 434.734 64.0372V61.2129Z" fill="#FFC9B0"/>
<path d="M434.734 64.2638C434.704 64.2639 434.675 64.2565 434.648 64.242C434.621 64.2274 434.597 64.2063 434.578 64.18C434.561 64.1568 434.549 64.1301 434.542 64.1015C434.534 64.0728 434.532 64.0428 434.534 64.0131C434.537 63.9834 434.545 63.9546 434.558 63.9284C434.57 63.9022 434.587 63.8791 434.608 63.8604C435.556 62.9854 434.608 61.4078 434.57 61.3421C434.553 61.3178 434.541 61.2899 434.534 61.2601C434.528 61.2304 434.526 61.1993 434.53 61.1689C434.534 61.1385 434.544 61.1094 434.558 61.0833C434.573 61.0572 434.592 61.0347 434.614 61.0171C434.636 60.9996 434.661 60.9873 434.688 60.9812C434.715 60.975 434.742 60.975 434.769 60.9813C434.795 60.9875 434.82 60.9998 434.843 61.0174C434.865 61.035 434.884 61.0576 434.898 61.0837C435.318 61.7637 435.85 63.3005 434.86 64.2117C434.825 64.245 434.78 64.2634 434.734 64.2638Z" fill="#093F68"/>
<path d="M438.298 38.2988C436.184 38.2988 434.156 39.2507 432.661 40.9451C431.166 42.6395 430.326 44.9375 430.326 47.3338C430.326 49.73 431.166 52.028 432.661 53.7224C434.156 55.4168 436.184 56.3687 438.298 56.3687C440.412 56.3687 442.44 55.4168 443.935 53.7224C445.43 52.028 446.27 49.73 446.27 47.3338C446.27 44.9375 445.43 42.6395 443.935 40.9451C442.44 39.2507 440.412 38.2988 438.298 38.2988ZM438.298 52.5312C437.082 52.5312 435.915 51.9836 435.055 51.0089C434.195 50.0342 433.712 48.7122 433.712 47.3338C433.712 45.9553 434.195 44.6333 435.055 43.6586C435.915 42.6839 437.082 42.1363 438.298 42.1363C439.514 42.1363 440.681 42.6839 441.541 43.6586C442.401 44.6333 442.884 45.9553 442.884 47.3338C442.884 48.7122 442.401 50.0342 441.541 51.0089C440.681 51.9836 439.514 52.5312 438.298 52.5312Z" fill="#70CC40" stroke="#093F68" stroke-width="2" stroke-linecap="round" stroke-linejoin="round"/>
<path d="M433.71 47.336C433.71 48.104 433.86 48.8624 434.15 49.5566C434.44 50.2507 434.862 50.8634 435.386 51.3503L433.122 54.2063C431.882 53.0069 430.996 51.4055 430.584 49.6179C430.172 47.8303 430.253 45.9424 430.817 44.2088C431.381 42.4752 432.4 40.9792 433.737 39.9225C435.075 38.8657 436.666 38.2991 438.296 38.2988V42.1363C437.079 42.1369 435.913 42.685 435.053 43.6601C434.193 44.6351 433.71 45.9574 433.71 47.336Z" fill="#FFBC0E"/>
<path d="M433.122 54.4331C433.074 54.4331 433.028 54.4138 432.992 54.3787C431.721 53.1492 430.813 51.5076 430.39 49.6751C429.968 47.8426 430.051 45.9075 430.629 44.1304C431.207 42.3533 432.252 40.8198 433.623 39.7366C434.994 38.6534 436.625 38.0725 438.296 38.0723C438.349 38.0723 438.4 38.0961 438.437 38.1387C438.475 38.1812 438.496 38.2388 438.496 38.2989V42.1364C438.496 42.1965 438.475 42.2542 438.437 42.2967C438.4 42.3392 438.349 42.3631 438.296 42.3631C437.392 42.3634 436.511 42.6801 435.772 43.2699C435.033 43.8597 434.473 44.6937 434.168 45.658C433.864 46.6222 433.829 47.6696 434.07 48.6569C434.31 49.6442 434.814 50.5231 435.512 51.1736C435.533 51.1929 435.551 51.217 435.563 51.2443C435.576 51.2716 435.584 51.3015 435.586 51.3323C435.588 51.3628 435.584 51.3933 435.575 51.4222C435.566 51.451 435.552 51.4775 435.534 51.5L433.27 54.3583C433.251 54.3817 433.228 54.4005 433.203 54.4134C433.178 54.4263 433.15 54.433 433.122 54.4331ZM438.096 38.5301C436.54 38.5739 435.032 39.1461 433.766 40.1724C432.501 41.1988 431.536 42.6321 430.998 44.2868C430.459 45.9415 430.371 47.7413 430.745 49.4533C431.119 51.1653 431.938 52.7106 433.096 53.8891L435.096 51.3708C434.387 50.6506 433.884 49.7072 433.651 48.6612C433.418 47.6153 433.466 46.5143 433.788 45.4992C434.11 44.484 434.692 43.6008 435.459 42.9626C436.227 42.3244 437.145 41.9602 438.096 41.9165V38.5301Z" fill="#093F68"/>
<path d="M438.296 52.5315V56.369C436.399 56.3737 434.563 55.6064 433.122 54.2066L435.386 51.3506C436.205 52.1157 437.234 52.5333 438.296 52.5315Z" fill="#F56132"/>
<path d="M438.296 56.5951C436.354 56.5938 434.476 55.8078 433 54.3783C432.98 54.3587 432.963 54.3349 432.952 54.3081C432.94 54.2812 432.933 54.252 432.931 54.2221C432.929 54.1921 432.932 54.1621 432.941 54.1336C432.949 54.1052 432.963 54.0789 432.98 54.0564L435.244 51.1981C435.278 51.1544 435.326 51.1274 435.378 51.1228C435.429 51.1181 435.48 51.1362 435.52 51.1732C436.304 51.9048 437.288 52.3053 438.304 52.3065C438.357 52.3065 438.408 52.3304 438.445 52.3729C438.483 52.4154 438.504 52.4731 438.504 52.5332V56.3707C438.504 56.401 438.498 56.431 438.488 56.4589C438.477 56.4867 438.461 56.5118 438.442 56.5328C438.423 56.5537 438.4 56.57 438.375 56.5807C438.35 56.5914 438.323 56.5963 438.296 56.5951ZM433.41 54.1833C434.739 55.4029 436.387 56.0906 438.096 56.1395V52.7531C437.123 52.7053 436.187 52.3234 435.41 51.6583L433.41 54.1833Z" fill="#093F68"/>
<path d="M437.838 50.924V50.3573C437.656 50.3006 437.478 50.2576 437.308 50.1918C436.974 50.0715 436.687 49.8261 436.492 49.496C436.331 49.2094 436.249 48.8747 436.256 48.5349H437.234C437.241 48.7272 437.304 48.9117 437.412 49.0599C437.52 49.2081 437.669 49.3119 437.834 49.3554V47.8504C437.634 47.7846 437.434 47.7234 437.248 47.6554C437.035 47.586 436.84 47.4593 436.68 47.286C436.511 47.0979 436.399 46.8532 436.362 46.5878C436.303 46.2649 436.325 45.9299 436.424 45.62C436.496 45.3974 436.611 45.1956 436.759 45.0288C436.908 44.8619 437.087 44.7341 437.284 44.6544C437.446 44.5957 437.611 44.5473 437.778 44.5093L437.838 44.4957V43.7432H438.754V43.8157V44.4617C438.754 44.5161 438.768 44.532 438.812 44.5433C439.126 44.6116 439.419 44.7674 439.666 44.9966C439.927 45.2399 440.1 45.5836 440.152 45.9622C440.168 46.0642 440.176 46.1685 440.188 46.2773H439.188C439.185 46.1233 439.143 45.9735 439.066 45.8463C438.989 45.7191 438.882 45.62 438.756 45.561V46.9732L438.864 47.0026C439.133 47.0611 439.395 47.1555 439.644 47.2837C439.832 47.376 439.994 47.5243 440.113 47.7127C440.232 47.9011 440.303 48.1226 440.32 48.3536C440.371 48.7453 440.299 49.1449 440.116 49.4824C439.934 49.8198 439.652 50.0734 439.32 50.1986C439.136 50.2712 438.944 50.3188 438.746 50.38V50.9308L437.838 50.924ZM438.758 48.0657V49.3736C438.905 49.3481 439.043 49.2784 439.158 49.1718C439.37 48.9746 439.446 48.4918 439.134 48.2652C439.012 48.1904 438.887 48.1238 438.758 48.0657ZM437.834 46.7261V45.4613C437.715 45.5203 437.598 45.5877 437.486 45.663C437.422 45.7157 437.371 45.7855 437.336 45.8661C437.301 45.9468 437.285 46.0358 437.288 46.1254C437.291 46.215 437.313 46.3024 437.353 46.3799C437.393 46.4574 437.449 46.5226 437.516 46.5697C437.616 46.6332 437.722 46.674 437.834 46.7261Z" fill="#093F68"/>
<path d="M413.856 59.0651L406.317 61.5118C405.711 61.7086 405.36 62.4252 405.534 63.1124L408.138 73.4195C408.312 74.1066 408.944 74.5042 409.55 74.3074L417.089 71.8606C417.696 71.6638 418.046 70.9472 417.873 70.2601L415.268 59.953C415.095 59.2658 414.462 58.8683 413.856 59.0651Z" fill="white"/>
<path d="M409.234 74.584C408.943 74.5835 408.66 74.4758 408.428 74.2771C408.195 74.0784 408.026 73.7994 407.946 73.4824L405.346 63.1736C405.249 62.7861 405.291 62.371 405.464 62.0188C405.636 61.6667 405.925 61.4063 406.266 61.2945L413.806 58.8465C414.148 58.7359 414.515 58.7836 414.826 58.979C415.137 59.1745 415.367 59.5018 415.466 59.8892L418.066 70.198C418.163 70.5854 418.121 71.0009 417.949 71.3532C417.776 71.7055 417.488 71.9658 417.146 72.077L409.6 74.525C409.481 74.5629 409.358 74.5827 409.234 74.584ZM414.174 59.2409C414.086 59.2409 413.999 59.2547 413.914 59.2817L406.372 61.7297C406.132 61.8083 405.93 61.9911 405.809 62.2383C405.688 62.4855 405.658 62.7769 405.726 63.0489L408.326 73.3577C408.395 73.6293 408.557 73.8587 408.775 73.9959C408.993 74.1331 409.25 74.1669 409.49 74.0898L417.03 71.6418C417.27 71.5633 417.472 71.3804 417.593 71.1333C417.714 70.8861 417.744 70.5946 417.676 70.3226L415.076 60.0161C415.02 59.793 414.902 59.5966 414.739 59.4567C414.576 59.3168 414.377 59.241 414.172 59.2409H414.174Z" fill="#093F68"/>
<path d="M407.835 67.8348L405.884 69.1684C405.677 69.31 405.611 69.6151 405.736 69.8499L405.737 69.8518C405.862 70.0865 406.131 70.162 406.338 70.0204L408.288 68.6869C408.496 68.5453 408.562 68.2402 408.437 68.0054L408.436 68.0035C408.311 67.7687 408.042 67.6932 407.835 67.8348Z" fill="#FFC9B0"/>
<path d="M406.112 70.3201C405.972 70.3209 405.836 70.2695 405.724 70.1739C405.612 70.0783 405.532 69.9437 405.494 69.7908C405.457 69.638 405.464 69.4755 405.516 69.3282C405.568 69.1809 405.662 69.0572 405.782 68.9759L407.73 67.6431C407.875 67.544 408.049 67.5141 408.213 67.5603C408.378 67.6064 408.519 67.7247 408.607 67.8891C408.695 68.0535 408.721 68.2506 408.68 68.437C408.639 68.6234 408.535 68.7838 408.39 68.883L406.442 70.2158C406.342 70.2837 406.228 70.3197 406.112 70.3201ZM408.06 67.9922C408.016 67.9927 407.973 68.0068 407.936 68.033L405.988 69.3635C405.958 69.38 405.931 69.4034 405.91 69.4322C405.888 69.461 405.872 69.4945 405.863 69.5307C405.853 69.5668 405.851 69.6048 405.855 69.6423C405.859 69.6797 405.87 69.7158 405.887 69.7481C405.904 69.7805 405.927 69.8085 405.954 69.8303C405.981 69.852 406.012 69.8672 406.045 69.8747C406.078 69.8822 406.111 69.882 406.144 69.874C406.176 69.866 406.207 69.8504 406.234 69.8282L408.184 68.4954C408.228 68.4644 408.262 68.4179 408.281 68.363C408.3 68.3081 408.303 68.2478 408.289 68.191C408.275 68.1343 408.245 68.0842 408.204 68.0484C408.162 68.0125 408.112 67.9928 408.06 67.9922Z" fill="#093F68"/>
<path d="M408.288 68.6864L406.337 70.02C406.13 70.1616 406.064 70.4667 406.189 70.7014L406.19 70.7034C406.315 70.9381 406.584 71.0136 406.791 70.872L408.742 69.5385C408.949 69.3968 409.015 69.0917 408.89 68.857L408.889 68.8551C408.764 68.6203 408.495 68.5448 408.288 68.6864Z" fill="#FFC9B0"/>
<path d="M406.566 71.1726C406.427 71.1721 406.291 71.1202 406.18 71.0245C406.07 70.9289 405.989 70.7949 405.952 70.6428C405.914 70.4907 405.921 70.3289 405.972 70.182C406.023 70.035 406.115 69.9109 406.234 69.8285L408.184 68.4957C408.329 68.3965 408.503 68.3667 408.668 68.4128C408.832 68.4589 408.974 68.5772 409.061 68.7416C409.149 68.906 409.175 69.1031 409.134 69.2895C409.094 69.4759 408.989 69.6364 408.844 69.7355L406.894 71.0684C406.795 71.1365 406.682 71.1725 406.566 71.1726ZM408.512 68.8448C408.469 68.8452 408.427 68.8585 408.39 68.8833L406.442 70.2161C406.387 70.2533 406.348 70.3136 406.332 70.3838C406.321 70.4358 406.323 70.4906 406.339 70.541C406.355 70.5914 406.384 70.6352 406.423 70.6668C406.461 70.6984 406.507 70.7164 406.554 70.7185C406.601 70.7206 406.648 70.7067 406.688 70.6785L408.636 69.348C408.691 69.3107 408.73 69.2504 408.746 69.1802C408.76 69.1107 408.75 69.0377 408.718 68.9762C408.702 68.9457 408.68 68.9192 408.655 68.8982C408.629 68.8772 408.601 68.8621 408.57 68.8538C408.551 68.8473 408.532 68.8442 408.512 68.8448Z" fill="#093F68"/>
<path d="M408.743 69.5399L406.793 70.8735C406.586 71.0151 406.519 71.3202 406.644 71.5549L406.645 71.5569C406.77 71.7916 407.039 71.8671 407.246 71.7255L409.197 70.392C409.404 70.2504 409.471 69.9453 409.346 69.7105L409.345 69.7086C409.22 69.4738 408.95 69.3983 408.743 69.5399Z" fill="#FFC9B0"/>
<path d="M407.018 72.0224C406.878 72.0232 406.742 71.9718 406.63 71.8762C406.518 71.7806 406.438 71.646 406.4 71.4931C406.363 71.3403 406.37 71.1777 406.422 71.0305C406.474 70.8832 406.568 70.7595 406.688 70.6782L408.636 69.3477C408.781 69.249 408.955 69.2194 409.119 69.2652C409.284 69.3111 409.426 69.4287 409.514 69.5925C409.601 69.7574 409.627 69.9545 409.586 70.1409C409.545 70.3273 409.441 70.4879 409.296 70.5876L407.348 71.9204C407.248 71.9879 407.134 72.0232 407.018 72.0224ZM408.966 69.6968C408.923 69.6962 408.881 69.7095 408.844 69.7353L406.894 71.0681C406.851 71.1099 406.822 71.168 406.813 71.2318C406.804 71.2955 406.816 71.3608 406.846 71.4156C406.876 71.4705 406.922 71.5113 406.977 71.5307C407.031 71.5502 407.09 71.5469 407.142 71.5214L409.09 70.1909C409.117 70.1724 409.14 70.1481 409.159 70.1193C409.177 70.0905 409.191 70.0578 409.198 70.0232C409.206 69.9889 409.208 69.9532 409.203 69.9182C409.199 69.8832 409.188 69.8495 409.172 69.8192C409.15 69.7808 409.119 69.7495 409.083 69.7281C409.047 69.7067 409.007 69.6959 408.966 69.6968Z" fill="#093F68"/>
<path d="M409.195 70.3925L407.244 71.726C407.037 71.8676 406.97 72.1727 407.095 72.4075L407.096 72.4094C407.221 72.6442 407.491 72.7197 407.698 72.5781L409.648 71.2445C409.855 71.1029 409.922 70.7978 409.797 70.563L409.796 70.5611C409.671 70.3264 409.402 70.2509 409.195 70.3925Z" fill="#FFC9B0"/>
<path d="M407.472 72.8745C407.42 72.8745 407.368 72.8677 407.318 72.854C407.195 72.8201 407.083 72.7455 406.998 72.6395C406.912 72.5336 406.857 72.4012 406.838 72.2592C406.819 72.1172 406.838 71.972 406.892 71.8422C406.946 71.7124 407.033 71.6038 407.142 71.5303L409.09 70.1998C409.235 70.1006 409.409 70.0708 409.573 70.1169C409.738 70.163 409.879 70.2813 409.967 70.4457C410.054 70.6101 410.081 70.8072 410.04 70.9936C409.999 71.18 409.895 71.3405 409.75 71.4397L407.8 72.7702C407.701 72.8385 407.588 72.8746 407.472 72.8745ZM409.42 70.5466C409.376 70.5459 409.333 70.5593 409.296 70.5851L407.348 71.9179C407.321 71.9357 407.297 71.9596 407.279 71.9881C407.26 72.0165 407.247 72.0489 407.24 72.0834C407.224 72.1533 407.234 72.2274 407.266 72.2897C407.3 72.3505 407.353 72.3944 407.414 72.412C407.444 72.4205 407.476 72.4221 407.507 72.4167C407.538 72.4112 407.567 72.3989 407.594 72.3803L409.544 71.0475C409.589 71.0171 409.623 70.9708 409.643 70.9159C409.662 70.861 409.665 70.8004 409.65 70.7435C409.636 70.6865 409.606 70.6364 409.565 70.6009C409.523 70.5653 409.472 70.5462 409.42 70.5466Z" fill="#093F68"/>
<path d="M410.67 62.8901C410.906 62.8901 411.098 62.6729 411.098 62.405C411.098 62.1371 410.906 61.9199 410.67 61.9199C410.434 61.9199 410.242 62.1371 410.242 62.405C410.242 62.6729 410.434 62.8901 410.67 62.8901Z" fill="#093F68"/>
<path d="M425.674 68.9323C425.621 68.9323 425.57 68.9084 425.532 68.8659C425.495 68.8234 425.474 68.7658 425.474 68.7057V65.5323C425.474 65.4722 425.495 65.4146 425.532 65.3721C425.57 65.3295 425.621 65.3057 425.674 65.3057C425.727 65.3057 425.778 65.3295 425.815 65.3721C425.853 65.4146 425.874 65.4722 425.874 65.5323V68.7057C425.874 68.7658 425.853 68.8234 425.815 68.8659C425.778 68.9084 425.727 68.9323 425.674 68.9323Z" fill="#093F68"/>
<path d="M432.728 56.2395H429.928C429.875 56.2395 429.824 56.2156 429.787 56.1731C429.749 56.1306 429.728 56.0729 429.728 56.0128C429.728 55.9527 429.749 55.895 429.787 55.8525C429.824 55.81 429.875 55.7861 429.928 55.7861H432.728C432.781 55.7861 432.832 55.81 432.869 55.8525C432.907 55.895 432.928 55.9527 432.928 56.0128C432.928 56.0729 432.907 56.1306 432.869 56.1731C432.832 56.2156 432.781 56.2395 432.728 56.2395Z" fill="#DFEAEF"/>
<path d="M432.728 57.4983H429.928C429.875 57.4983 429.824 57.4744 429.787 57.4319C429.749 57.3894 429.728 57.3317 429.728 57.2716C429.728 57.2115 429.749 57.1538 429.787 57.1113C429.824 57.0688 429.875 57.0449 429.928 57.0449H432.728C432.781 57.0449 432.832 57.0688 432.869 57.1113C432.907 57.1538 432.928 57.2115 432.928 57.2716C432.928 57.3317 432.907 57.3894 432.869 57.4319C432.832 57.4744 432.781 57.4983 432.728 57.4983Z" fill="#DFEAEF"/>
<path d="M431.648 58.76H429.93C429.877 58.76 429.826 58.7361 429.788 58.6936C429.751 58.6511 429.73 58.5934 429.73 58.5333C429.73 58.4732 429.751 58.4155 429.788 58.373C429.826 58.3305 429.877 58.3066 429.93 58.3066H431.648C431.701 58.3066 431.752 58.3305 431.789 58.373C431.827 58.4155 431.848 58.4732 431.848 58.5333C431.848 58.5934 431.827 58.6511 431.789 58.6936C431.752 58.7361 431.701 58.76 431.648 58.76Z" fill="#DFEAEF"/>
<path d="M447.31 55.134H446C445.947 55.134 445.896 55.1101 445.859 55.0676C445.821 55.0251 445.8 54.9674 445.8 54.9073C445.8 54.8472 445.821 54.7896 445.859 54.7471C445.896 54.7045 445.947 54.6807 446 54.6807H447.304C447.357 54.6807 447.408 54.7045 447.445 54.7471C447.483 54.7896 447.504 54.8472 447.504 54.9073C447.504 54.9674 447.483 55.0251 447.445 55.0676C447.408 55.1101 447.357 55.134 447.304 55.134H447.31Z" fill="#DFEAEF"/>
<path d="M445.22 55.134H444.326C444.273 55.134 444.222 55.1101 444.185 55.0676C444.147 55.0251 444.126 54.9674 444.126 54.9073C444.126 54.8472 444.147 54.7896 444.185 54.7471C444.222 54.7045 444.273 54.6807 444.326 54.6807H445.22C445.273 54.6807 445.324 54.7045 445.361 54.7471C445.399 54.7896 445.42 54.8472 445.42 54.9073C445.42 54.9674 445.399 55.0251 445.361 55.0676C445.324 55.1101 445.273 55.134 445.22 55.134Z" fill="#DFEAEF"/>
<path d="M446.116 56.6115H444.326C444.273 56.6115 444.222 56.5877 444.185 56.5451C444.147 56.5026 444.126 56.445 444.126 56.3849C444.126 56.3248 444.147 56.2671 444.185 56.2246C444.222 56.1821 444.273 56.1582 444.326 56.1582H446.116C446.169 56.1582 446.22 56.1821 446.257 56.2246C446.295 56.2671 446.316 56.3248 446.316 56.3849C446.316 56.445 446.295 56.5026 446.257 56.5451C446.22 56.5877 446.169 56.6115 446.116 56.6115Z" fill="#DFEAEF"/>
<path d="M434.91 35.6721H433.71C433.657 35.6721 433.606 35.6482 433.569 35.6057C433.531 35.5632 433.51 35.5055 433.51 35.4454C433.51 35.3853 433.531 35.3276 433.569 35.2851C433.606 35.2426 433.657 35.2188 433.71 35.2188H434.91C434.963 35.2188 435.014 35.2426 435.051 35.2851C435.089 35.3276 435.11 35.3853 435.11 35.4454C435.11 35.5055 435.089 35.5632 435.051 35.6057C435.014 35.6482 434.963 35.6721 434.91 35.6721Z" fill="#DFEAEF"/>
<path d="M432.728 35.6721H431.328C431.275 35.6721 431.224 35.6482 431.187 35.6057C431.149 35.5632 431.128 35.5055 431.128 35.4454C431.128 35.3853 431.149 35.3276 431.187 35.2851C431.224 35.2426 431.275 35.2188 431.328 35.2188H432.728C432.781 35.2188 432.832 35.2426 432.869 35.2851C432.907 35.3276 432.928 35.3853 432.928 35.4454C432.928 35.5055 432.907 35.5632 432.869 35.6057C432.832 35.6482 432.781 35.6721 432.728 35.6721Z" fill="#DFEAEF"/>
<path d="M434.91 36.9485H431.334C431.281 36.9485 431.23 36.9246 431.193 36.8821C431.155 36.8396 431.134 36.7819 431.134 36.7218C431.134 36.6617 431.155 36.604 431.193 36.5615C431.23 36.519 431.281 36.4951 431.334 36.4951H434.91C434.963 36.4951 435.014 36.519 435.051 36.5615C435.089 36.604 435.11 36.6617 435.11 36.7218C435.11 36.7819 435.089 36.8396 435.051 36.8821C435.014 36.9246 434.963 36.9485 434.91 36.9485Z" fill="#DFEAEF"/>
<path d="M433.122 38.2248H431.334C431.281 38.2248 431.23 38.2009 431.193 38.1584C431.155 38.1159 431.134 38.0583 431.134 37.9982C431.134 37.938 431.155 37.8804 431.193 37.8379C431.23 37.7954 431.281 37.7715 431.334 37.7715H433.122C433.175 37.7715 433.226 37.7954 433.263 37.8379C433.301 37.8804 433.322 37.938 433.322 37.9982C433.322 38.0583 433.301 38.1159 433.263 38.1584C433.226 38.2009 433.175 38.2248 433.122 38.2248Z" fill="#DFEAEF"/>
<path d="M447.188 73.6516H423.75C423.697 73.6516 423.646 73.6277 423.609 73.5852C423.571 73.5427 423.55 73.485 423.55 73.4249C423.55 73.3648 423.571 73.3071 423.609 73.2646C423.646 73.2221 423.697 73.1982 423.75 73.1982H447.188C447.241 73.1982 447.292 73.2221 447.329 73.2646C447.367 73.3071 447.388 73.3648 447.388 73.4249C447.388 73.485 447.367 73.5427 447.329 73.5852C447.292 73.6277 447.241 73.6516 447.188 73.6516Z" fill="#093F68"/>
<path d="M434.058 68.8327C434.028 68.8329 433.999 68.8254 433.972 68.8109C433.945 68.7964 433.921 68.7752 433.902 68.7489C433.885 68.7258 433.873 68.6993 433.865 68.6707C433.857 68.6422 433.855 68.6122 433.857 68.5825C433.86 68.5528 433.868 68.524 433.88 68.4977C433.893 68.4714 433.91 68.4481 433.93 68.4293L443.53 59.5417C443.571 59.5035 443.624 59.4854 443.677 59.4913C443.73 59.4973 443.778 59.5268 443.812 59.5734C443.846 59.62 443.862 59.6798 443.856 59.7398C443.851 59.7997 443.825 59.8548 443.784 59.893L434.184 68.7806C434.149 68.8139 434.104 68.8323 434.058 68.8327Z" fill="#DFEAEF"/>
<path d="M443.65 61.269C443.633 61.2712 443.617 61.2712 443.6 61.269C443.549 61.2545 443.504 61.2175 443.477 61.1661C443.45 61.1147 443.441 61.053 443.454 60.9947L443.738 59.7072H442.418C442.365 59.7072 442.314 59.6834 442.277 59.6409C442.239 59.5983 442.218 59.5407 442.218 59.4806C442.218 59.4205 442.239 59.3628 442.277 59.3203C442.314 59.2778 442.365 59.2539 442.418 59.2539H444C444.031 59.254 444.061 59.262 444.088 59.2773C444.115 59.2926 444.139 59.3149 444.158 59.3423C444.177 59.3696 444.19 59.4013 444.196 59.4351C444.202 59.4688 444.202 59.5038 444.194 59.5372L443.85 61.1058C443.838 61.1544 443.811 61.1969 443.775 61.2264C443.739 61.256 443.695 61.271 443.65 61.269Z" fill="#DFEAEF"/>
</g>
<defs>
<filter id="filter0_d_1951_3204" x="0" y="0" width="537" height="132" filterUnits="userSpaceOnUse" color-interpolation-filters="sRGB">
<feFlood flood-opacity="0" result="BackgroundImageFix"/>
<feColorMatrix in="SourceAlpha" type="matrix" values="0 0 0 0 0 0 0 0 0 0 0 0 0 0 0 0 0 0 127 0" result="hardAlpha"/>
<feOffset dy="4"/>
<feGaussianBlur stdDeviation="8"/>
<feComposite in2="hardAlpha" operator="out"/>
<feColorMatrix type="matrix" values="0 0 0 0 0 0 0 0 0 0 0 0 0 0 0 0 0 0 0.03 0"/>
<feBlend mode="normal" in2="BackgroundImageFix" result="effect1_dropShadow_1951_3204"/>
<feBlend mode="normal" in="SourceGraphic" in2="effect1_dropShadow_1951_3204" result="shape"/>
</filter>
</defs>
</svg>
