<svg width="1556" height="150" viewBox="0 0 1556 150" fill="none" xmlns="http://www.w3.org/2000/svg">
<g filter="url(#filter0_d_1900_2637)">
<g clip-path="url(#clip0_1900_2637)">
<rect x="10" y="10" width="1536" height="130" rx="15" fill="url(#paint0_linear_1900_2637)"/>
<path d="M53.2 44.08V46.1C52.6133 45.78 52.08 45.56 51.6 45.44C51.1333 45.3067 50.5333 45.24 49.8 45.24C48.4533 45.24 47.3267 45.7 46.42 46.62C45.5267 47.5267 45.08 48.7333 45.08 50.24C45.08 51.7733 45.5267 52.9933 46.42 53.9C47.3133 54.8067 48.4933 55.26 49.96 55.26C51.2533 55.26 52.34 54.9267 53.22 54.26V56.34C52.3933 56.8867 51.2467 57.16 49.78 57.16C47.7667 57.16 46.12 56.5333 44.84 55.28C43.56 54.0267 42.92 52.3467 42.92 50.24C42.92 48.2 43.56 46.54 44.84 45.26C46.1333 43.98 47.7667 43.34 49.74 43.34C51.18 43.34 52.3333 43.5867 53.2 44.08ZM59.7294 57.18C58.236 57.18 57.0627 56.6933 56.2094 55.72C55.356 54.7467 54.9294 53.5133 54.9294 52.02C54.9294 50.5 55.3694 49.24 56.2494 48.24C57.1294 47.2267 58.2894 46.72 59.7294 46.72C61.276 46.72 62.4694 47.2133 63.3094 48.2C64.1494 49.1733 64.5694 50.42 64.5694 51.94C64.5694 53.46 64.136 54.7133 63.2694 55.7C62.416 56.6867 61.236 57.18 59.7294 57.18ZM59.7094 48.38C58.8427 48.38 58.1694 48.7267 57.6894 49.42C57.2094 50.1 56.9694 50.9467 56.9694 51.96C56.9694 52.96 57.216 53.8067 57.7094 54.5C58.2027 55.18 58.876 55.52 59.7294 55.52C60.636 55.52 61.3227 55.1867 61.7894 54.52C62.2694 53.8533 62.5094 53.0067 62.5094 51.98C62.5094 50.9267 62.2827 50.0667 61.8294 49.4C61.376 48.72 60.6694 48.38 59.7094 48.38ZM68.7384 46.86V48.6C69.3384 47.3467 70.3918 46.72 71.8984 46.72C72.8984 46.72 73.6918 47.0267 74.2784 47.64C74.8651 48.2533 75.1584 49.0867 75.1584 50.14V57H73.1984V50.6C73.1984 49.8933 73.0184 49.3533 72.6584 48.98C72.3118 48.6067 71.8451 48.42 71.2584 48.42C70.5651 48.42 69.9718 48.6933 69.4784 49.24C68.9851 49.7733 68.7384 50.5267 68.7384 51.5V57H66.7784V46.86H68.7384ZM81.9541 55.42C82.6741 55.42 83.3007 55.1267 83.8341 54.54C84.3807 53.9533 84.6541 53.0733 84.6541 51.9C84.6541 50.7 84.3807 49.8267 83.8341 49.28C83.2874 48.72 82.6407 48.44 81.8941 48.44C81.1341 48.44 80.5007 48.7533 79.9941 49.38C79.5007 50.0067 79.2541 50.84 79.2541 51.88C79.2541 52.9867 79.5074 53.8533 80.0141 54.48C80.5341 55.1067 81.1807 55.42 81.9541 55.42ZM84.6541 46.86H86.6341V60.88H84.6541V55.44C83.9341 56.5733 82.9141 57.14 81.5941 57.14C80.2741 57.14 79.2141 56.6467 78.4141 55.66C77.6274 54.66 77.2341 53.3933 77.2341 51.86C77.2341 50.3667 77.6207 49.14 78.3941 48.18C79.1807 47.2067 80.2407 46.72 81.5741 46.72C82.9074 46.72 83.9341 47.2733 84.6541 48.38V46.86ZM95.6956 46.86H97.6556V57H95.6956V55.26C95.1623 56.5 94.109 57.12 92.5356 57.12C91.5356 57.12 90.7423 56.8267 90.1556 56.24C89.569 55.64 89.2756 54.82 89.2756 53.78V46.86H91.2556V53.3C91.2556 53.9933 91.4223 54.5267 91.7556 54.9C92.1023 55.26 92.5756 55.44 93.1756 55.44C93.9356 55.44 94.5423 55.1733 94.9956 54.64C95.4623 54.1067 95.6956 53.3533 95.6956 52.38V46.86ZM100.491 57V46.86H102.471V57H100.491ZM100.591 44.64C100.365 44.4 100.251 44.1067 100.251 43.76C100.251 43.4133 100.365 43.12 100.591 42.88C100.831 42.64 101.125 42.52 101.471 42.52C101.818 42.52 102.111 42.64 102.351 42.88C102.591 43.12 102.711 43.4133 102.711 43.76C102.711 44.0933 102.591 44.38 102.351 44.62C102.111 44.86 101.818 44.98 101.471 44.98C101.125 44.98 100.831 44.8667 100.591 44.64ZM111.094 47.2V48.98C110.44 48.5933 109.6 48.4 108.574 48.4C108.107 48.4 107.734 48.5067 107.454 48.72C107.187 48.9333 107.054 49.2133 107.054 49.56C107.054 49.6533 107.06 49.7467 107.074 49.84C107.1 49.92 107.14 50.0067 107.194 50.1C107.247 50.18 107.294 50.2533 107.334 50.32C107.387 50.3733 107.467 50.4333 107.574 50.5C107.68 50.5667 107.76 50.6267 107.814 50.68C107.88 50.72 107.98 50.7733 108.114 50.84C108.26 50.9067 108.367 50.96 108.434 51C108.5 51.0267 108.614 51.08 108.774 51.16C108.947 51.2267 109.067 51.2733 109.134 51.3C109.92 51.6467 110.534 52.04 110.974 52.48C111.427 52.9067 111.654 53.48 111.654 54.2C111.654 55.1067 111.334 55.82 110.694 56.34C110.054 56.8467 109.187 57.1 108.094 57.1C106.894 57.1 105.894 56.9 105.094 56.5V54.64C106.027 55.2133 106.994 55.5 107.994 55.5C108.514 55.5 108.914 55.3933 109.194 55.18C109.487 54.9667 109.634 54.6867 109.634 54.34C109.634 54.0467 109.52 53.7867 109.294 53.56C109.067 53.32 108.834 53.1467 108.594 53.04C108.367 52.92 107.974 52.74 107.414 52.5C105.827 51.8467 105.034 50.8867 105.034 49.62C105.034 48.7267 105.367 48.0267 106.034 47.52C106.7 47.0133 107.534 46.76 108.534 46.76C109.627 46.76 110.48 46.9067 111.094 47.2ZM116.233 48.38V53.96C116.233 54.9333 116.699 55.42 117.633 55.42C118.179 55.42 118.639 55.2733 119.013 54.98V56.74C118.573 56.98 118.033 57.1 117.393 57.1C115.299 57.1 114.253 56.04 114.253 53.92V48.38H112.673V46.86H114.253V44.38H116.233V46.86H118.893V48.38H116.233ZM127.473 51.2V50.84C127.446 50.08 127.24 49.48 126.853 49.04C126.466 48.5867 125.913 48.36 125.193 48.36C124.526 48.36 123.953 48.6067 123.473 49.1C122.993 49.58 122.693 50.28 122.573 51.2H127.473ZM128.733 54.7V56.46C127.986 56.8867 127 57.1 125.773 57.1C124.2 57.1 122.946 56.6267 122.013 55.68C121.08 54.7333 120.613 53.4933 120.613 51.96C120.613 50.3333 121.04 49.06 121.893 48.14C122.746 47.2067 123.833 46.74 125.153 46.74C126.446 46.74 127.473 47.1467 128.233 47.96C128.993 48.76 129.373 49.92 129.373 51.44C129.373 51.8533 129.333 52.2867 129.253 52.74H122.593C122.726 53.62 123.1 54.2933 123.713 54.76C124.326 55.2267 125.1 55.46 126.033 55.46C127.113 55.46 128.013 55.2067 128.733 54.7ZM142.383 47.2V48.98C141.729 48.5933 140.889 48.4 139.863 48.4C139.396 48.4 139.023 48.5067 138.743 48.72C138.476 48.9333 138.343 49.2133 138.343 49.56C138.343 49.6533 138.349 49.7467 138.363 49.84C138.389 49.92 138.429 50.0067 138.483 50.1C138.536 50.18 138.583 50.2533 138.623 50.32C138.676 50.3733 138.756 50.4333 138.863 50.5C138.969 50.5667 139.049 50.6267 139.103 50.68C139.169 50.72 139.269 50.7733 139.403 50.84C139.549 50.9067 139.656 50.96 139.723 51C139.789 51.0267 139.903 51.08 140.063 51.16C140.236 51.2267 140.356 51.2733 140.423 51.3C141.209 51.6467 141.823 52.04 142.263 52.48C142.716 52.9067 142.943 53.48 142.943 54.2C142.943 55.1067 142.623 55.82 141.983 56.34C141.343 56.8467 140.476 57.1 139.383 57.1C138.183 57.1 137.183 56.9 136.383 56.5V54.64C137.316 55.2133 138.283 55.5 139.283 55.5C139.803 55.5 140.203 55.3933 140.483 55.18C140.776 54.9667 140.923 54.6867 140.923 54.34C140.923 54.0467 140.809 53.7867 140.583 53.56C140.356 53.32 140.123 53.1467 139.883 53.04C139.656 52.92 139.263 52.74 138.703 52.5C137.116 51.8467 136.323 50.8867 136.323 49.62C136.323 48.7267 136.656 48.0267 137.323 47.52C137.989 47.0133 138.823 46.76 139.823 46.76C140.916 46.76 141.769 46.9067 142.383 47.2ZM151.282 51.2V50.84C151.255 50.08 151.048 49.48 150.662 49.04C150.275 48.5867 149.722 48.36 149.002 48.36C148.335 48.36 147.762 48.6067 147.282 49.1C146.802 49.58 146.502 50.28 146.382 51.2H151.282ZM152.542 54.7V56.46C151.795 56.8867 150.808 57.1 149.582 57.1C148.008 57.1 146.755 56.6267 145.822 55.68C144.888 54.7333 144.422 53.4933 144.422 51.96C144.422 50.3333 144.848 49.06 145.702 48.14C146.555 47.2067 147.642 46.74 148.962 46.74C150.255 46.74 151.282 47.1467 152.042 47.96C152.802 48.76 153.182 49.92 153.182 51.44C153.182 51.8533 153.142 52.2867 153.062 52.74H146.402C146.535 53.62 146.908 54.2933 147.522 54.76C148.135 55.2267 148.908 55.46 149.842 55.46C150.922 55.46 151.822 55.2067 152.542 54.7ZM161.789 46.86H163.749V57H161.789V55.26C161.256 56.5 160.203 57.12 158.629 57.12C157.629 57.12 156.836 56.8267 156.249 56.24C155.663 55.64 155.369 54.82 155.369 53.78V46.86H157.349V53.3C157.349 53.9933 157.516 54.5267 157.849 54.9C158.196 55.26 158.669 55.44 159.269 55.44C160.029 55.44 160.636 55.1733 161.089 54.64C161.556 54.1067 161.789 53.3533 161.789 52.38V46.86ZM172.285 47.2V48.98C171.632 48.5933 170.792 48.4 169.765 48.4C169.298 48.4 168.925 48.5067 168.645 48.72C168.378 48.9333 168.245 49.2133 168.245 49.56C168.245 49.6533 168.252 49.7467 168.265 49.84C168.292 49.92 168.332 50.0067 168.385 50.1C168.438 50.18 168.485 50.2533 168.525 50.32C168.578 50.3733 168.658 50.4333 168.765 50.5C168.872 50.5667 168.952 50.6267 169.005 50.68C169.072 50.72 169.172 50.7733 169.305 50.84C169.452 50.9067 169.558 50.96 169.625 51C169.692 51.0267 169.805 51.08 169.965 51.16C170.138 51.2267 170.258 51.2733 170.325 51.3C171.112 51.6467 171.725 52.04 172.165 52.48C172.618 52.9067 172.845 53.48 172.845 54.2C172.845 55.1067 172.525 55.82 171.885 56.34C171.245 56.8467 170.378 57.1 169.285 57.1C168.085 57.1 167.085 56.9 166.285 56.5V54.64C167.218 55.2133 168.185 55.5 169.185 55.5C169.705 55.5 170.105 55.3933 170.385 55.18C170.678 54.9667 170.825 54.6867 170.825 54.34C170.825 54.0467 170.712 53.7867 170.485 53.56C170.258 53.32 170.025 53.1467 169.785 53.04C169.558 52.92 169.165 52.74 168.605 52.5C167.018 51.8467 166.225 50.8867 166.225 49.62C166.225 48.7267 166.558 48.0267 167.225 47.52C167.892 47.0133 168.725 46.76 169.725 46.76C170.818 46.76 171.672 46.9067 172.285 47.2ZM185.586 47.2V48.98C184.932 48.5933 184.092 48.4 183.066 48.4C182.599 48.4 182.226 48.5067 181.946 48.72C181.679 48.9333 181.546 49.2133 181.546 49.56C181.546 49.6533 181.552 49.7467 181.566 49.84C181.592 49.92 181.632 50.0067 181.686 50.1C181.739 50.18 181.786 50.2533 181.826 50.32C181.879 50.3733 181.959 50.4333 182.066 50.5C182.172 50.5667 182.252 50.6267 182.306 50.68C182.372 50.72 182.472 50.7733 182.606 50.84C182.752 50.9067 182.859 50.96 182.926 51C182.992 51.0267 183.106 51.08 183.266 51.16C183.439 51.2267 183.559 51.2733 183.626 51.3C184.412 51.6467 185.026 52.04 185.466 52.48C185.919 52.9067 186.146 53.48 186.146 54.2C186.146 55.1067 185.826 55.82 185.186 56.34C184.546 56.8467 183.679 57.1 182.586 57.1C181.386 57.1 180.386 56.9 179.586 56.5V54.64C180.519 55.2133 181.486 55.5 182.486 55.5C183.006 55.5 183.406 55.3933 183.686 55.18C183.979 54.9667 184.126 54.6867 184.126 54.34C184.126 54.0467 184.012 53.7867 183.786 53.56C183.559 53.32 183.326 53.1467 183.086 53.04C182.859 52.92 182.466 52.74 181.906 52.5C180.319 51.8467 179.526 50.8867 179.526 49.62C179.526 48.7267 179.859 48.0267 180.526 47.52C181.192 47.0133 182.026 46.76 183.026 46.76C184.119 46.76 184.972 46.9067 185.586 47.2ZM192.425 57.18C190.931 57.18 189.758 56.6933 188.905 55.72C188.051 54.7467 187.625 53.5133 187.625 52.02C187.625 50.5 188.065 49.24 188.945 48.24C189.825 47.2267 190.985 46.72 192.425 46.72C193.971 46.72 195.165 47.2133 196.005 48.2C196.845 49.1733 197.265 50.42 197.265 51.94C197.265 53.46 196.831 54.7133 195.965 55.7C195.111 56.6867 193.931 57.18 192.425 57.18ZM192.405 48.38C191.538 48.38 190.865 48.7267 190.385 49.42C189.905 50.1 189.665 50.9467 189.665 51.96C189.665 52.96 189.911 53.8067 190.405 54.5C190.898 55.18 191.571 55.52 192.425 55.52C193.331 55.52 194.018 55.1867 194.485 54.52C194.965 53.8533 195.205 53.0067 195.205 51.98C195.205 50.9267 194.978 50.0667 194.525 49.4C194.071 48.72 193.365 48.38 192.405 48.38ZM201.434 46.86V48.6C202.034 47.3467 203.087 46.72 204.594 46.72C205.594 46.72 206.387 47.0267 206.974 47.64C207.56 48.2533 207.854 49.0867 207.854 50.14V57H205.894V50.6C205.894 49.8933 205.714 49.3533 205.354 48.98C205.007 48.6067 204.54 48.42 203.954 48.42C203.26 48.42 202.667 48.6933 202.174 49.24C201.68 49.7733 201.434 50.5267 201.434 51.5V57H199.474V46.86H201.434ZM212.449 42.86V48.6C213.023 47.3467 214.069 46.72 215.589 46.72C216.576 46.72 217.369 47.0267 217.969 47.64C218.569 48.2533 218.869 49.1067 218.869 50.2V57H216.909V50.6C216.909 49.9067 216.729 49.3733 216.369 49C216.023 48.6133 215.563 48.42 214.989 48.42C214.323 48.42 213.729 48.6733 213.209 49.18C212.703 49.6867 212.449 50.46 212.449 51.5V57H210.489V42.86H212.449ZM225.745 57.18C224.252 57.18 223.078 56.6933 222.225 55.72C221.372 54.7467 220.945 53.5133 220.945 52.02C220.945 50.5 221.385 49.24 222.265 48.24C223.145 47.2267 224.305 46.72 225.745 46.72C227.292 46.72 228.485 47.2133 229.325 48.2C230.165 49.1733 230.585 50.42 230.585 51.94C230.585 53.46 230.152 54.7133 229.285 55.7C228.432 56.6867 227.252 57.18 225.745 57.18ZM225.725 48.38C224.858 48.38 224.185 48.7267 223.705 49.42C223.225 50.1 222.985 50.9467 222.985 51.96C222.985 52.96 223.232 53.8067 223.725 54.5C224.218 55.18 224.892 55.52 225.745 55.52C226.652 55.52 227.338 55.1867 227.805 54.52C228.285 53.8533 228.525 53.0067 228.525 51.98C228.525 50.9267 228.298 50.0667 227.845 49.4C227.392 48.72 226.685 48.38 225.725 48.38ZM238.574 47.2V48.98C237.921 48.5933 237.081 48.4 236.054 48.4C235.587 48.4 235.214 48.5067 234.934 48.72C234.667 48.9333 234.534 49.2133 234.534 49.56C234.534 49.6533 234.541 49.7467 234.554 49.84C234.581 49.92 234.621 50.0067 234.674 50.1C234.727 50.18 234.774 50.2533 234.814 50.32C234.867 50.3733 234.947 50.4333 235.054 50.5C235.161 50.5667 235.241 50.6267 235.294 50.68C235.361 50.72 235.461 50.7733 235.594 50.84C235.741 50.9067 235.847 50.96 235.914 51C235.981 51.0267 236.094 51.08 236.254 51.16C236.427 51.2267 236.547 51.2733 236.614 51.3C237.401 51.6467 238.014 52.04 238.454 52.48C238.907 52.9067 239.134 53.48 239.134 54.2C239.134 55.1067 238.814 55.82 238.174 56.34C237.534 56.8467 236.667 57.1 235.574 57.1C234.374 57.1 233.374 56.9 232.574 56.5V54.64C233.507 55.2133 234.474 55.5 235.474 55.5C235.994 55.5 236.394 55.3933 236.674 55.18C236.967 54.9667 237.114 54.6867 237.114 54.34C237.114 54.0467 237.001 53.7867 236.774 53.56C236.547 53.32 236.314 53.1467 236.074 53.04C235.847 52.92 235.454 52.74 234.894 52.5C233.307 51.8467 232.514 50.8867 232.514 49.62C232.514 48.7267 232.847 48.0267 233.514 47.52C234.181 47.0133 235.014 46.76 236.014 46.76C237.107 46.76 237.961 46.9067 238.574 47.2ZM241.453 52.72V43.52H243.373V52.72H241.453ZM241.413 56.78C241.16 56.5133 241.033 56.1867 241.033 55.8C241.033 55.4133 241.16 55.0867 241.413 54.82C241.68 54.5533 242.006 54.42 242.393 54.42C242.766 54.42 243.086 54.56 243.353 54.84C243.633 55.1067 243.773 55.4267 243.773 55.8C243.773 56.1867 243.64 56.5133 243.373 56.78C243.106 57.0333 242.78 57.16 242.393 57.16C242.006 57.16 241.68 57.0333 241.413 56.78Z" fill="#000334"/>
<path d="M44.528 100.832H49.12V102H43.232V91.216H44.528V100.832ZM54.089 102.144C52.9263 102.144 52.0037 101.755 51.321 100.976C50.649 100.187 50.313 99.1947 50.313 98C50.313 96.7947 50.6597 95.792 51.353 94.992C52.057 94.1813 52.969 93.776 54.089 93.776C55.3157 93.776 56.2597 94.1707 56.921 94.96C57.593 95.7493 57.929 96.752 57.929 97.968C57.929 99.1733 57.5877 100.171 56.905 100.96C56.2223 101.749 55.2837 102.144 54.089 102.144ZM54.089 94.896C53.321 94.896 52.7183 95.1947 52.281 95.792C51.8437 96.3893 51.625 97.12 51.625 97.984C51.625 98.8267 51.849 99.5467 52.297 100.144C52.745 100.731 53.3423 101.024 54.089 101.024C54.8997 101.024 55.5237 100.736 55.961 100.16C56.3983 99.5733 56.617 98.848 56.617 97.984C56.617 97.088 56.409 96.352 55.993 95.776C55.577 95.1893 54.9423 94.896 54.089 94.896ZM61.0254 93.888V95.312C61.452 94.3093 62.188 93.808 63.2334 93.808C63.4254 93.808 63.5747 93.8187 63.6814 93.84V95.088C63.4574 95.0133 63.228 94.976 62.9934 94.976C62.428 94.976 61.9587 95.2373 61.5854 95.76C61.212 96.2827 61.0254 96.8853 61.0254 97.568V102H59.7614L59.7774 93.888H61.0254ZM70.1641 97.424V97.104C70.1641 96.432 69.9828 95.8987 69.6201 95.504C69.2575 95.0987 68.7561 94.896 68.1161 94.896C67.5081 94.896 66.9908 95.1147 66.5641 95.552C66.1375 95.9893 65.8868 96.6133 65.8121 97.424H70.1641ZM70.9161 100.4V101.584C70.2868 101.915 69.5188 102.08 68.6121 102.08C67.3855 102.08 66.3935 101.707 65.6361 100.96C64.8895 100.203 64.5161 99.2053 64.5161 97.968C64.5161 96.6773 64.8521 95.6587 65.5241 94.912C66.1961 94.1653 67.0601 93.792 68.1161 93.792C69.1295 93.792 69.9348 94.1173 70.5321 94.768C71.1295 95.4187 71.4281 96.3413 71.4281 97.536C71.4281 97.8773 71.4015 98.192 71.3481 98.48H65.8121C65.9081 99.28 66.2121 99.8933 66.7241 100.32C67.2361 100.747 67.9081 100.96 68.7401 100.96C69.6468 100.96 70.3721 100.773 70.9161 100.4ZM74.6035 93.888V95.2C75.0515 94.2507 75.8142 93.776 76.8915 93.776C78.1395 93.776 78.9288 94.304 79.2595 95.36C79.4942 94.848 79.8195 94.4587 80.2355 94.192C80.6622 93.9147 81.1368 93.776 81.6595 93.776C82.5022 93.776 83.1368 94.016 83.5635 94.496C83.9902 94.976 84.2035 95.6213 84.2035 96.432V102H82.9395V96.752C82.9395 95.5253 82.4222 94.912 81.3875 94.912C80.8755 94.912 80.4168 95.1467 80.0115 95.616C79.6062 96.0747 79.4035 96.7253 79.4035 97.568V102H78.1395V96.752C78.1395 95.5253 77.6222 94.912 76.5875 94.912C76.0755 94.912 75.6168 95.1467 75.2115 95.616C74.8062 96.0747 74.6035 96.7253 74.6035 97.568V102H73.3555V93.888H74.6035ZM90.4195 102V93.888H91.6835V102H90.4195ZM90.4515 91.936C90.3022 91.776 90.2275 91.5787 90.2275 91.344C90.2275 91.1093 90.3022 90.912 90.4515 90.752C90.6115 90.592 90.8088 90.512 91.0435 90.512C91.2782 90.512 91.4755 90.592 91.6355 90.752C91.7955 90.912 91.8755 91.1093 91.8755 91.344C91.8755 91.5787 91.7955 91.776 91.6355 91.936C91.4755 92.0853 91.2782 92.16 91.0435 92.16C90.8088 92.16 90.6115 92.0853 90.4515 91.936ZM97.6579 100.976C98.3405 100.976 98.9005 100.709 99.3379 100.176C99.7752 99.632 99.9939 98.864 99.9939 97.872C99.9939 96.9867 99.7805 96.272 99.3539 95.728C98.9272 95.184 98.3885 94.912 97.7379 94.912C97.0872 94.912 96.5219 95.152 96.0419 95.632C95.5725 96.1013 95.3379 96.8747 95.3379 97.952C95.3379 98.9867 95.5779 99.7493 96.0579 100.24C96.5379 100.731 97.0712 100.976 97.6579 100.976ZM95.3379 93.888V95.12C95.9032 94.2133 96.7405 93.76 97.8499 93.76C98.9272 93.76 99.7699 94.1547 100.378 94.944C100.997 95.7227 101.306 96.6987 101.306 97.872C101.306 99.12 100.981 100.144 100.33 100.944C99.6899 101.733 98.8525 102.128 97.8179 102.128C96.7512 102.128 95.9245 101.675 95.3379 100.768V105.152H94.0899V93.888H95.3379ZM107.584 94.16V95.36C107.093 95.0613 106.421 94.912 105.568 94.912C105.141 94.912 104.8 95.0133 104.544 95.216C104.299 95.408 104.176 95.6587 104.176 95.968C104.176 96.16 104.213 96.3307 104.288 96.48C104.363 96.6187 104.507 96.7573 104.72 96.896C104.944 97.0347 105.104 97.1307 105.2 97.184C105.307 97.2267 105.531 97.3227 105.872 97.472C106.555 97.7493 107.088 98.064 107.472 98.416C107.856 98.768 108.048 99.2427 108.048 99.84C108.048 100.533 107.803 101.083 107.312 101.488C106.832 101.893 106.171 102.096 105.328 102.096C104.347 102.096 103.552 101.931 102.944 101.6V100.368C103.659 100.795 104.427 101.008 105.248 101.008C105.739 101.008 106.112 100.912 106.368 100.72C106.624 100.528 106.752 100.267 106.752 99.936C106.752 99.552 106.608 99.2533 106.32 99.04C106.043 98.8267 105.573 98.5867 104.912 98.32C104.304 98.0853 103.813 97.792 103.44 97.44C103.077 97.088 102.896 96.6133 102.896 96.016C102.896 95.344 103.147 94.8107 103.648 94.416C104.16 94.0107 104.795 93.808 105.552 93.808C106.395 93.808 107.072 93.9253 107.584 94.16ZM114.802 93.888H116.066V102H114.802V100.592C114.375 101.595 113.527 102.096 112.258 102.096C111.458 102.096 110.823 101.861 110.354 101.392C109.895 100.912 109.666 100.272 109.666 99.472V93.888H110.93V99.152C110.93 99.7387 111.079 100.187 111.378 100.496C111.676 100.805 112.082 100.96 112.594 100.96C113.266 100.96 113.799 100.725 114.194 100.256C114.599 99.7867 114.802 99.152 114.802 98.352V93.888ZM119.65 93.888V95.2C120.098 94.2507 120.861 93.776 121.938 93.776C123.186 93.776 123.976 94.304 124.306 95.36C124.541 94.848 124.866 94.4587 125.282 94.192C125.709 93.9147 126.184 93.776 126.706 93.776C127.549 93.776 128.184 94.016 128.61 94.496C129.037 94.976 129.25 95.6213 129.25 96.432V102H127.986V96.752C127.986 95.5253 127.469 94.912 126.434 94.912C125.922 94.912 125.464 95.1467 125.058 95.616C124.653 96.0747 124.45 96.7253 124.45 97.568V102H123.186V96.752C123.186 95.5253 122.669 94.912 121.634 94.912C121.122 94.912 120.664 95.1467 120.258 95.616C119.853 96.0747 119.65 96.7253 119.65 97.568V102H118.402V93.888H119.65ZM138.49 100.976C139.152 100.976 139.712 100.731 140.17 100.24C140.64 99.7493 140.874 98.9653 140.874 97.888C140.874 96.864 140.634 96.112 140.154 95.632C139.674 95.152 139.146 94.912 138.57 94.912C137.898 94.912 137.338 95.184 136.89 95.728C136.453 96.2613 136.234 97.0293 136.234 98.032C136.234 98.9067 136.448 99.616 136.874 100.16C137.301 100.704 137.84 100.976 138.49 100.976ZM140.874 90.688H142.138V102H140.874V100.8C140.298 101.685 139.466 102.128 138.378 102.128C137.301 102.128 136.453 101.728 135.834 100.928C135.226 100.128 134.922 99.1573 134.922 98.016C134.922 96.7467 135.248 95.7227 135.898 94.944C136.549 94.1547 137.386 93.76 138.41 93.76C139.466 93.76 140.288 94.2133 140.874 95.12V90.688ZM147.777 102.144C146.614 102.144 145.691 101.755 145.009 100.976C144.337 100.187 144.001 99.1947 144.001 98C144.001 96.7947 144.347 95.792 145.041 94.992C145.745 94.1813 146.657 93.776 147.777 93.776C149.003 93.776 149.947 94.1707 150.609 94.96C151.281 95.7493 151.617 96.752 151.617 97.968C151.617 99.1733 151.275 100.171 150.593 100.96C149.91 101.749 148.971 102.144 147.777 102.144ZM147.777 94.896C147.009 94.896 146.406 95.1947 145.969 95.792C145.531 96.3893 145.312 97.12 145.312 97.984C145.312 98.8267 145.537 99.5467 145.985 100.144C146.433 100.731 147.03 101.024 147.777 101.024C148.587 101.024 149.211 100.736 149.649 100.16C150.086 99.5733 150.305 98.848 150.305 97.984C150.305 97.088 150.097 96.352 149.681 95.776C149.265 95.1893 148.63 94.896 147.777 94.896ZM153.529 102V90.688H154.793V102H153.529ZM160.495 102.144C159.333 102.144 158.41 101.755 157.727 100.976C157.055 100.187 156.719 99.1947 156.719 98C156.719 96.7947 157.066 95.792 157.759 94.992C158.463 94.1813 159.375 93.776 160.495 93.776C161.722 93.776 162.666 94.1707 163.327 94.96C163.999 95.7493 164.335 96.752 164.335 97.968C164.335 99.1733 163.994 100.171 163.311 100.96C162.629 101.749 161.69 102.144 160.495 102.144ZM160.495 94.896C159.727 94.896 159.125 95.1947 158.687 95.792C158.25 96.3893 158.031 97.12 158.031 97.984C158.031 98.8267 158.255 99.5467 158.703 100.144C159.151 100.731 159.749 101.024 160.495 101.024C161.306 101.024 161.93 100.736 162.367 100.16C162.805 99.5733 163.023 98.848 163.023 97.984C163.023 97.088 162.815 96.352 162.399 95.776C161.983 95.1893 161.349 94.896 160.495 94.896ZM167.432 93.888V95.312C167.858 94.3093 168.594 93.808 169.64 93.808C169.832 93.808 169.981 93.8187 170.088 93.84V95.088C169.864 95.0133 169.634 94.976 169.4 94.976C168.834 94.976 168.365 95.2373 167.992 95.76C167.618 96.2827 167.432 96.8853 167.432 97.568V102H166.168L166.184 93.888H167.432ZM179.725 94.16V95.36C179.234 95.0613 178.562 94.912 177.709 94.912C177.282 94.912 176.941 95.0133 176.685 95.216C176.439 95.408 176.317 95.6587 176.317 95.968C176.317 96.16 176.354 96.3307 176.429 96.48C176.503 96.6187 176.647 96.7573 176.861 96.896C177.085 97.0347 177.245 97.1307 177.341 97.184C177.447 97.2267 177.671 97.3227 178.013 97.472C178.695 97.7493 179.229 98.064 179.613 98.416C179.997 98.768 180.189 99.2427 180.189 99.84C180.189 100.533 179.943 101.083 179.453 101.488C178.973 101.893 178.311 102.096 177.469 102.096C176.487 102.096 175.693 101.931 175.085 101.6V100.368C175.799 100.795 176.567 101.008 177.389 101.008C177.879 101.008 178.253 100.912 178.509 100.72C178.765 100.528 178.893 100.267 178.893 99.936C178.893 99.552 178.749 99.2533 178.461 99.04C178.183 98.8267 177.714 98.5867 177.053 98.32C176.445 98.0853 175.954 97.792 175.581 97.44C175.218 97.088 175.037 96.6133 175.037 96.016C175.037 95.344 175.287 94.8107 175.789 94.416C176.301 94.0107 176.935 93.808 177.693 93.808C178.535 93.808 179.213 93.9253 179.725 94.16ZM181.966 102V93.888H183.23V102H181.966ZM181.998 91.936C181.849 91.776 181.774 91.5787 181.774 91.344C181.774 91.1093 181.849 90.912 181.998 90.752C182.158 90.592 182.356 90.512 182.59 90.512C182.825 90.512 183.022 90.592 183.182 90.752C183.342 90.912 183.422 91.1093 183.422 91.344C183.422 91.5787 183.342 91.776 183.182 91.936C183.022 92.0853 182.825 92.16 182.59 92.16C182.356 92.16 182.158 92.0853 181.998 91.936ZM187.381 94.912V99.664C187.381 100.528 187.786 100.96 188.597 100.96C189.013 100.96 189.381 100.837 189.701 100.592V101.792C189.349 101.984 188.954 102.08 188.517 102.08C186.917 102.08 186.117 101.264 186.117 99.632V94.912H184.821V93.888H186.117V91.872H187.381V93.888H189.621V94.912H187.381ZM199.817 98.256H198.409C197.727 98.256 197.215 98.3893 196.873 98.656C196.532 98.9227 196.361 99.2587 196.361 99.664C196.361 100.069 196.495 100.4 196.761 100.656C197.028 100.901 197.417 101.024 197.929 101.024C198.505 101.024 198.964 100.864 199.305 100.544C199.647 100.213 199.817 99.7973 199.817 99.296V98.256ZM195.625 95.584V94.32C196.233 93.9467 197.033 93.76 198.025 93.76C200.063 93.76 201.081 94.7947 201.081 96.864V102H199.833V101.04C199.417 101.733 198.66 102.08 197.561 102.08C196.804 102.08 196.191 101.856 195.721 101.408C195.263 100.96 195.033 100.395 195.033 99.712C195.033 98.9333 195.327 98.3307 195.913 97.904C196.511 97.4667 197.321 97.248 198.345 97.248H199.817V96.832C199.817 96.192 199.673 95.712 199.385 95.392C199.097 95.0613 198.612 94.896 197.929 94.896C197.065 94.896 196.297 95.1253 195.625 95.584ZM204.572 93.888V95.2C205.02 94.2507 205.783 93.776 206.86 93.776C208.108 93.776 208.898 94.304 209.228 95.36C209.463 94.848 209.788 94.4587 210.204 94.192C210.631 93.9147 211.106 93.776 211.628 93.776C212.471 93.776 213.106 94.016 213.532 94.496C213.959 94.976 214.172 95.6213 214.172 96.432V102H212.908V96.752C212.908 95.5253 212.391 94.912 211.356 94.912C210.844 94.912 210.386 95.1467 209.98 95.616C209.575 96.0747 209.372 96.7253 209.372 97.568V102H208.108V96.752C208.108 95.5253 207.591 94.912 206.556 94.912C206.044 94.912 205.586 95.1467 205.18 95.616C204.775 96.0747 204.572 96.7253 204.572 97.568V102H203.324V93.888H204.572ZM221.586 97.424V97.104C221.586 96.432 221.405 95.8987 221.042 95.504C220.679 95.0987 220.178 94.896 219.538 94.896C218.93 94.896 218.413 95.1147 217.986 95.552C217.559 95.9893 217.309 96.6133 217.234 97.424H221.586ZM222.338 100.4V101.584C221.709 101.915 220.941 102.08 220.034 102.08C218.807 102.08 217.815 101.707 217.058 100.96C216.311 100.203 215.938 99.2053 215.938 97.968C215.938 96.6773 216.274 95.6587 216.946 94.912C217.618 94.1653 218.482 93.792 219.538 93.792C220.551 93.792 221.357 94.1173 221.954 94.768C222.551 95.4187 222.85 96.3413 222.85 97.536C222.85 97.8773 222.823 98.192 222.77 98.48H217.234C217.33 99.28 217.634 99.8933 218.146 100.32C218.658 100.747 219.33 100.96 220.162 100.96C221.069 100.96 221.794 100.773 222.338 100.4ZM226.521 94.912V99.664C226.521 100.528 226.927 100.96 227.737 100.96C228.153 100.96 228.521 100.837 228.841 100.592V101.792C228.489 101.984 228.095 102.08 227.657 102.08C226.057 102.08 225.257 101.264 225.257 99.632V94.912H223.961V93.888H225.257V91.872H226.521V93.888H228.761V94.912H226.521ZM229.388 103.968L230.876 100.384H232.556L230.492 103.968H229.388ZM239.016 97.984C239.026 98.8587 239.293 99.5893 239.816 100.176C240.338 100.752 241.08 101.04 242.04 101.04C242.658 101.04 243.234 100.864 243.768 100.512V101.712C243.256 102.021 242.626 102.176 241.88 102.176C240.6 102.176 239.581 101.771 238.824 100.96C238.077 100.139 237.704 99.1413 237.704 97.968C237.704 96.816 238.077 95.824 238.824 94.992C239.581 94.16 240.61 93.744 241.912 93.744C242.605 93.744 243.224 93.8933 243.768 94.192V95.392C243.277 95.0613 242.701 94.896 242.04 94.896C241.122 94.896 240.386 95.1947 239.832 95.792C239.288 96.3787 239.016 97.1093 239.016 97.984ZM249.011 102.144C247.848 102.144 246.926 101.755 246.243 100.976C245.571 100.187 245.235 99.1947 245.235 98C245.235 96.7947 245.582 95.792 246.275 94.992C246.979 94.1813 247.891 93.776 249.011 93.776C250.238 93.776 251.182 94.1707 251.843 94.96C252.515 95.7493 252.851 96.752 252.851 97.968C252.851 99.1733 252.51 100.171 251.827 100.96C251.144 101.749 250.206 102.144 249.011 102.144ZM249.011 94.896C248.243 94.896 247.64 95.1947 247.203 95.792C246.766 96.3893 246.547 97.12 246.547 97.984C246.547 98.8267 246.771 99.5467 247.219 100.144C247.667 100.731 248.264 101.024 249.011 101.024C249.822 101.024 250.446 100.736 250.883 100.16C251.32 99.5733 251.539 98.848 251.539 97.984C251.539 97.088 251.331 96.352 250.915 95.776C250.499 95.1893 249.864 94.896 249.011 94.896ZM255.947 93.888V95.296C256.427 94.2827 257.281 93.776 258.507 93.776C259.297 93.776 259.926 94.016 260.395 94.496C260.865 94.976 261.099 95.616 261.099 96.416V102H259.835V96.752C259.835 96.1547 259.681 95.7013 259.371 95.392C259.073 95.072 258.678 94.912 258.187 94.912C257.579 94.912 257.051 95.1467 256.603 95.616C256.166 96.0853 255.947 96.736 255.947 97.568V102H254.699V93.888H255.947ZM267.756 94.16V95.36C267.265 95.0613 266.593 94.912 265.74 94.912C265.313 94.912 264.972 95.0133 264.716 95.216C264.471 95.408 264.348 95.6587 264.348 95.968C264.348 96.16 264.385 96.3307 264.46 96.48C264.535 96.6187 264.679 96.7573 264.892 96.896C265.116 97.0347 265.276 97.1307 265.372 97.184C265.479 97.2267 265.703 97.3227 266.044 97.472C266.727 97.7493 267.26 98.064 267.644 98.416C268.028 98.768 268.22 99.2427 268.22 99.84C268.22 100.533 267.975 101.083 267.484 101.488C267.004 101.893 266.343 102.096 265.5 102.096C264.519 102.096 263.724 101.931 263.116 101.6V100.368C263.831 100.795 264.599 101.008 265.42 101.008C265.911 101.008 266.284 100.912 266.54 100.72C266.796 100.528 266.924 100.267 266.924 99.936C266.924 99.552 266.78 99.2533 266.492 99.04C266.215 98.8267 265.745 98.5867 265.084 98.32C264.476 98.0853 263.985 97.792 263.612 97.44C263.249 97.088 263.068 96.6133 263.068 96.016C263.068 95.344 263.319 94.8107 263.82 94.416C264.332 94.0107 264.967 93.808 265.724 93.808C266.567 93.808 267.244 93.9253 267.756 94.16ZM275.102 97.424V97.104C275.102 96.432 274.92 95.8987 274.558 95.504C274.195 95.0987 273.694 94.896 273.054 94.896C272.446 94.896 271.928 95.1147 271.502 95.552C271.075 95.9893 270.824 96.6133 270.75 97.424H275.102ZM275.854 100.4V101.584C275.224 101.915 274.456 102.08 273.55 102.08C272.323 102.08 271.331 101.707 270.574 100.96C269.827 100.203 269.454 99.2053 269.454 97.968C269.454 96.6773 269.79 95.6587 270.462 94.912C271.134 94.1653 271.998 93.792 273.054 93.792C274.067 93.792 274.872 94.1173 275.47 94.768C276.067 95.4187 276.366 96.3413 276.366 97.536C276.366 97.8773 276.339 98.192 276.286 98.48H270.75C270.846 99.28 271.15 99.8933 271.662 100.32C272.174 100.747 272.846 100.96 273.678 100.96C274.584 100.96 275.31 100.773 275.854 100.4ZM279.125 97.984C279.136 98.8587 279.402 99.5893 279.925 100.176C280.448 100.752 281.189 101.04 282.149 101.04C282.768 101.04 283.344 100.864 283.877 100.512V101.712C283.365 102.021 282.736 102.176 281.989 102.176C280.709 102.176 279.69 101.771 278.933 100.96C278.186 100.139 277.813 99.1413 277.813 97.968C277.813 96.816 278.186 95.824 278.933 94.992C279.69 94.16 280.72 93.744 282.021 93.744C282.714 93.744 283.333 93.8933 283.877 94.192V95.392C283.386 95.0613 282.81 94.896 282.149 94.896C281.232 94.896 280.496 95.1947 279.941 95.792C279.397 96.3787 279.125 97.1093 279.125 97.984ZM287.568 94.912V99.664C287.568 100.528 287.974 100.96 288.784 100.96C289.2 100.96 289.568 100.837 289.888 100.592V101.792C289.536 101.984 289.142 102.08 288.704 102.08C287.104 102.08 286.304 101.264 286.304 99.632V94.912H285.008V93.888H286.304V91.872H287.568V93.888H289.808V94.912H287.568ZM296.899 97.424V97.104C296.899 96.432 296.717 95.8987 296.355 95.504C295.992 95.0987 295.491 94.896 294.851 94.896C294.243 94.896 293.725 95.1147 293.299 95.552C292.872 95.9893 292.621 96.6133 292.547 97.424H296.899ZM297.651 100.4V101.584C297.021 101.915 296.253 102.08 295.347 102.08C294.12 102.08 293.128 101.707 292.371 100.96C291.624 100.203 291.251 99.2053 291.251 97.968C291.251 96.6773 291.587 95.6587 292.259 94.912C292.931 94.1653 293.795 93.792 294.851 93.792C295.864 93.792 296.669 94.1173 297.267 94.768C297.864 95.4187 298.163 96.3413 298.163 97.536C298.163 97.8773 298.136 98.192 298.083 98.48H292.547C292.643 99.28 292.947 99.8933 293.459 100.32C293.971 100.747 294.643 100.96 295.475 100.96C296.381 100.96 297.107 100.773 297.651 100.4ZM301.834 94.912V99.664C301.834 100.528 302.239 100.96 303.05 100.96C303.466 100.96 303.834 100.837 304.154 100.592V101.792C303.802 101.984 303.407 102.08 302.97 102.08C301.37 102.08 300.57 101.264 300.57 99.632V94.912H299.274V93.888H300.57V91.872H301.834V93.888H304.074V94.912H301.834ZM311.036 93.888H312.3V102H311.036V100.592C310.609 101.595 309.761 102.096 308.492 102.096C307.692 102.096 307.057 101.861 306.588 101.392C306.129 100.912 305.9 100.272 305.9 99.472V93.888H307.164V99.152C307.164 99.7387 307.313 100.187 307.612 100.496C307.911 100.805 308.316 100.96 308.828 100.96C309.5 100.96 310.033 100.725 310.428 100.256C310.833 99.7867 311.036 99.152 311.036 98.352V93.888ZM315.885 93.888V95.312C316.311 94.3093 317.047 93.808 318.093 93.808C318.285 93.808 318.434 93.8187 318.541 93.84V95.088C318.317 95.0133 318.087 94.976 317.853 94.976C317.287 94.976 316.818 95.2373 316.445 95.76C316.071 96.2827 315.885 96.8853 315.885 97.568V102H314.621L314.637 93.888H315.885ZM328.13 98.256H326.722C326.039 98.256 325.527 98.3893 325.186 98.656C324.844 98.9227 324.674 99.2587 324.674 99.664C324.674 100.069 324.807 100.4 325.074 100.656C325.34 100.901 325.73 101.024 326.242 101.024C326.818 101.024 327.276 100.864 327.618 100.544C327.959 100.213 328.13 99.7973 328.13 99.296V98.256ZM323.938 95.584V94.32C324.546 93.9467 325.346 93.76 326.338 93.76C328.375 93.76 329.394 94.7947 329.394 96.864V102H328.146V101.04C327.73 101.733 326.972 102.08 325.874 102.08C325.116 102.08 324.503 101.856 324.034 101.408C323.575 100.96 323.346 100.395 323.346 99.712C323.346 98.9333 323.639 98.3307 324.226 97.904C324.823 97.4667 325.634 97.248 326.658 97.248H328.13V96.832C328.13 96.192 327.986 95.712 327.698 95.392C327.41 95.0613 326.924 94.896 326.242 94.896C325.378 94.896 324.61 95.1253 323.938 95.584ZM334.725 100.976C335.386 100.976 335.946 100.731 336.405 100.24C336.874 99.7493 337.109 98.9653 337.109 97.888C337.109 96.864 336.869 96.112 336.389 95.632C335.909 95.152 335.381 94.912 334.805 94.912C334.133 94.912 333.573 95.184 333.125 95.728C332.687 96.2613 332.469 97.0293 332.469 98.032C332.469 98.9067 332.682 99.616 333.109 100.16C333.535 100.704 334.074 100.976 334.725 100.976ZM337.109 90.688H338.373V102H337.109V100.8C336.533 101.685 335.701 102.128 334.613 102.128C333.535 102.128 332.687 101.728 332.069 100.928C331.461 100.128 331.157 99.1573 331.157 98.016C331.157 96.7467 331.482 95.7227 332.133 94.944C332.783 94.1547 333.621 93.76 334.645 93.76C335.701 93.76 336.522 94.2133 337.109 95.12V90.688ZM340.779 102V93.888H342.043V102H340.779ZM340.811 91.936C340.662 91.776 340.587 91.5787 340.587 91.344C340.587 91.1093 340.662 90.912 340.811 90.752C340.971 90.592 341.168 90.512 341.403 90.512C341.638 90.512 341.835 90.592 341.995 90.752C342.155 90.912 342.235 91.1093 342.235 91.344C342.235 91.5787 342.155 91.776 341.995 91.936C341.835 92.0853 341.638 92.16 341.403 92.16C341.168 92.16 340.971 92.0853 340.811 91.936ZM348.017 100.976C348.7 100.976 349.26 100.709 349.697 100.176C350.135 99.632 350.353 98.864 350.353 97.872C350.353 96.9867 350.14 96.272 349.713 95.728C349.287 95.184 348.748 94.912 348.097 94.912C347.447 94.912 346.881 95.152 346.401 95.632C345.932 96.1013 345.697 96.8747 345.697 97.952C345.697 98.9867 345.937 99.7493 346.417 100.24C346.897 100.731 347.431 100.976 348.017 100.976ZM345.697 93.888V95.12C346.263 94.2133 347.1 93.76 348.209 93.76C349.287 93.76 350.129 94.1547 350.737 94.944C351.356 95.7227 351.665 96.6987 351.665 97.872C351.665 99.12 351.34 100.144 350.689 100.944C350.049 101.733 349.212 102.128 348.177 102.128C347.111 102.128 346.284 101.675 345.697 100.768V105.152H344.449V93.888H345.697ZM353.591 102V93.888H354.855V102H353.591ZM353.623 91.936C353.474 91.776 353.399 91.5787 353.399 91.344C353.399 91.1093 353.474 90.912 353.623 90.752C353.783 90.592 353.981 90.512 354.215 90.512C354.45 90.512 354.647 90.592 354.807 90.752C354.967 90.912 355.047 91.1093 355.047 91.344C355.047 91.5787 354.967 91.776 354.807 91.936C354.647 92.0853 354.45 92.16 354.215 92.16C353.981 92.16 353.783 92.0853 353.623 91.936ZM361.678 94.16V95.36C361.187 95.0613 360.515 94.912 359.662 94.912C359.235 94.912 358.894 95.0133 358.638 95.216C358.392 95.408 358.27 95.6587 358.27 95.968C358.27 96.16 358.307 96.3307 358.382 96.48C358.456 96.6187 358.6 96.7573 358.814 96.896C359.038 97.0347 359.198 97.1307 359.294 97.184C359.4 97.2267 359.624 97.3227 359.966 97.472C360.648 97.7493 361.182 98.064 361.566 98.416C361.95 98.768 362.142 99.2427 362.142 99.84C362.142 100.533 361.896 101.083 361.406 101.488C360.926 101.893 360.264 102.096 359.422 102.096C358.44 102.096 357.646 101.931 357.038 101.6V100.368C357.752 100.795 358.52 101.008 359.342 101.008C359.832 101.008 360.206 100.912 360.462 100.72C360.718 100.528 360.846 100.267 360.846 99.936C360.846 99.552 360.702 99.2533 360.414 99.04C360.136 98.8267 359.667 98.5867 359.006 98.32C358.398 98.0853 357.907 97.792 357.534 97.44C357.171 97.088 356.99 96.6133 356.99 96.016C356.99 95.344 357.24 94.8107 357.742 94.416C358.254 94.0107 358.888 93.808 359.646 93.808C360.488 93.808 361.166 93.9253 361.678 94.16ZM364.688 97.984C364.698 98.8587 364.965 99.5893 365.488 100.176C366.01 100.752 366.752 101.04 367.712 101.04C368.33 101.04 368.906 100.864 369.44 100.512V101.712C368.928 102.021 368.298 102.176 367.552 102.176C366.272 102.176 365.253 101.771 364.496 100.96C363.749 100.139 363.376 99.1413 363.376 97.968C363.376 96.816 363.749 95.824 364.496 94.992C365.253 94.16 366.282 93.744 367.584 93.744C368.277 93.744 368.896 93.8933 369.44 94.192V95.392C368.949 95.0613 368.373 94.896 367.712 94.896C366.794 94.896 366.058 95.1947 365.504 95.792C364.96 96.3787 364.688 97.1093 364.688 97.984ZM371.451 102V93.888H372.715V102H371.451ZM371.483 91.936C371.333 91.776 371.259 91.5787 371.259 91.344C371.259 91.1093 371.333 90.912 371.483 90.752C371.643 90.592 371.84 90.512 372.075 90.512C372.309 90.512 372.507 90.592 372.667 90.752C372.827 90.912 372.907 91.1093 372.907 91.344C372.907 91.5787 372.827 91.776 372.667 91.936C372.507 92.0853 372.309 92.16 372.075 92.16C371.84 92.16 371.643 92.0853 371.483 91.936ZM376.369 93.888V95.296C376.849 94.2827 377.702 93.776 378.929 93.776C379.718 93.776 380.348 94.016 380.817 94.496C381.286 94.976 381.521 95.616 381.521 96.416V102H380.257V96.752C380.257 96.1547 380.102 95.7013 379.793 95.392C379.494 95.072 379.1 94.912 378.609 94.912C378.001 94.912 377.473 95.1467 377.025 95.616C376.588 96.0853 376.369 96.736 376.369 97.568V102H375.121V93.888H376.369ZM386.802 100.672C387.388 100.672 387.906 100.448 388.354 100C388.812 99.5413 389.042 98.864 389.042 97.968C389.042 96.9333 388.823 96.1653 388.386 95.664C387.948 95.1627 387.442 94.912 386.866 94.912C386.172 94.912 385.623 95.1893 385.218 95.744C384.812 96.288 384.61 97.0027 384.61 97.888C384.61 98.7947 384.834 99.488 385.282 99.968C385.73 100.437 386.236 100.672 386.802 100.672ZM389.042 93.888H390.306V101.344C390.306 102.581 389.964 103.509 389.282 104.128C388.599 104.757 387.719 105.072 386.642 105.072C385.66 105.072 384.823 104.907 384.13 104.576V103.312C384.812 103.707 385.612 103.904 386.53 103.904C387.308 103.904 387.922 103.696 388.37 103.28C388.818 102.864 389.042 102.213 389.042 101.328V100.416C388.508 101.333 387.714 101.792 386.658 101.792C385.73 101.792 384.935 101.451 384.274 100.768C383.623 100.085 383.298 99.136 383.298 97.92C383.298 96.7147 383.602 95.7227 384.21 94.944C384.818 94.1653 385.612 93.776 386.594 93.776C387.703 93.776 388.519 94.2613 389.042 95.232V93.888ZM401.617 97.424V97.104C401.617 96.432 401.436 95.8987 401.073 95.504C400.711 95.0987 400.209 94.896 399.569 94.896C398.961 94.896 398.444 95.1147 398.017 95.552C397.591 95.9893 397.34 96.6133 397.265 97.424H401.617ZM402.369 100.4V101.584C401.74 101.915 400.972 102.08 400.065 102.08C398.839 102.08 397.847 101.707 397.089 100.96C396.343 100.203 395.969 99.2053 395.969 97.968C395.969 96.6773 396.305 95.6587 396.977 94.912C397.649 94.1653 398.513 93.792 399.569 93.792C400.583 93.792 401.388 94.1173 401.985 94.768C402.583 95.4187 402.881 96.3413 402.881 97.536C402.881 97.8773 402.855 98.192 402.801 98.48H397.265C397.361 99.28 397.665 99.8933 398.177 100.32C398.689 100.747 399.361 100.96 400.193 100.96C401.1 100.96 401.825 100.773 402.369 100.4ZM404.873 102V90.688H406.137V102H404.873ZM408.607 102V93.888H409.871V102H408.607ZM408.639 91.936C408.49 91.776 408.415 91.5787 408.415 91.344C408.415 91.1093 408.49 90.912 408.639 90.752C408.799 90.592 408.996 90.512 409.231 90.512C409.466 90.512 409.663 90.592 409.823 90.752C409.983 90.912 410.063 91.1093 410.063 91.344C410.063 91.5787 409.983 91.776 409.823 91.936C409.663 92.0853 409.466 92.16 409.231 92.16C408.996 92.16 408.799 92.0853 408.639 91.936ZM414.021 94.912V99.664C414.021 100.528 414.427 100.96 415.237 100.96C415.653 100.96 416.021 100.837 416.341 100.592V101.792C415.989 101.984 415.595 102.08 415.157 102.08C413.557 102.08 412.757 101.264 412.757 99.632V94.912H411.461V93.888H412.757V91.872H414.021V93.888H416.261V94.912H414.021ZM417.672 101.856C417.49 101.675 417.4 101.451 417.4 101.184C417.4 100.917 417.49 100.693 417.672 100.512C417.853 100.331 418.077 100.24 418.344 100.24C418.61 100.24 418.834 100.331 419.016 100.512C419.197 100.693 419.288 100.917 419.288 101.184C419.288 101.451 419.197 101.675 419.016 101.856C418.834 102.037 418.61 102.128 418.344 102.128C418.077 102.128 417.853 102.037 417.672 101.856ZM424.81 102V91.216H426.442L429.146 95.76L431.882 100.432C431.839 99.3973 431.818 97.8453 431.818 95.776V91.216H433.114V102H431.482L428.778 97.488C428.234 96.5813 427.733 95.7387 427.274 94.96C426.815 94.1707 426.49 93.6053 426.298 93.264L426.026 92.768C426.079 93.8773 426.106 95.44 426.106 97.456V102H424.81ZM440.552 93.888H441.816V102H440.552V100.592C440.125 101.595 439.277 102.096 438.008 102.096C437.208 102.096 436.573 101.861 436.104 101.392C435.645 100.912 435.416 100.272 435.416 99.472V93.888H436.68V99.152C436.68 99.7387 436.829 100.187 437.128 100.496C437.426 100.805 437.832 100.96 438.344 100.96C439.016 100.96 439.549 100.725 439.944 100.256C440.349 99.7867 440.552 99.152 440.552 98.352V93.888ZM445.4 93.888V95.296C445.88 94.2827 446.734 93.776 447.96 93.776C448.75 93.776 449.379 94.016 449.848 94.496C450.318 94.976 450.552 95.616 450.552 96.416V102H449.288V96.752C449.288 96.1547 449.134 95.7013 448.824 95.392C448.526 95.072 448.131 94.912 447.64 94.912C447.032 94.912 446.504 95.1467 446.056 95.616C445.619 96.0853 445.4 96.736 445.4 97.568V102H444.152V93.888H445.4ZM453.625 97.984C453.636 98.8587 453.902 99.5893 454.425 100.176C454.948 100.752 455.689 101.04 456.649 101.04C457.268 101.04 457.844 100.864 458.377 100.512V101.712C457.865 102.021 457.236 102.176 456.489 102.176C455.209 102.176 454.19 101.771 453.433 100.96C452.686 100.139 452.313 99.1413 452.313 97.968C452.313 96.816 452.686 95.824 453.433 94.992C454.19 94.16 455.22 93.744 456.521 93.744C457.214 93.744 457.833 93.8933 458.377 94.192V95.392C457.886 95.0613 457.31 94.896 456.649 94.896C455.732 94.896 454.996 95.1947 454.441 95.792C453.897 96.3787 453.625 97.1093 453.625 97.984ZM466.295 102L463.463 93.888H464.775L465.895 97.312L467.079 101.008C467.175 100.549 467.575 99.3173 468.279 97.312L469.431 93.888H470.743L467.847 102H466.295ZM477.349 93.888H478.613V102H477.349V100.592C476.922 101.595 476.074 102.096 474.805 102.096C474.005 102.096 473.37 101.861 472.901 101.392C472.442 100.912 472.213 100.272 472.213 99.472V93.888H473.477V99.152C473.477 99.7387 473.626 100.187 473.925 100.496C474.223 100.805 474.629 100.96 475.141 100.96C475.813 100.96 476.346 100.725 476.741 100.256C477.146 99.7867 477.349 99.152 477.349 98.352V93.888ZM481.013 102V90.688H482.277V102H481.013ZM488.252 100.976C488.934 100.976 489.494 100.709 489.932 100.176C490.369 99.632 490.588 98.864 490.588 97.872C490.588 96.9867 490.374 96.272 489.948 95.728C489.521 95.184 488.982 94.912 488.332 94.912C487.681 94.912 487.116 95.152 486.636 95.632C486.166 96.1013 485.932 96.8747 485.932 97.952C485.932 98.9867 486.172 99.7493 486.652 100.24C487.132 100.731 487.665 100.976 488.252 100.976ZM485.932 93.888V95.12C486.497 94.2133 487.334 93.76 488.444 93.76C489.521 93.76 490.364 94.1547 490.972 94.944C491.59 95.7227 491.9 96.6987 491.9 97.872C491.9 99.12 491.574 100.144 490.924 100.944C490.284 101.733 489.446 102.128 488.412 102.128C487.345 102.128 486.518 101.675 485.932 100.768V105.152H484.684V93.888H485.932ZM498.802 93.888H500.066V102H498.802V100.592C498.375 101.595 497.527 102.096 496.258 102.096C495.458 102.096 494.823 101.861 494.354 101.392C493.895 100.912 493.666 100.272 493.666 99.472V93.888H494.93V99.152C494.93 99.7387 495.079 100.187 495.378 100.496C495.676 100.805 496.082 100.96 496.594 100.96C497.266 100.96 497.799 100.725 498.194 100.256C498.599 99.7867 498.802 99.152 498.802 98.352V93.888ZM504.146 94.912V99.664C504.146 100.528 504.552 100.96 505.362 100.96C505.778 100.96 506.146 100.837 506.466 100.592V101.792C506.114 101.984 505.72 102.08 505.282 102.08C503.682 102.08 502.882 101.264 502.882 99.632V94.912H501.586V93.888H502.882V91.872H504.146V93.888H506.386V94.912H504.146ZM512.677 98.256H511.269C510.586 98.256 510.074 98.3893 509.733 98.656C509.391 98.9227 509.221 99.2587 509.221 99.664C509.221 100.069 509.354 100.4 509.621 100.656C509.887 100.901 510.277 101.024 510.789 101.024C511.365 101.024 511.823 100.864 512.165 100.544C512.506 100.213 512.677 99.7973 512.677 99.296V98.256ZM508.485 95.584V94.32C509.093 93.9467 509.893 93.76 510.885 93.76C512.922 93.76 513.941 94.7947 513.941 96.864V102H512.693V101.04C512.277 101.733 511.519 102.08 510.421 102.08C509.663 102.08 509.05 101.856 508.581 101.408C508.122 100.96 507.893 100.395 507.893 99.712C507.893 98.9333 508.186 98.3307 508.773 97.904C509.37 97.4667 510.181 97.248 511.205 97.248H512.677V96.832C512.677 96.192 512.533 95.712 512.245 95.392C511.957 95.0613 511.471 94.896 510.789 94.896C509.925 94.896 509.157 95.1253 508.485 95.584ZM517.928 94.912V99.664C517.928 100.528 518.333 100.96 519.144 100.96C519.56 100.96 519.928 100.837 520.248 100.592V101.792C519.896 101.984 519.501 102.08 519.064 102.08C517.464 102.08 516.664 101.264 516.664 99.632V94.912H515.368V93.888H516.664V91.872H517.928V93.888H520.168V94.912H517.928ZM527.258 97.424V97.104C527.258 96.432 527.077 95.8987 526.714 95.504C526.351 95.0987 525.85 94.896 525.21 94.896C524.602 94.896 524.085 95.1147 523.658 95.552C523.231 95.9893 522.981 96.6133 522.906 97.424H527.258ZM528.01 100.4V101.584C527.381 101.915 526.613 102.08 525.706 102.08C524.479 102.08 523.487 101.707 522.73 100.96C521.983 100.203 521.61 99.2053 521.61 97.968C521.61 96.6773 521.946 95.6587 522.618 94.912C523.29 94.1653 524.154 93.792 525.21 93.792C526.223 93.792 527.029 94.1173 527.626 94.768C528.223 95.4187 528.522 96.3413 528.522 97.536C528.522 97.8773 528.495 98.192 528.442 98.48H522.906C523.002 99.28 523.306 99.8933 523.818 100.32C524.33 100.747 525.002 100.96 525.834 100.96C526.741 100.96 527.466 100.773 528.01 100.4ZM534.42 102V90.688H535.684V102H534.42ZM538.154 102V93.888H539.418V102H538.154ZM538.186 91.936C538.037 91.776 537.962 91.5787 537.962 91.344C537.962 91.1093 538.037 90.912 538.186 90.752C538.346 90.592 538.543 90.512 538.778 90.512C539.013 90.512 539.21 90.592 539.37 90.752C539.53 90.912 539.61 91.1093 539.61 91.344C539.61 91.5787 539.53 91.776 539.37 91.936C539.21 92.0853 539.013 92.16 538.778 92.16C538.543 92.16 538.346 92.0853 538.186 91.936ZM545.52 100.976C546.171 100.976 546.71 100.704 547.136 100.16C547.563 99.616 547.776 98.9067 547.776 98.032C547.776 97.0293 547.552 96.2613 547.104 95.728C546.667 95.184 546.112 94.912 545.44 94.912C544.864 94.912 544.336 95.152 543.856 95.632C543.376 96.112 543.136 96.864 543.136 97.888C543.136 98.9653 543.366 99.7493 543.824 100.24C544.294 100.731 544.859 100.976 545.52 100.976ZM543.136 90.688V95.104C543.723 94.208 544.544 93.76 545.6 93.76C546.624 93.76 547.462 94.1547 548.112 94.944C548.763 95.7227 549.088 96.7467 549.088 98.016C549.088 99.1573 548.779 100.128 548.16 100.928C547.552 101.728 546.71 102.128 545.632 102.128C544.544 102.128 543.712 101.685 543.136 100.8V102H541.872V90.688H543.136ZM556.117 97.424V97.104C556.117 96.432 555.936 95.8987 555.573 95.504C555.211 95.0987 554.709 94.896 554.069 94.896C553.461 94.896 552.944 95.1147 552.517 95.552C552.091 95.9893 551.84 96.6133 551.765 97.424H556.117ZM556.869 100.4V101.584C556.24 101.915 555.472 102.08 554.565 102.08C553.339 102.08 552.347 101.707 551.589 100.96C550.843 100.203 550.469 99.2053 550.469 97.968C550.469 96.6773 550.805 95.6587 551.477 94.912C552.149 94.1653 553.013 93.792 554.069 93.792C555.083 93.792 555.888 94.1173 556.485 94.768C557.083 95.4187 557.381 96.3413 557.381 97.536C557.381 97.8773 557.355 98.192 557.301 98.48H551.765C551.861 99.28 552.165 99.8933 552.677 100.32C553.189 100.747 553.861 100.96 554.693 100.96C555.6 100.96 556.325 100.773 556.869 100.4ZM560.557 93.888V95.312C560.983 94.3093 561.719 93.808 562.765 93.808C562.957 93.808 563.106 93.8187 563.213 93.84V95.088C562.989 95.0133 562.759 94.976 562.525 94.976C561.959 94.976 561.49 95.2373 561.117 95.76C560.743 96.2827 560.557 96.8853 560.557 97.568V102H559.293L559.309 93.888H560.557ZM567.823 102.144C566.661 102.144 565.738 101.755 565.055 100.976C564.383 100.187 564.047 99.1947 564.047 98C564.047 96.7947 564.394 95.792 565.087 94.992C565.791 94.1813 566.703 93.776 567.823 93.776C569.05 93.776 569.994 94.1707 570.655 94.96C571.327 95.7493 571.663 96.752 571.663 97.968C571.663 99.1733 571.322 100.171 570.639 100.96C569.957 101.749 569.018 102.144 567.823 102.144ZM567.823 94.896C567.055 94.896 566.453 95.1947 566.015 95.792C565.578 96.3893 565.359 97.12 565.359 97.984C565.359 98.8267 565.583 99.5467 566.031 100.144C566.479 100.731 567.077 101.024 567.823 101.024C568.634 101.024 569.258 100.736 569.695 100.16C570.133 99.5733 570.351 98.848 570.351 97.984C570.351 97.088 570.143 96.352 569.727 95.776C569.311 95.1893 568.677 94.896 567.823 94.896ZM582.586 97.424V97.104C582.586 96.432 582.405 95.8987 582.042 95.504C581.679 95.0987 581.178 94.896 580.538 94.896C579.93 94.896 579.413 95.1147 578.986 95.552C578.559 95.9893 578.309 96.6133 578.234 97.424H582.586ZM583.338 100.4V101.584C582.709 101.915 581.941 102.08 581.034 102.08C579.807 102.08 578.815 101.707 578.058 100.96C577.311 100.203 576.938 99.2053 576.938 97.968C576.938 96.6773 577.274 95.6587 577.946 94.912C578.618 94.1653 579.482 93.792 580.538 93.792C581.551 93.792 582.357 94.1173 582.954 94.768C583.551 95.4187 583.85 96.3413 583.85 97.536C583.85 97.8773 583.823 98.192 583.77 98.48H578.234C578.33 99.28 578.634 99.8933 579.146 100.32C579.658 100.747 580.33 100.96 581.162 100.96C582.069 100.96 582.794 100.773 583.338 100.4ZM587.521 94.912V99.664C587.521 100.528 587.927 100.96 588.737 100.96C589.153 100.96 589.521 100.837 589.841 100.592V101.792C589.489 101.984 589.095 102.08 588.657 102.08C587.057 102.08 586.257 101.264 586.257 99.632V94.912H584.961V93.888H586.257V91.872H587.521V93.888H589.761V94.912H587.521ZM597.654 102L594.822 93.888H596.134L597.254 97.312L598.438 101.008C598.534 100.549 598.934 99.3173 599.638 97.312L600.79 93.888H602.102L599.206 102H597.654ZM608.836 97.424V97.104C608.836 96.432 608.655 95.8987 608.292 95.504C607.929 95.0987 607.428 94.896 606.788 94.896C606.18 94.896 605.663 95.1147 605.236 95.552C604.809 95.9893 604.559 96.6133 604.484 97.424H608.836ZM609.588 100.4V101.584C608.959 101.915 608.191 102.08 607.284 102.08C606.057 102.08 605.065 101.707 604.308 100.96C603.561 100.203 603.188 99.2053 603.188 97.968C603.188 96.6773 603.524 95.6587 604.196 94.912C604.868 94.1653 605.732 93.792 606.788 93.792C607.801 93.792 608.607 94.1173 609.204 94.768C609.801 95.4187 610.1 96.3413 610.1 97.536C610.1 97.8773 610.073 98.192 610.02 98.48H604.484C604.58 99.28 604.884 99.8933 605.396 100.32C605.908 100.747 606.58 100.96 607.412 100.96C608.319 100.96 609.044 100.773 609.588 100.4ZM612.091 102V90.688H613.355V102H612.091ZM615.826 102V93.888H617.09V102H615.826ZM615.858 91.936C615.708 91.776 615.634 91.5787 615.634 91.344C615.634 91.1093 615.708 90.912 615.858 90.752C616.018 90.592 616.215 90.512 616.45 90.512C616.684 90.512 616.882 90.592 617.042 90.752C617.202 90.912 617.282 91.1093 617.282 91.344C617.282 91.5787 617.202 91.776 617.042 91.936C616.882 92.0853 616.684 92.16 616.45 92.16C616.215 92.16 616.018 92.0853 615.858 91.936ZM621.24 94.912V99.664C621.24 100.528 621.645 100.96 622.456 100.96C622.872 100.96 623.24 100.837 623.56 100.592V101.792C623.208 101.984 622.813 102.08 622.376 102.08C620.776 102.08 619.976 101.264 619.976 99.632V94.912H618.68V93.888H619.976V91.872H621.24V93.888H623.48V94.912H621.24ZM629.373 102V93.888H630.637V102H629.373ZM629.405 91.936C629.255 91.776 629.181 91.5787 629.181 91.344C629.181 91.1093 629.255 90.912 629.405 90.752C629.565 90.592 629.762 90.512 629.997 90.512C630.231 90.512 630.429 90.592 630.589 90.752C630.749 90.912 630.829 91.1093 630.829 91.344C630.829 91.5787 630.749 91.776 630.589 91.936C630.429 92.0853 630.231 92.16 629.997 92.16C629.762 92.16 629.565 92.0853 629.405 91.936ZM634.291 93.888V95.296C634.771 94.2827 635.624 93.776 636.851 93.776C637.64 93.776 638.27 94.016 638.739 94.496C639.208 94.976 639.443 95.616 639.443 96.416V102H638.179V96.752C638.179 96.1547 638.024 95.7013 637.715 95.392C637.416 95.072 637.022 94.912 636.531 94.912C635.923 94.912 635.395 95.1467 634.947 95.616C634.51 96.0853 634.291 96.736 634.291 97.568V102H633.043V93.888H634.291ZM643.428 94.912V99.664C643.428 100.528 643.833 100.96 644.644 100.96C645.06 100.96 645.428 100.837 645.748 100.592V101.792C645.396 101.984 645.001 102.08 644.564 102.08C642.964 102.08 642.164 101.264 642.164 99.632V94.912H640.868V93.888H642.164V91.872H643.428V93.888H645.668V94.912H643.428ZM652.758 97.424V97.104C652.758 96.432 652.577 95.8987 652.214 95.504C651.851 95.0987 651.35 94.896 650.71 94.896C650.102 94.896 649.585 95.1147 649.158 95.552C648.731 95.9893 648.481 96.6133 648.406 97.424H652.758ZM653.51 100.4V101.584C652.881 101.915 652.113 102.08 651.206 102.08C649.979 102.08 648.987 101.707 648.23 100.96C647.483 100.203 647.11 99.2053 647.11 97.968C647.11 96.6773 647.446 95.6587 648.118 94.912C648.79 94.1653 649.654 93.792 650.71 93.792C651.723 93.792 652.529 94.1173 653.126 94.768C653.723 95.4187 654.022 96.3413 654.022 97.536C654.022 97.8773 653.995 98.192 653.942 98.48H648.406C648.502 99.28 648.806 99.8933 649.318 100.32C649.83 100.747 650.502 100.96 651.334 100.96C652.241 100.96 652.966 100.773 653.51 100.4ZM657.197 93.888V95.312C657.624 94.3093 658.36 93.808 659.405 93.808C659.597 93.808 659.747 93.8187 659.853 93.84V95.088C659.629 95.0133 659.4 94.976 659.165 94.976C658.6 94.976 658.131 95.2373 657.757 95.76C657.384 96.2827 657.197 96.8853 657.197 97.568V102H655.933L655.949 93.888H657.197ZM664.256 100.976C664.917 100.976 665.477 100.731 665.936 100.24C666.405 99.7493 666.64 98.9653 666.64 97.888C666.64 96.864 666.4 96.112 665.92 95.632C665.44 95.152 664.912 94.912 664.336 94.912C663.664 94.912 663.104 95.184 662.656 95.728C662.219 96.2613 662 97.0293 662 98.032C662 98.9067 662.213 99.616 662.64 100.16C663.067 100.704 663.605 100.976 664.256 100.976ZM666.64 90.688H667.904V102H666.64V100.8C666.064 101.685 665.232 102.128 664.144 102.128C663.067 102.128 662.219 101.728 661.6 100.928C660.992 100.128 660.688 99.1573 660.688 98.016C660.688 96.7467 661.013 95.7227 661.664 94.944C662.315 94.1547 663.152 93.76 664.176 93.76C665.232 93.76 666.053 94.2133 666.64 95.12V90.688ZM675.286 93.888H676.55V102H675.286V100.592C674.859 101.595 674.011 102.096 672.742 102.096C671.942 102.096 671.307 101.861 670.838 101.392C670.379 100.912 670.15 100.272 670.15 99.472V93.888H671.414V99.152C671.414 99.7387 671.563 100.187 671.862 100.496C672.161 100.805 672.566 100.96 673.078 100.96C673.75 100.96 674.283 100.725 674.678 100.256C675.083 99.7867 675.286 99.152 675.286 98.352V93.888ZM680.135 93.888V95.2C680.583 94.2507 681.345 93.776 682.423 93.776C683.671 93.776 684.46 94.304 684.791 95.36C685.025 94.848 685.351 94.4587 685.767 94.192C686.193 93.9147 686.668 93.776 687.191 93.776C688.033 93.776 688.668 94.016 689.095 94.496C689.521 94.976 689.735 95.6213 689.735 96.432V102H688.471V96.752C688.471 95.5253 687.953 94.912 686.919 94.912C686.407 94.912 685.948 95.1467 685.543 95.616C685.137 96.0747 684.935 96.7253 684.935 97.568V102H683.671V96.752C683.671 95.5253 683.153 94.912 682.119 94.912C681.607 94.912 681.148 95.1467 680.743 95.616C680.337 96.0747 680.135 96.7253 680.135 97.568V102H678.887V93.888H680.135ZM690.684 103.968L692.173 100.384H693.853L691.789 103.968H690.684ZM703.849 98.256H702.441C701.758 98.256 701.246 98.3893 700.905 98.656C700.563 98.9227 700.393 99.2587 700.393 99.664C700.393 100.069 700.526 100.4 700.793 100.656C701.059 100.901 701.449 101.024 701.961 101.024C702.537 101.024 702.995 100.864 703.337 100.544C703.678 100.213 703.849 99.7973 703.849 99.296V98.256ZM699.657 95.584V94.32C700.265 93.9467 701.065 93.76 702.057 93.76C704.094 93.76 705.113 94.7947 705.113 96.864V102H703.865V101.04C703.449 101.733 702.691 102.08 701.593 102.08C700.835 102.08 700.222 101.856 699.753 101.408C699.294 100.96 699.065 100.395 699.065 99.712C699.065 98.9333 699.358 98.3307 699.945 97.904C700.542 97.4667 701.353 97.248 702.377 97.248H703.849V96.832C703.849 96.192 703.705 95.712 703.417 95.392C703.129 95.0613 702.643 94.896 701.961 94.896C701.097 94.896 700.329 95.1253 699.657 95.584ZM708.188 97.984C708.198 98.8587 708.465 99.5893 708.988 100.176C709.51 100.752 710.252 101.04 711.212 101.04C711.83 101.04 712.406 100.864 712.94 100.512V101.712C712.428 102.021 711.798 102.176 711.052 102.176C709.772 102.176 708.753 101.771 707.996 100.96C707.249 100.139 706.876 99.1413 706.876 97.968C706.876 96.816 707.249 95.824 707.996 94.992C708.753 94.16 709.782 93.744 711.084 93.744C711.777 93.744 712.396 93.8933 712.94 94.192V95.392C712.449 95.0613 711.873 94.896 711.212 94.896C710.294 94.896 709.558 95.1947 709.004 95.792C708.46 96.3787 708.188 97.1093 708.188 97.984ZM723.161 98.256H721.753C721.07 98.256 720.558 98.3893 720.217 98.656C719.876 98.9227 719.705 99.2587 719.705 99.664C719.705 100.069 719.838 100.4 720.105 100.656C720.372 100.901 720.761 101.024 721.273 101.024C721.849 101.024 722.308 100.864 722.649 100.544C722.99 100.213 723.161 99.7973 723.161 99.296V98.256ZM718.969 95.584V94.32C719.577 93.9467 720.377 93.76 721.369 93.76C723.406 93.76 724.425 94.7947 724.425 96.864V102H723.177V101.04C722.761 101.733 722.004 102.08 720.905 102.08C720.148 102.08 719.534 101.856 719.065 101.408C718.606 100.96 718.377 100.395 718.377 99.712C718.377 98.9333 718.67 98.3307 719.257 97.904C719.854 97.4667 720.665 97.248 721.689 97.248H723.161V96.832C723.161 96.192 723.017 95.712 722.729 95.392C722.441 95.0613 721.956 94.896 721.273 94.896C720.409 94.896 719.641 95.1253 718.969 95.584ZM726.732 102V90.688H727.996V102H726.732ZM730.466 102V93.888H731.73V102H730.466ZM730.498 91.936C730.349 91.776 730.274 91.5787 730.274 91.344C730.274 91.1093 730.349 90.912 730.498 90.752C730.658 90.592 730.856 90.512 731.09 90.512C731.325 90.512 731.522 90.592 731.682 90.752C731.842 90.912 731.922 91.1093 731.922 91.344C731.922 91.5787 731.842 91.776 731.682 91.936C731.522 92.0853 731.325 92.16 731.09 92.16C730.856 92.16 730.658 92.0853 730.498 91.936ZM737.305 100.976C737.891 100.976 738.419 100.736 738.889 100.256C739.369 99.7653 739.609 98.9973 739.609 97.952C739.609 96.8747 739.374 96.1013 738.905 95.632C738.435 95.152 737.875 94.912 737.225 94.912C736.574 94.912 736.035 95.184 735.609 95.728C735.182 96.272 734.969 96.9867 734.969 97.872C734.969 98.864 735.187 99.632 735.625 100.176C736.062 100.709 736.622 100.976 737.305 100.976ZM739.609 93.888H740.873V105.152H739.609V100.784C739.022 101.68 738.201 102.128 737.145 102.128C736.11 102.128 735.267 101.733 734.617 100.944C733.977 100.144 733.657 99.12 733.657 97.872C733.657 96.6987 733.966 95.7227 734.585 94.944C735.203 94.1547 736.051 93.76 737.129 93.76C738.206 93.76 739.033 94.2027 739.609 95.088V93.888ZM748.255 93.888H749.519V102H748.255V100.592C747.828 101.595 746.98 102.096 745.711 102.096C744.911 102.096 744.276 101.861 743.807 101.392C743.348 100.912 743.119 100.272 743.119 99.472V93.888H744.383V99.152C744.383 99.7387 744.532 100.187 744.831 100.496C745.13 100.805 745.535 100.96 746.047 100.96C746.719 100.96 747.252 100.725 747.647 100.256C748.052 99.7867 748.255 99.152 748.255 98.352V93.888ZM757.024 97.424V97.104C757.024 96.432 756.842 95.8987 756.48 95.504C756.117 95.0987 755.616 94.896 754.976 94.896C754.368 94.896 753.85 95.1147 753.424 95.552C752.997 95.9893 752.746 96.6133 752.672 97.424H757.024ZM757.776 100.4V101.584C757.146 101.915 756.378 102.08 755.472 102.08C754.245 102.08 753.253 101.707 752.496 100.96C751.749 100.203 751.376 99.2053 751.376 97.968C751.376 96.6773 751.712 95.6587 752.384 94.912C753.056 94.1653 753.92 93.792 754.976 93.792C755.989 93.792 756.794 94.1173 757.392 94.768C757.989 95.4187 758.288 96.3413 758.288 97.536C758.288 97.8773 758.261 98.192 758.208 98.48H752.672C752.768 99.28 753.072 99.8933 753.584 100.32C754.096 100.747 754.768 100.96 755.6 100.96C756.506 100.96 757.232 100.773 757.776 100.4ZM761.959 94.912V99.664C761.959 100.528 762.364 100.96 763.175 100.96C763.591 100.96 763.959 100.837 764.279 100.592V101.792C763.927 101.984 763.532 102.08 763.095 102.08C761.495 102.08 760.695 101.264 760.695 99.632V94.912H759.399V93.888H760.695V91.872H761.959V93.888H764.199V94.912H761.959ZM773.323 102.144C772.161 102.144 771.238 101.755 770.555 100.976C769.883 100.187 769.547 99.1947 769.547 98C769.547 96.7947 769.894 95.792 770.587 94.992C771.291 94.1813 772.203 93.776 773.323 93.776C774.55 93.776 775.494 94.1707 776.155 94.96C776.827 95.7493 777.163 96.752 777.163 97.968C777.163 99.1733 776.822 100.171 776.139 100.96C775.457 101.749 774.518 102.144 773.323 102.144ZM773.323 94.896C772.555 94.896 771.953 95.1947 771.515 95.792C771.078 96.3893 770.859 97.12 770.859 97.984C770.859 98.8267 771.083 99.5467 771.531 100.144C771.979 100.731 772.577 101.024 773.323 101.024C774.134 101.024 774.758 100.736 775.195 100.16C775.633 99.5733 775.851 98.848 775.851 97.984C775.851 97.088 775.643 96.352 775.227 95.776C774.811 95.1893 774.177 94.896 773.323 94.896ZM782.1 100.976C782.761 100.976 783.321 100.731 783.78 100.24C784.249 99.7493 784.484 98.9653 784.484 97.888C784.484 96.864 784.244 96.112 783.764 95.632C783.284 95.152 782.756 94.912 782.18 94.912C781.508 94.912 780.948 95.184 780.5 95.728C780.062 96.2613 779.844 97.0293 779.844 98.032C779.844 98.9067 780.057 99.616 780.484 100.16C780.91 100.704 781.449 100.976 782.1 100.976ZM784.484 90.688H785.748V102H784.484V100.8C783.908 101.685 783.076 102.128 781.988 102.128C780.91 102.128 780.062 101.728 779.444 100.928C778.836 100.128 778.532 99.1573 778.532 98.016C778.532 96.7467 778.857 95.7227 779.508 94.944C780.158 94.1547 780.996 93.76 782.02 93.76C783.076 93.76 783.897 94.2133 784.484 95.12V90.688ZM788.154 102V93.888H789.418V102H788.154ZM788.186 91.936C788.037 91.776 787.962 91.5787 787.962 91.344C787.962 91.1093 788.037 90.912 788.186 90.752C788.346 90.592 788.543 90.512 788.778 90.512C789.013 90.512 789.21 90.592 789.37 90.752C789.53 90.912 789.61 91.1093 789.61 91.344C789.61 91.5787 789.53 91.776 789.37 91.936C789.21 92.0853 789.013 92.16 788.778 92.16C788.543 92.16 788.346 92.0853 788.186 91.936ZM795.12 102.144C793.958 102.144 793.035 101.755 792.352 100.976C791.68 100.187 791.344 99.1947 791.344 98C791.344 96.7947 791.691 95.792 792.384 94.992C793.088 94.1813 794 93.776 795.12 93.776C796.347 93.776 797.291 94.1707 797.952 94.96C798.624 95.7493 798.96 96.752 798.96 97.968C798.96 99.1733 798.619 100.171 797.936 100.96C797.254 101.749 796.315 102.144 795.12 102.144ZM795.12 94.896C794.352 94.896 793.75 95.1947 793.312 95.792C792.875 96.3893 792.656 97.12 792.656 97.984C792.656 98.8267 792.88 99.5467 793.328 100.144C793.776 100.731 794.374 101.024 795.12 101.024C795.931 101.024 796.555 100.736 796.992 100.16C797.43 99.5733 797.648 98.848 797.648 97.984C797.648 97.088 797.44 96.352 797.024 95.776C796.608 95.1893 795.974 94.896 795.12 94.896ZM805.963 93.888V95.2C806.411 94.2507 807.174 93.776 808.251 93.776C809.499 93.776 810.288 94.304 810.619 95.36C810.854 94.848 811.179 94.4587 811.595 94.192C812.022 93.9147 812.496 93.776 813.019 93.776C813.862 93.776 814.496 94.016 814.923 94.496C815.35 94.976 815.563 95.6213 815.563 96.432V102H814.299V96.752C814.299 95.5253 813.782 94.912 812.747 94.912C812.235 94.912 811.776 95.1467 811.371 95.616C810.966 96.0747 810.763 96.7253 810.763 97.568V102H809.499V96.752C809.499 95.5253 808.982 94.912 807.947 94.912C807.435 94.912 806.976 95.1467 806.571 95.616C806.166 96.0747 805.963 96.7253 805.963 97.568V102H804.715V93.888H805.963ZM822.177 98.256H820.769C820.086 98.256 819.574 98.3893 819.233 98.656C818.891 98.9227 818.721 99.2587 818.721 99.664C818.721 100.069 818.854 100.4 819.121 100.656C819.387 100.901 819.777 101.024 820.289 101.024C820.865 101.024 821.323 100.864 821.665 100.544C822.006 100.213 822.177 99.7973 822.177 99.296V98.256ZM817.985 95.584V94.32C818.593 93.9467 819.393 93.76 820.385 93.76C822.422 93.76 823.441 94.7947 823.441 96.864V102H822.193V101.04C821.777 101.733 821.019 102.08 819.921 102.08C819.163 102.08 818.55 101.856 818.081 101.408C817.622 100.96 817.393 100.395 817.393 99.712C817.393 98.9333 817.686 98.3307 818.273 97.904C818.87 97.4667 819.681 97.248 820.705 97.248H822.177V96.832C822.177 96.192 822.033 95.712 821.745 95.392C821.457 95.0613 820.971 94.896 820.289 94.896C819.425 94.896 818.657 95.1253 817.985 95.584ZM827.428 94.912V99.664C827.428 100.528 827.833 100.96 828.644 100.96C829.06 100.96 829.428 100.837 829.748 100.592V101.792C829.396 101.984 829.001 102.08 828.564 102.08C826.964 102.08 826.164 101.264 826.164 99.632V94.912H824.868V93.888H826.164V91.872H827.428V93.888H829.668V94.912H827.428ZM833.334 94.912V99.664C833.334 100.528 833.739 100.96 834.55 100.96C834.966 100.96 835.334 100.837 835.654 100.592V101.792C835.302 101.984 834.907 102.08 834.47 102.08C832.87 102.08 832.07 101.264 832.07 99.632V94.912H830.774V93.888H832.07V91.872H833.334V93.888H835.574V94.912H833.334ZM837.56 102V93.888H838.824V102H837.56ZM837.592 91.936C837.443 91.776 837.368 91.5787 837.368 91.344C837.368 91.1093 837.443 90.912 837.592 90.752C837.752 90.592 837.949 90.512 838.184 90.512C838.419 90.512 838.616 90.592 838.776 90.752C838.936 90.912 839.016 91.1093 839.016 91.344C839.016 91.5787 838.936 91.776 838.776 91.936C838.616 92.0853 838.419 92.16 838.184 92.16C837.949 92.16 837.752 92.0853 837.592 91.936ZM845.647 94.16V95.36C845.156 95.0613 844.484 94.912 843.631 94.912C843.204 94.912 842.863 95.0133 842.607 95.216C842.361 95.408 842.239 95.6587 842.239 95.968C842.239 96.16 842.276 96.3307 842.351 96.48C842.425 96.6187 842.569 96.7573 842.783 96.896C843.007 97.0347 843.167 97.1307 843.263 97.184C843.369 97.2267 843.593 97.3227 843.935 97.472C844.617 97.7493 845.151 98.064 845.535 98.416C845.919 98.768 846.111 99.2427 846.111 99.84C846.111 100.533 845.865 101.083 845.375 101.488C844.895 101.893 844.233 102.096 843.391 102.096C842.409 102.096 841.615 101.931 841.007 101.6V100.368C841.721 100.795 842.489 101.008 843.311 101.008C843.801 101.008 844.175 100.912 844.431 100.72C844.687 100.528 844.815 100.267 844.815 99.936C844.815 99.552 844.671 99.2533 844.383 99.04C844.105 98.8267 843.636 98.5867 842.975 98.32C842.367 98.0853 841.876 97.792 841.503 97.44C841.14 97.088 840.959 96.6133 840.959 96.016C840.959 95.344 841.209 94.8107 841.711 94.416C842.223 94.0107 842.857 93.808 843.615 93.808C844.457 93.808 845.135 93.9253 845.647 94.16ZM847.312 101.856C847.131 101.675 847.04 101.451 847.04 101.184C847.04 100.917 847.131 100.693 847.312 100.512C847.494 100.331 847.718 100.24 847.984 100.24C848.251 100.24 848.475 100.331 848.656 100.512C848.838 100.693 848.928 100.917 848.928 101.184C848.928 101.451 848.838 101.675 848.656 101.856C848.475 102.037 848.251 102.128 847.984 102.128C847.718 102.128 847.494 102.037 847.312 101.856ZM862.147 91.648V92.976C861.677 92.7307 861.256 92.5547 860.883 92.448C860.509 92.3413 860.019 92.288 859.411 92.288C858.248 92.288 857.277 92.6827 856.499 93.472C855.731 94.2613 855.347 95.2907 855.347 96.56C855.347 97.8827 855.731 98.9387 856.499 99.728C857.267 100.517 858.285 100.912 859.555 100.912C860.579 100.912 861.453 100.64 862.179 100.096V101.456C861.517 101.904 860.611 102.128 859.459 102.128C857.837 102.128 856.52 101.632 855.507 100.64C854.493 99.6373 853.987 98.2773 853.987 96.56C853.987 94.9387 854.499 93.6213 855.523 92.608C856.557 91.584 857.853 91.072 859.411 91.072C860.531 91.072 861.443 91.264 862.147 91.648ZM864.076 102V90.688H865.34V102H864.076ZM872.114 98.256H870.706C870.023 98.256 869.511 98.3893 869.17 98.656C868.829 98.9227 868.658 99.2587 868.658 99.664C868.658 100.069 868.791 100.4 869.058 100.656C869.325 100.901 869.714 101.024 870.226 101.024C870.802 101.024 871.261 100.864 871.602 100.544C871.943 100.213 872.114 99.7973 872.114 99.296V98.256ZM867.922 95.584V94.32C868.53 93.9467 869.33 93.76 870.322 93.76C872.359 93.76 873.378 94.7947 873.378 96.864V102H872.13V101.04C871.714 101.733 870.957 102.08 869.858 102.08C869.101 102.08 868.487 101.856 868.018 101.408C867.559 100.96 867.33 100.395 867.33 99.712C867.33 98.9333 867.623 98.3307 868.21 97.904C868.807 97.4667 869.618 97.248 870.642 97.248H872.114V96.832C872.114 96.192 871.97 95.712 871.682 95.392C871.394 95.0613 870.909 94.896 870.226 94.896C869.362 94.896 868.594 95.1253 867.922 95.584ZM880.037 94.16V95.36C879.546 95.0613 878.874 94.912 878.021 94.912C877.594 94.912 877.253 95.0133 876.997 95.216C876.752 95.408 876.629 95.6587 876.629 95.968C876.629 96.16 876.666 96.3307 876.741 96.48C876.816 96.6187 876.96 96.7573 877.173 96.896C877.397 97.0347 877.557 97.1307 877.653 97.184C877.76 97.2267 877.984 97.3227 878.325 97.472C879.008 97.7493 879.541 98.064 879.925 98.416C880.309 98.768 880.501 99.2427 880.501 99.84C880.501 100.533 880.256 101.083 879.765 101.488C879.285 101.893 878.624 102.096 877.781 102.096C876.8 102.096 876.005 101.931 875.397 101.6V100.368C876.112 100.795 876.88 101.008 877.701 101.008C878.192 101.008 878.565 100.912 878.821 100.72C879.077 100.528 879.205 100.267 879.205 99.936C879.205 99.552 879.061 99.2533 878.773 99.04C878.496 98.8267 878.026 98.5867 877.365 98.32C876.757 98.0853 876.266 97.792 875.893 97.44C875.53 97.088 875.349 96.6133 875.349 96.016C875.349 95.344 875.6 94.8107 876.101 94.416C876.613 94.0107 877.248 93.808 878.005 93.808C878.848 93.808 879.525 93.9253 880.037 94.16ZM886.631 94.16V95.36C886.14 95.0613 885.468 94.912 884.615 94.912C884.188 94.912 883.847 95.0133 883.591 95.216C883.346 95.408 883.223 95.6587 883.223 95.968C883.223 96.16 883.26 96.3307 883.335 96.48C883.41 96.6187 883.554 96.7573 883.767 96.896C883.991 97.0347 884.151 97.1307 884.247 97.184C884.354 97.2267 884.578 97.3227 884.919 97.472C885.602 97.7493 886.135 98.064 886.519 98.416C886.903 98.768 887.095 99.2427 887.095 99.84C887.095 100.533 886.85 101.083 886.359 101.488C885.879 101.893 885.218 102.096 884.375 102.096C883.394 102.096 882.599 101.931 881.991 101.6V100.368C882.706 100.795 883.474 101.008 884.295 101.008C884.786 101.008 885.159 100.912 885.415 100.72C885.671 100.528 885.799 100.267 885.799 99.936C885.799 99.552 885.655 99.2533 885.367 99.04C885.09 98.8267 884.62 98.5867 883.959 98.32C883.351 98.0853 882.86 97.792 882.487 97.44C882.124 97.088 881.943 96.6133 881.943 96.016C881.943 95.344 882.194 94.8107 882.695 94.416C883.207 94.0107 883.842 93.808 884.599 93.808C885.442 93.808 886.119 93.9253 886.631 94.16ZM897.083 98.256H895.675C894.992 98.256 894.48 98.3893 894.139 98.656C893.798 98.9227 893.627 99.2587 893.627 99.664C893.627 100.069 893.76 100.4 894.027 100.656C894.294 100.901 894.683 101.024 895.195 101.024C895.771 101.024 896.23 100.864 896.571 100.544C896.912 100.213 897.083 99.7973 897.083 99.296V98.256ZM892.891 95.584V94.32C893.499 93.9467 894.299 93.76 895.291 93.76C897.328 93.76 898.347 94.7947 898.347 96.864V102H897.099V101.04C896.683 101.733 895.926 102.08 894.827 102.08C894.07 102.08 893.456 101.856 892.987 101.408C892.528 100.96 892.299 100.395 892.299 99.712C892.299 98.9333 892.592 98.3307 893.179 97.904C893.776 97.4667 894.587 97.248 895.611 97.248H897.083V96.832C897.083 96.192 896.939 95.712 896.651 95.392C896.363 95.0613 895.878 94.896 895.195 94.896C894.331 94.896 893.563 95.1253 892.891 95.584ZM904.158 100.976C904.841 100.976 905.401 100.709 905.838 100.176C906.275 99.632 906.494 98.864 906.494 97.872C906.494 96.9867 906.281 96.272 905.854 95.728C905.427 95.184 904.889 94.912 904.238 94.912C903.587 94.912 903.022 95.152 902.542 95.632C902.073 96.1013 901.838 96.8747 901.838 97.952C901.838 98.9867 902.078 99.7493 902.558 100.24C903.038 100.731 903.571 100.976 904.158 100.976ZM901.838 93.888V95.12C902.403 94.2133 903.241 93.76 904.35 93.76C905.427 93.76 906.27 94.1547 906.878 94.944C907.497 95.7227 907.806 96.6987 907.806 97.872C907.806 99.12 907.481 100.144 906.83 100.944C906.19 101.733 905.353 102.128 904.318 102.128C903.251 102.128 902.425 101.675 901.838 100.768V105.152H900.59V93.888H901.838ZM911.412 94.912V99.664C911.412 100.528 911.817 100.96 912.628 100.96C913.044 100.96 913.412 100.837 913.732 100.592V101.792C913.38 101.984 912.985 102.08 912.548 102.08C910.948 102.08 910.148 101.264 910.148 99.632V94.912H908.852V93.888H910.148V91.872H911.412V93.888H913.652V94.912H911.412ZM920.742 97.424V97.104C920.742 96.432 920.561 95.8987 920.198 95.504C919.836 95.0987 919.334 94.896 918.694 94.896C918.086 94.896 917.569 95.1147 917.142 95.552C916.716 95.9893 916.465 96.6133 916.39 97.424H920.742ZM921.494 100.4V101.584C920.865 101.915 920.097 102.08 919.19 102.08C917.964 102.08 916.972 101.707 916.214 100.96C915.468 100.203 915.094 99.2053 915.094 97.968C915.094 96.6773 915.43 95.6587 916.102 94.912C916.774 94.1653 917.638 93.792 918.694 93.792C919.708 93.792 920.513 94.1173 921.11 94.768C921.708 95.4187 922.006 96.3413 922.006 97.536C922.006 97.8773 921.98 98.192 921.926 98.48H916.39C916.486 99.28 916.79 99.8933 917.302 100.32C917.814 100.747 918.486 100.96 919.318 100.96C920.225 100.96 920.95 100.773 921.494 100.4ZM925.182 93.888V95.296C925.662 94.2827 926.515 93.776 927.742 93.776C928.531 93.776 929.16 94.016 929.63 94.496C930.099 94.976 930.334 95.616 930.334 96.416V102H929.07V96.752C929.07 96.1547 928.915 95.7013 928.606 95.392C928.307 95.072 927.912 94.912 927.422 94.912C926.814 94.912 926.286 95.1467 925.838 95.616C925.4 96.0853 925.182 96.736 925.182 97.568V102H923.934V93.888H925.182ZM934.318 94.912V99.664C934.318 100.528 934.724 100.96 935.534 100.96C935.95 100.96 936.318 100.837 936.638 100.592V101.792C936.286 101.984 935.892 102.08 935.454 102.08C933.854 102.08 933.054 101.264 933.054 99.632V94.912H931.758V93.888H933.054V91.872H934.318V93.888H936.558V94.912H934.318ZM944.131 94.912V99.664C944.131 100.528 944.536 100.96 945.347 100.96C945.763 100.96 946.131 100.837 946.451 100.592V101.792C946.099 101.984 945.704 102.08 945.267 102.08C943.667 102.08 942.867 101.264 942.867 99.632V94.912H941.571V93.888H942.867V91.872H944.131V93.888H946.371V94.912H944.131ZM952.661 98.256H951.253C950.57 98.256 950.058 98.3893 949.717 98.656C949.376 98.9227 949.205 99.2587 949.205 99.664C949.205 100.069 949.338 100.4 949.605 100.656C949.872 100.901 950.261 101.024 950.773 101.024C951.349 101.024 951.808 100.864 952.149 100.544C952.49 100.213 952.661 99.7973 952.661 99.296V98.256ZM948.469 95.584V94.32C949.077 93.9467 949.877 93.76 950.869 93.76C952.906 93.76 953.925 94.7947 953.925 96.864V102H952.677V101.04C952.261 101.733 951.504 102.08 950.405 102.08C949.648 102.08 949.034 101.856 948.565 101.408C948.106 100.96 947.877 100.395 947.877 99.712C947.877 98.9333 948.17 98.3307 948.757 97.904C949.354 97.4667 950.165 97.248 951.189 97.248H952.661V96.832C952.661 96.192 952.517 95.712 952.229 95.392C951.941 95.0613 951.456 94.896 950.773 94.896C949.909 94.896 949.141 95.1253 948.469 95.584ZM957 97.984C957.011 98.8587 957.277 99.5893 957.8 100.176C958.323 100.752 959.064 101.04 960.024 101.04C960.643 101.04 961.219 100.864 961.752 100.512V101.712C961.24 102.021 960.611 102.176 959.864 102.176C958.584 102.176 957.565 101.771 956.808 100.96C956.061 100.139 955.688 99.1413 955.688 97.968C955.688 96.816 956.061 95.824 956.808 94.992C957.565 94.16 958.595 93.744 959.896 93.744C960.589 93.744 961.208 93.8933 961.752 94.192V95.392C961.261 95.0613 960.685 94.896 960.024 94.896C959.107 94.896 958.371 95.1947 957.816 95.792C957.272 96.3787 957 97.1093 957 97.984ZM963.763 102V93.888H965.027V102H963.763ZM963.795 91.936C963.646 91.776 963.571 91.5787 963.571 91.344C963.571 91.1093 963.646 90.912 963.795 90.752C963.955 90.592 964.153 90.512 964.387 90.512C964.622 90.512 964.819 90.592 964.979 90.752C965.139 90.912 965.219 91.1093 965.219 91.344C965.219 91.5787 965.139 91.776 964.979 91.936C964.819 92.0853 964.622 92.16 964.387 92.16C964.153 92.16 963.955 92.0853 963.795 91.936ZM969.178 94.912V99.664C969.178 100.528 969.583 100.96 970.394 100.96C970.81 100.96 971.178 100.837 971.498 100.592V101.792C971.146 101.984 970.751 102.08 970.314 102.08C968.714 102.08 967.914 101.264 967.914 99.632V94.912H966.618V93.888H967.914V91.872H969.178V93.888H971.418V94.912H969.178ZM973.404 102V93.888H974.668V102H973.404ZM973.436 91.936C973.287 91.776 973.212 91.5787 973.212 91.344C973.212 91.1093 973.287 90.912 973.436 90.752C973.596 90.592 973.793 90.512 974.028 90.512C974.263 90.512 974.46 90.592 974.62 90.752C974.78 90.912 974.86 91.1093 974.86 91.344C974.86 91.5787 974.78 91.776 974.62 91.936C974.46 92.0853 974.263 92.16 974.028 92.16C973.793 92.16 973.596 92.0853 973.436 91.936ZM985.397 94.16V95.36C984.906 95.0613 984.234 94.912 983.381 94.912C982.954 94.912 982.613 95.0133 982.357 95.216C982.111 95.408 981.989 95.6587 981.989 95.968C981.989 96.16 982.026 96.3307 982.101 96.48C982.175 96.6187 982.319 96.7573 982.533 96.896C982.757 97.0347 982.917 97.1307 983.013 97.184C983.119 97.2267 983.343 97.3227 983.685 97.472C984.367 97.7493 984.901 98.064 985.285 98.416C985.669 98.768 985.861 99.2427 985.861 99.84C985.861 100.533 985.615 101.083 985.125 101.488C984.645 101.893 983.983 102.096 983.141 102.096C982.159 102.096 981.365 101.931 980.757 101.6V100.368C981.471 100.795 982.239 101.008 983.061 101.008C983.551 101.008 983.925 100.912 984.181 100.72C984.437 100.528 984.565 100.267 984.565 99.936C984.565 99.552 984.421 99.2533 984.133 99.04C983.855 98.8267 983.386 98.5867 982.725 98.32C982.117 98.0853 981.626 97.792 981.253 97.44C980.89 97.088 980.709 96.6133 980.709 96.016C980.709 95.344 980.959 94.8107 981.461 94.416C981.973 94.0107 982.607 93.808 983.365 93.808C984.207 93.808 984.885 93.9253 985.397 94.16ZM990.87 102.144C989.708 102.144 988.785 101.755 988.102 100.976C987.43 100.187 987.094 99.1947 987.094 98C987.094 96.7947 987.441 95.792 988.134 94.992C988.838 94.1813 989.75 93.776 990.87 93.776C992.097 93.776 993.041 94.1707 993.702 94.96C994.374 95.7493 994.71 96.752 994.71 97.968C994.71 99.1733 994.369 100.171 993.686 100.96C993.004 101.749 992.065 102.144 990.87 102.144ZM990.87 94.896C990.102 94.896 989.5 95.1947 989.062 95.792C988.625 96.3893 988.406 97.12 988.406 97.984C988.406 98.8267 988.63 99.5467 989.078 100.144C989.526 100.731 990.124 101.024 990.87 101.024C991.681 101.024 992.305 100.736 992.742 100.16C993.18 99.5733 993.398 98.848 993.398 97.984C993.398 97.088 993.19 96.352 992.774 95.776C992.358 95.1893 991.724 94.896 990.87 94.896ZM997.391 97.984C997.401 98.8587 997.668 99.5893 998.191 100.176C998.713 100.752 999.455 101.04 1000.41 101.04C1001.03 101.04 1001.61 100.864 1002.14 100.512V101.712C1001.63 102.021 1001 102.176 1000.25 102.176C998.975 102.176 997.956 101.771 997.199 100.96C996.452 100.139 996.079 99.1413 996.079 97.968C996.079 96.816 996.452 95.824 997.199 94.992C997.956 94.16 998.985 93.744 1000.29 93.744C1000.98 93.744 1001.6 93.8933 1002.14 94.192V95.392C1001.65 95.0613 1001.08 94.896 1000.41 94.896C999.497 94.896 998.761 95.1947 998.207 95.792C997.663 96.3787 997.391 97.1093 997.391 97.984ZM1004.15 102V93.888H1005.42V102H1004.15ZM1004.19 91.936C1004.04 91.776 1003.96 91.5787 1003.96 91.344C1003.96 91.1093 1004.04 90.912 1004.19 90.752C1004.35 90.592 1004.54 90.512 1004.78 90.512C1005.01 90.512 1005.21 90.592 1005.37 90.752C1005.53 90.912 1005.61 91.1093 1005.61 91.344C1005.61 91.5787 1005.53 91.776 1005.37 91.936C1005.21 92.0853 1005.01 92.16 1004.78 92.16C1004.54 92.16 1004.35 92.0853 1004.19 91.936ZM1011.12 102.144C1009.96 102.144 1009.03 101.755 1008.35 100.976C1007.68 100.187 1007.34 99.1947 1007.34 98C1007.34 96.7947 1007.69 95.792 1008.38 94.992C1009.09 94.1813 1010 93.776 1011.12 93.776C1012.35 93.776 1013.29 94.1707 1013.95 94.96C1014.62 95.7493 1014.96 96.752 1014.96 97.968C1014.96 99.1733 1014.62 100.171 1013.94 100.96C1013.25 101.749 1012.31 102.144 1011.12 102.144ZM1011.12 94.896C1010.35 94.896 1009.75 95.1947 1009.31 95.792C1008.87 96.3893 1008.66 97.12 1008.66 97.984C1008.66 98.8267 1008.88 99.5467 1009.33 100.144C1009.78 100.731 1010.37 101.024 1011.12 101.024C1011.93 101.024 1012.55 100.736 1012.99 100.16C1013.43 99.5733 1013.65 98.848 1013.65 97.984C1013.65 97.088 1013.44 96.352 1013.02 95.776C1012.61 95.1893 1011.97 94.896 1011.12 94.896ZM1021.22 94.16V95.36C1020.73 95.0613 1020.06 94.912 1019.21 94.912C1018.78 94.912 1018.44 95.0133 1018.18 95.216C1017.94 95.408 1017.82 95.6587 1017.82 95.968C1017.82 96.16 1017.85 96.3307 1017.93 96.48C1018 96.6187 1018.15 96.7573 1018.36 96.896C1018.58 97.0347 1018.74 97.1307 1018.84 97.184C1018.95 97.2267 1019.17 97.3227 1019.51 97.472C1020.2 97.7493 1020.73 98.064 1021.11 98.416C1021.5 98.768 1021.69 99.2427 1021.69 99.84C1021.69 100.533 1021.44 101.083 1020.95 101.488C1020.47 101.893 1019.81 102.096 1018.97 102.096C1017.99 102.096 1017.19 101.931 1016.58 101.6V100.368C1017.3 100.795 1018.07 101.008 1018.89 101.008C1019.38 101.008 1019.75 100.912 1020.01 100.72C1020.26 100.528 1020.39 100.267 1020.39 99.936C1020.39 99.552 1020.25 99.2533 1019.96 99.04C1019.68 98.8267 1019.21 98.5867 1018.55 98.32C1017.94 98.0853 1017.45 97.792 1017.08 97.44C1016.72 97.088 1016.54 96.6133 1016.54 96.016C1016.54 95.344 1016.79 94.8107 1017.29 94.416C1017.8 94.0107 1018.44 93.808 1019.19 93.808C1020.04 93.808 1020.71 93.9253 1021.22 94.16ZM1026.57 100.976C1027.16 100.976 1027.69 100.736 1028.15 100.256C1028.63 99.7653 1028.87 98.9973 1028.87 97.952C1028.87 96.8747 1028.64 96.1013 1028.17 95.632C1027.7 95.152 1027.14 94.912 1026.49 94.912C1025.84 94.912 1025.3 95.184 1024.87 95.728C1024.45 96.272 1024.23 96.9867 1024.23 97.872C1024.23 98.864 1024.45 99.632 1024.89 100.176C1025.33 100.709 1025.89 100.976 1026.57 100.976ZM1028.87 93.888H1030.14V105.152H1028.87V100.784C1028.29 101.68 1027.47 102.128 1026.41 102.128C1025.38 102.128 1024.53 101.733 1023.88 100.944C1023.24 100.144 1022.92 99.12 1022.92 97.872C1022.92 96.6987 1023.23 95.7227 1023.85 94.944C1024.47 94.1547 1025.32 93.76 1026.39 93.76C1027.47 93.76 1028.3 94.2027 1028.87 95.088V93.888ZM1037.52 93.888H1038.78V102H1037.52V100.592C1037.09 101.595 1036.25 102.096 1034.98 102.096C1034.18 102.096 1033.54 101.861 1033.07 101.392C1032.61 100.912 1032.38 100.272 1032.38 99.472V93.888H1033.65V99.152C1033.65 99.7387 1033.8 100.187 1034.1 100.496C1034.4 100.805 1034.8 100.96 1035.31 100.96C1035.98 100.96 1036.52 100.725 1036.91 100.256C1037.32 99.7867 1037.52 99.152 1037.52 98.352V93.888ZM1049.4 98.256H1047.99C1047.3 98.256 1046.79 98.3893 1046.45 98.656C1046.11 98.9227 1045.94 99.2587 1045.94 99.664C1045.94 100.069 1046.07 100.4 1046.34 100.656C1046.61 100.901 1047 101.024 1047.51 101.024C1048.08 101.024 1048.54 100.864 1048.88 100.544C1049.22 100.213 1049.4 99.7973 1049.4 99.296V98.256ZM1045.2 95.584V94.32C1045.81 93.9467 1046.61 93.76 1047.6 93.76C1049.64 93.76 1050.66 94.7947 1050.66 96.864V102H1049.41V101.04C1049 101.733 1048.24 102.08 1047.14 102.08C1046.38 102.08 1045.77 101.856 1045.3 101.408C1044.84 100.96 1044.61 100.395 1044.61 99.712C1044.61 98.9333 1044.9 98.3307 1045.49 97.904C1046.09 97.4667 1046.9 97.248 1047.92 97.248H1049.4V96.832C1049.4 96.192 1049.25 95.712 1048.96 95.392C1048.68 95.0613 1048.19 94.896 1047.51 94.896C1046.64 94.896 1045.88 95.1253 1045.2 95.584ZM1055.99 100.976C1056.65 100.976 1057.21 100.731 1057.67 100.24C1058.14 99.7493 1058.37 98.9653 1058.37 97.888C1058.37 96.864 1058.13 96.112 1057.65 95.632C1057.17 95.152 1056.65 94.912 1056.07 94.912C1055.4 94.912 1054.84 95.184 1054.39 95.728C1053.95 96.2613 1053.73 97.0293 1053.73 98.032C1053.73 98.9067 1053.95 99.616 1054.37 100.16C1054.8 100.704 1055.34 100.976 1055.99 100.976ZM1058.37 90.688H1059.64V102H1058.37V100.8C1057.8 101.685 1056.97 102.128 1055.88 102.128C1054.8 102.128 1053.95 101.728 1053.33 100.928C1052.73 100.128 1052.42 99.1573 1052.42 98.016C1052.42 96.7467 1052.75 95.7227 1053.4 94.944C1054.05 94.1547 1054.89 93.76 1055.91 93.76C1056.97 93.76 1057.79 94.2133 1058.37 95.12V90.688ZM1065.95 102V90.688H1067.21V102H1065.95ZM1069.69 102V93.888H1070.95V102H1069.69ZM1069.72 91.936C1069.57 91.776 1069.49 91.5787 1069.49 91.344C1069.49 91.1093 1069.57 90.912 1069.72 90.752C1069.88 90.592 1070.07 90.512 1070.31 90.512C1070.54 90.512 1070.74 90.592 1070.9 90.752C1071.06 90.912 1071.14 91.1093 1071.14 91.344C1071.14 91.5787 1071.06 91.776 1070.9 91.936C1070.74 92.0853 1070.54 92.16 1070.31 92.16C1070.07 92.16 1069.88 92.0853 1069.72 91.936ZM1075.1 94.912V99.664C1075.1 100.528 1075.5 100.96 1076.32 100.96C1076.73 100.96 1077.1 100.837 1077.42 100.592V101.792C1077.07 101.984 1076.67 102.08 1076.24 102.08C1074.64 102.08 1073.84 101.264 1073.84 99.632V94.912H1072.54V93.888H1073.84V91.872H1075.1V93.888H1077.34V94.912H1075.1ZM1082.56 102.144C1081.4 102.144 1080.47 101.755 1079.79 100.976C1079.12 100.187 1078.78 99.1947 1078.78 98C1078.78 96.7947 1079.13 95.792 1079.82 94.992C1080.53 94.1813 1081.44 93.776 1082.56 93.776C1083.78 93.776 1084.73 94.1707 1085.39 94.96C1086.06 95.7493 1086.4 96.752 1086.4 97.968C1086.4 99.1733 1086.06 100.171 1085.37 100.96C1084.69 101.749 1083.75 102.144 1082.56 102.144ZM1082.56 94.896C1081.79 94.896 1081.19 95.1947 1080.75 95.792C1080.31 96.3893 1080.09 97.12 1080.09 97.984C1080.09 98.8267 1080.32 99.5467 1080.77 100.144C1081.21 100.731 1081.81 101.024 1082.56 101.024C1083.37 101.024 1083.99 100.736 1084.43 100.16C1084.87 99.5733 1085.09 98.848 1085.09 97.984C1085.09 97.088 1084.88 96.352 1084.46 95.776C1084.05 95.1893 1083.41 94.896 1082.56 94.896ZM1089.49 93.888V95.312C1089.92 94.3093 1090.66 93.808 1091.7 93.808C1091.89 93.808 1092.04 93.8187 1092.15 93.84V95.088C1091.93 95.0133 1091.7 94.976 1091.46 94.976C1090.9 94.976 1090.43 95.2373 1090.05 95.76C1089.68 96.2827 1089.49 96.8853 1089.49 97.568V102H1088.23L1088.25 93.888H1089.49ZM1097.83 98.256H1096.42C1095.74 98.256 1095.23 98.3893 1094.89 98.656C1094.55 98.9227 1094.38 99.2587 1094.38 99.664C1094.38 100.069 1094.51 100.4 1094.78 100.656C1095.04 100.901 1095.43 101.024 1095.94 101.024C1096.52 101.024 1096.98 100.864 1097.32 100.544C1097.66 100.213 1097.83 99.7973 1097.83 99.296V98.256ZM1093.64 95.584V94.32C1094.25 93.9467 1095.05 93.76 1096.04 93.76C1098.08 93.76 1099.1 94.7947 1099.1 96.864V102H1097.85V101.04C1097.43 101.733 1096.68 102.08 1095.58 102.08C1094.82 102.08 1094.21 101.856 1093.74 101.408C1093.28 100.96 1093.05 100.395 1093.05 99.712C1093.05 98.9333 1093.34 98.3307 1093.93 97.904C1094.53 97.4667 1095.34 97.248 1096.36 97.248H1097.83V96.832C1097.83 96.192 1097.69 95.712 1097.4 95.392C1097.11 95.0613 1096.63 94.896 1095.94 94.896C1095.08 94.896 1094.31 95.1253 1093.64 95.584ZM1104.73 101.856C1104.55 101.675 1104.46 101.451 1104.46 101.184C1104.46 100.917 1104.55 100.693 1104.73 100.512C1104.92 100.331 1105.14 100.24 1105.41 100.24C1105.67 100.24 1105.9 100.331 1106.08 100.512C1106.26 100.693 1106.35 100.917 1106.35 101.184C1106.35 101.451 1106.26 101.675 1106.08 101.856C1105.9 102.037 1105.67 102.128 1105.41 102.128C1105.14 102.128 1104.92 102.037 1104.73 101.856Z" fill="#000334"/>
<path d="M1370.08 52.3014C1339.11 86.4225 1332.66 125.992 1370.74 159.713C1400.76 186.291 1452.58 177.68 1483.54 143.559C1514.51 109.438 1514.21 61.3482 1482.88 36.1481C1451.54 10.9481 1401.04 18.1797 1370.08 52.3014Z" fill="#991740"/>
<path d="M1366.53 153.646C1335.2 128.444 1334.59 80.7001 1365.17 47.0068C1395.75 13.3135 1445.94 6.42989 1477.27 31.6317C1508.6 56.8335 1509.21 104.577 1478.63 138.271C1448.05 171.964 1397.86 178.848 1366.53 153.646Z" fill="#FF1C4F"/>
<path d="M1374.7 144.644C1347.99 123.16 1347.47 82.459 1373.54 53.7362C1399.6 25.0133 1442.39 19.1451 1469.1 40.6291C1495.81 62.1131 1496.33 102.814 1470.26 131.537C1444.19 160.259 1401.41 166.128 1374.7 144.644Z" fill="white"/>
<path d="M1382.22 136.363C1359.76 118.3 1359.32 84.0815 1381.24 59.9329C1403.15 35.7843 1439.13 30.8505 1461.58 48.9131C1484.04 66.9756 1484.48 101.194 1462.56 125.343C1440.64 149.492 1404.67 154.425 1382.22 136.363Z" fill="#FF1C4F"/>
<path d="M1390.03 127.754C1371.99 113.247 1371.64 85.7644 1389.24 66.3695C1406.84 46.9746 1435.73 43.0121 1453.77 57.519C1471.81 72.0259 1472.16 99.5088 1454.56 118.904C1436.95 138.299 1408.06 142.261 1390.03 127.754Z" fill="white"/>
<path d="M1397.91 119.067C1384.34 108.15 1384.08 87.4675 1397.32 72.8716C1410.57 58.2757 1432.31 55.2937 1445.88 66.211C1459.46 77.1283 1459.72 97.8108 1446.48 112.407C1433.23 127.003 1411.49 129.985 1397.91 119.067Z" fill="#FF1C4F"/>
<path d="M1405.9 110.264C1396.85 102.983 1396.67 89.1886 1405.51 79.4538C1414.34 69.7189 1428.84 67.73 1437.9 75.0113C1446.95 82.2926 1447.13 96.0869 1438.29 105.822C1429.46 115.557 1414.95 117.546 1405.9 110.264Z" fill="white"/>
<path d="M1414.81 86.9373C1410.98 91.1545 1411.06 97.1297 1414.98 100.284C1418.9 103.438 1425.18 102.576 1429.01 98.3586C1432.83 94.1414 1432.76 88.1661 1428.84 85.0122C1424.91 81.8582 1418.63 82.7201 1414.81 86.9373Z" fill="#FF1C4F"/>
<path d="M1363 38C1363 38 1354.09 9 1349.49 9C1344.89 9 1343 18.7422 1343 18.7422L1363 38Z" fill="#FFA523"/>
<path d="M1362 39C1362 39 1331 30.5351 1331 26.1669C1331 21.7988 1341.41 20 1341.41 20L1362 39Z" fill="#FFA523"/>
<path d="M1342.06 19.4717L1421.91 92.6471" stroke="#004A67" stroke-width="2.0972" stroke-miterlimit="10"/>
<path d="M1317.27 58.0932C1317.27 58.0932 1297.43 36.8278 1293.5 38.5571C1289.57 40.2863 1292.06 49.2684 1292.06 49.2684L1317.27 58.0932Z" fill="#0070C0"/>
<path d="M1316.91 59.0329C1316.91 59.0329 1287.2 63.3704 1285.36 59.6707C1283.53 55.971 1291.56 50.582 1291.56 50.582L1316.91 59.0329Z" fill="#0070C0"/>
<path d="M1291.56 49.9766L1421.91 92.6488" stroke="#004A67" stroke-width="2.0972" stroke-miterlimit="10"/>
<path d="M1313.62 115.105C1313.62 115.105 1284.86 106.852 1282.48 110.27C1280.11 113.687 1287.25 120.092 1287.25 120.092L1313.62 115.105Z" fill="#61CECB"/>
<path d="M1313.83 116.082C1313.83 116.082 1291 134.489 1287.37 132.253C1283.74 130.017 1287.55 121.457 1287.55 121.457L1313.83 116.082Z" fill="#61CECB"/>
<path d="M1287.22 120.94L1421.91 92.6475" stroke="#004A67" stroke-width="2.0972" stroke-miterlimit="10"/>
<path d="M1312.62 171.97L1421.91 92.6475" stroke="#004A67" stroke-width="2.0972" stroke-miterlimit="10"/>
</g>
</g>
<defs>
<filter id="filter0_d_1900_2637" x="0" y="0" width="1556" height="150" filterUnits="userSpaceOnUse" color-interpolation-filters="sRGB">
<feFlood flood-opacity="0" result="BackgroundImageFix"/>
<feColorMatrix in="SourceAlpha" type="matrix" values="0 0 0 0 0 0 0 0 0 0 0 0 0 0 0 0 0 0 127 0" result="hardAlpha"/>
<feOffset/>
<feGaussianBlur stdDeviation="5"/>
<feComposite in2="hardAlpha" operator="out"/>
<feColorMatrix type="matrix" values="0 0 0 0 0.0470588 0 0 0 0 0.101961 0 0 0 0 0.294118 0 0 0 0.1 0"/>
<feBlend mode="normal" in2="BackgroundImageFix" result="effect1_dropShadow_1900_2637"/>
<feBlend mode="normal" in="SourceGraphic" in2="effect1_dropShadow_1900_2637" result="shape"/>
</filter>
<linearGradient id="paint0_linear_1900_2637" x1="9.99999" y1="75" x2="1546" y2="74.9999" gradientUnits="userSpaceOnUse">
<stop stop-color="white"/>
<stop offset="0.729167" stop-color="#F5FEE8"/>
</linearGradient>
<clipPath id="clip0_1900_2637">
<rect x="10" y="10" width="1536" height="130" rx="15" fill="white"/>
</clipPath>
</defs>
</svg>
