<svg width="1811" height="868" viewBox="0 0 1811 868" fill="none" xmlns="http://www.w3.org/2000/svg">
<g filter="url(#filter0_d_1_2)">
<path d="M1766 296H1111C1099.95 296 1091 304.954 1091 316V641C1091 652.046 1099.95 661 1111 661H1766C1777.05 661 1786 652.046 1786 641V316C1786 304.954 1777.05 296 1766 296Z" fill="#F9FAFB"/>
</g>
<path d="M1162 462.5H1712" stroke="#95ACC0" stroke-opacity="0.2" stroke-dasharray="7 6"/>
<path d="M1193.07 566H1170C1165.58 566 1162 569.582 1162 574V616C1162 620.418 1165.58 624 1170 624H1193.07C1197.49 624 1201.07 620.418 1201.07 616V574C1201.07 569.582 1197.49 566 1193.07 566Z" fill="#D9D9D9"/>
<path d="M1239.52 482H1216.45C1212.03 482 1208.45 485.582 1208.45 490V616C1208.45 620.418 1212.03 624 1216.45 624H1239.52C1243.94 624 1247.52 620.418 1247.52 616V490C1247.52 485.582 1243.94 482 1239.52 482Z" fill="#D9D9D9"/>
<path d="M1285.97 526H1262.9C1258.48 526 1254.9 529.582 1254.9 534V616C1254.9 620.418 1258.48 624 1262.9 624H1285.97C1290.39 624 1293.97 620.418 1293.97 616V534C1293.97 529.582 1290.39 526 1285.97 526Z" fill="#D9D9D9"/>
<path d="M1332.41 512H1309.34C1304.92 512 1301.34 515.582 1301.34 520V616C1301.34 620.418 1304.92 624 1309.34 624H1332.41C1336.83 624 1340.41 620.418 1340.41 616V520C1340.41 515.582 1336.83 512 1332.41 512Z" fill="#D9D9D9"/>
<path d="M1378.86 534H1355.79C1351.37 534 1347.79 537.582 1347.79 542V616C1347.79 620.418 1351.37 624 1355.79 624H1378.86C1383.28 624 1386.86 620.418 1386.86 616V542C1386.86 537.582 1383.28 534 1378.86 534Z" fill="#D9D9D9"/>
<path d="M1425.31 463H1402.24C1397.82 463 1394.24 466.582 1394.24 471V616C1394.24 620.418 1397.82 624 1402.24 624H1425.31C1429.73 624 1433.31 620.418 1433.31 616V471C1433.31 466.582 1429.73 463 1425.31 463Z" fill="#D9D9D9"/>
<path d="M1471.76 546H1448.69C1444.27 546 1440.69 549.582 1440.69 554V616C1440.69 620.418 1444.27 624 1448.69 624H1471.76C1476.18 624 1479.76 620.418 1479.76 616V554C1479.76 549.582 1476.18 546 1471.76 546Z" fill="#D9D9D9"/>
<path d="M1518.21 482H1495.14C1490.72 482 1487.14 485.582 1487.14 490V616C1487.14 620.418 1490.72 624 1495.14 624H1518.21C1522.63 624 1526.21 620.418 1526.21 616V490C1526.21 485.582 1522.63 482 1518.21 482Z" fill="#D9D9D9"/>
<path d="M1564.66 585H1541.59C1537.17 585 1533.59 588.582 1533.59 593V616C1533.59 620.418 1537.17 624 1541.59 624H1564.66C1569.08 624 1572.66 620.418 1572.66 616V593C1572.66 588.582 1569.08 585 1564.66 585Z" fill="#D9D9D9"/>
<path d="M1611.1 512H1588.03C1583.61 512 1580.03 515.582 1580.03 520V616C1580.03 620.418 1583.61 624 1588.03 624H1611.1C1615.52 624 1619.1 620.418 1619.1 616V520C1619.1 515.582 1615.52 512 1611.1 512Z" fill="#D9D9D9"/>
<path d="M1657.55 561H1634.48C1630.06 561 1626.48 564.582 1626.48 569V616C1626.48 620.418 1630.06 624 1634.48 624H1657.55C1661.97 624 1665.55 620.418 1665.55 616V569C1665.55 564.582 1661.97 561 1657.55 561Z" fill="#D9D9D9"/>
<path d="M1704 526H1680.93C1676.51 526 1672.93 529.582 1672.93 534V616C1672.93 620.418 1676.51 624 1680.93 624H1704C1708.42 624 1712 620.418 1712 616V534C1712 529.582 1708.42 526 1704 526Z" fill="#D9D9D9"/>
<g filter="url(#filter1_d_1_2)">
<path d="M1220 232H940C937.239 232 935 234.239 935 237V429C935 431.761 937.239 434 940 434H1220C1222.76 434 1225 431.761 1225 429V237C1225 234.239 1222.76 232 1220 232Z" fill="white"/>
</g>
<g filter="url(#filter2_d_1_2)">
<path d="M1760 407C1760 379.386 1737.61 357 1710 357C1682.39 357 1660 379.386 1660 407C1660 434.614 1682.39 457 1710 457C1737.61 457 1760 434.614 1760 407Z" fill="white"/>
</g>
<path d="M1704.74 433.057L1683.94 412.138C1682.69 410.881 1682.69 408.843 1683.94 407.586L1688.46 403.035C1689.71 401.778 1691.74 401.778 1692.99 403.035L1707 417.127L1737.01 386.943C1738.26 385.686 1740.29 385.686 1741.54 386.943L1746.06 391.494C1747.31 392.751 1747.31 394.789 1746.06 396.046L1709.26 433.057C1708.01 434.314 1705.99 434.314 1704.74 433.057Z" fill="#0E0E76"/>
<g filter="url(#filter3_d_1_2)">
<path d="M964 588H857C854.239 588 852 590.239 852 593V680C852 682.761 854.239 685 857 685H964C966.761 685 969 682.761 969 680V593C969 590.239 966.761 588 964 588Z" fill="white"/>
</g>
<g filter="url(#filter4_d_1_2)">
<path d="M1481 588H1241C1238.24 588 1236 590.239 1236 593V732C1236 734.761 1238.24 737 1241 737H1481C1483.76 737 1486 734.761 1486 732V593C1486 590.239 1483.76 588 1481 588Z" fill="white"/>
</g>
<path d="M898.423 518.827V525.307H892.865V518.827H886.385V513.315H892.865V506.835H898.423V513.315H904.858V518.827H898.423Z" fill="#E3A92B"/>
<path d="M1394.24 253.96V243.64H1414.84V253.96H1394.24Z" fill="#E3A92B"/>
<path d="M1592.23 746.77V755.41H1584.82V746.77H1576.18V739.42H1584.82V730.78H1592.23V739.42H1600.81V746.77H1592.23Z" fill="#E3A92B"/>
<mask id="mask0_1_2" style="mask-type:luminance" maskUnits="userSpaceOnUse" x="936" y="257" width="363" height="147">
<path d="M1299 257H936V404H1299V257Z" fill="white"/>
</mask>
<g mask="url(#mask0_1_2)">
<path d="M961 318C961 314.41 963.91 311.5 967.5 311.5H981.5C985.09 311.5 988 314.41 988 318C988 321.59 985.09 324.5 981.5 324.5H967.5C963.91 324.5 961 321.59 961 318Z" fill="#0E0E76"/>
<path d="M981.5 336.5H967.5C963.91 336.5 961 339.41 961 343C961 346.59 963.91 349.5 967.5 349.5H981.5C985.09 349.5 988 346.59 988 343C988 339.41 985.09 336.5 981.5 336.5Z" fill="#8DBE24"/>
<path d="M981.5 361.5H967.5C963.91 361.5 961 364.41 961 368C961 371.59 963.91 374.5 967.5 374.5H981.5C985.09 374.5 988 371.59 988 368C988 364.41 985.09 361.5 981.5 361.5Z" fill="#11D17E"/>
</g>
<path opacity="0.1" d="M1106.01 394.417C1141.13 394.417 1169.61 365.803 1169.61 330.506C1169.61 295.209 1141.13 266.595 1106.01 266.595C1070.88 266.595 1042.41 295.209 1042.41 330.506C1042.41 365.803 1070.88 394.417 1106.01 394.417Z" fill="#B6B6B6"/>
<path d="M1049.83 297.912C1047.44 296.526 1044.37 297.337 1043.17 299.824C1035.85 314.963 1034.16 332.303 1038.53 348.668C1043.32 366.65 1055.03 381.982 1071.07 391.291C1087.12 400.599 1106.18 403.122 1124.08 398.303C1140.36 393.918 1154.47 383.78 1163.85 369.84C1165.39 367.551 1164.56 364.474 1162.17 363.088L1106 330.5L1049.83 297.912Z" fill="#0E0E76"/>
<path d="M1045.66 365.508C1043.27 366.894 1042.44 369.97 1043.97 372.267C1054 387.315 1069.15 398.261 1086.67 402.978C1105.8 408.129 1126.18 405.433 1143.33 395.482C1160.48 385.532 1173 369.143 1178.12 349.921C1182.82 332.315 1180.96 313.654 1173.01 297.399C1171.8 294.917 1168.73 294.106 1166.34 295.492L1106 330.5L1045.66 365.508Z" fill="#8DBE24"/>
<path d="M1106.01 405.603C1106.01 408.364 1108.25 410.619 1111 410.445C1130.32 409.227 1148.6 400.976 1162.37 387.143C1177.31 372.122 1185.71 351.749 1185.71 330.507C1185.71 309.264 1177.31 288.891 1162.37 273.87C1148.6 260.037 1130.32 251.786 1111 250.568C1108.25 250.394 1106.01 252.649 1106.01 255.41V330.507V405.603Z" fill="#11D17E"/>
<g filter="url(#filter5_d_1_2)">
<path d="M1106.01 376.158C1131.1 376.158 1151.43 355.719 1151.43 330.507C1151.43 305.295 1131.1 284.856 1106.01 284.856C1080.92 284.856 1060.58 305.295 1060.58 330.507C1060.58 355.719 1080.92 376.158 1106.01 376.158Z" fill="white"/>
</g>
<path d="M1097.51 322.512V324.124L1090.41 340.286H1087.31L1094.4 324.856H1085.19V322.512H1097.51ZM1103.37 330.068H1105.13C1105.81 330.068 1106.38 329.95 1106.82 329.714C1107.28 329.478 1107.62 329.153 1107.84 328.738C1108.06 328.323 1108.17 327.847 1108.17 327.31C1108.17 326.748 1108.07 326.268 1107.86 325.869C1107.67 325.462 1107.37 325.149 1106.96 324.929C1106.56 324.709 1106.05 324.6 1105.43 324.6C1104.91 324.6 1104.44 324.705 1104.02 324.917C1103.6 325.12 1103.27 325.413 1103.03 325.796C1102.78 326.17 1102.66 326.618 1102.66 327.139H1099.71C1099.71 326.195 1099.96 325.356 1100.45 324.624C1100.95 323.892 1101.62 323.318 1102.48 322.903C1103.34 322.48 1104.31 322.268 1105.38 322.268C1106.53 322.268 1107.53 322.459 1108.39 322.842C1109.25 323.216 1109.92 323.778 1110.4 324.526C1110.88 325.275 1111.12 326.203 1111.12 327.31C1111.12 327.814 1111 328.327 1110.77 328.848C1110.53 329.369 1110.18 329.845 1109.72 330.276C1109.25 330.699 1108.68 331.045 1107.99 331.314C1107.29 331.574 1106.49 331.704 1105.58 331.704H1103.37V330.068ZM1103.37 332.363V330.752H1105.58C1106.62 330.752 1107.51 330.874 1108.24 331.118C1108.98 331.362 1109.58 331.7 1110.05 332.131C1110.51 332.555 1110.85 333.039 1111.06 333.584C1111.28 334.129 1111.39 334.707 1111.39 335.317C1111.39 336.148 1111.24 336.888 1110.94 337.539C1110.65 338.182 1110.23 338.727 1109.68 339.175C1109.14 339.622 1108.5 339.96 1107.76 340.188C1107.04 340.416 1106.25 340.53 1105.4 340.53C1104.63 340.53 1103.9 340.424 1103.2 340.212C1102.5 340.001 1101.87 339.688 1101.32 339.273C1100.77 338.849 1100.33 338.324 1100 337.698C1099.68 337.063 1099.53 336.331 1099.53 335.501H1102.47C1102.47 336.03 1102.59 336.497 1102.83 336.904C1103.09 337.303 1103.44 337.616 1103.88 337.844C1104.34 338.072 1104.86 338.186 1105.44 338.186C1106.06 338.186 1106.6 338.076 1107.04 337.857C1107.49 337.637 1107.83 337.311 1108.07 336.88C1108.31 336.449 1108.44 335.928 1108.44 335.317C1108.44 334.626 1108.3 334.064 1108.03 333.633C1107.76 333.202 1107.38 332.884 1106.89 332.681C1106.39 332.469 1105.8 332.363 1105.13 332.363H1103.37ZM1114 326.87V325.93C1114 325.255 1114.15 324.64 1114.44 324.087C1114.74 323.534 1115.16 323.09 1115.72 322.756C1116.28 322.423 1116.96 322.256 1117.75 322.256C1118.56 322.256 1119.25 322.423 1119.8 322.756C1120.36 323.09 1120.79 323.534 1121.08 324.087C1121.38 324.64 1121.52 325.255 1121.52 325.93V326.87C1121.52 327.529 1121.38 328.136 1121.08 328.689C1120.8 329.242 1120.38 329.686 1119.81 330.02C1119.26 330.353 1118.58 330.52 1117.78 330.52C1116.98 330.52 1116.29 330.353 1115.72 330.02C1115.16 329.686 1114.74 329.242 1114.44 328.689C1114.15 328.136 1114 327.529 1114 326.87ZM1116.04 325.93V326.87C1116.04 327.196 1116.1 327.505 1116.22 327.798C1116.35 328.091 1116.55 328.327 1116.81 328.506C1117.07 328.685 1117.39 328.774 1117.78 328.774C1118.17 328.774 1118.48 328.685 1118.73 328.506C1118.98 328.327 1119.17 328.091 1119.29 327.798C1119.41 327.505 1119.47 327.196 1119.47 326.87V325.93C1119.47 325.597 1119.41 325.283 1119.28 324.99C1119.15 324.689 1118.97 324.449 1118.71 324.27C1118.46 324.091 1118.14 324.001 1117.75 324.001C1117.38 324.001 1117.06 324.091 1116.8 324.27C1116.55 324.449 1116.35 324.689 1116.22 324.99C1116.1 325.283 1116.04 325.597 1116.04 325.93ZM1122.57 336.88V335.928C1122.57 335.26 1122.72 334.65 1123.01 334.097C1123.31 333.543 1123.74 333.1 1124.31 332.766C1124.87 332.433 1125.54 332.266 1126.33 332.266C1127.15 332.266 1127.83 332.433 1128.38 332.766C1128.94 333.1 1129.37 333.543 1129.65 334.097C1129.95 334.65 1130.09 335.26 1130.09 335.928V336.88C1130.09 337.547 1129.95 338.158 1129.65 338.711C1129.37 339.264 1128.95 339.708 1128.39 340.042C1127.84 340.375 1127.17 340.542 1126.37 340.542C1125.56 340.542 1124.88 340.375 1124.31 340.042C1123.74 339.708 1123.31 339.264 1123.01 338.711C1122.72 338.158 1122.57 337.547 1122.57 336.88ZM1124.62 335.928V336.88C1124.62 337.205 1124.69 337.515 1124.82 337.808C1124.96 338.101 1125.16 338.341 1125.42 338.528C1125.68 338.707 1125.99 338.796 1126.36 338.796C1126.77 338.796 1127.11 338.707 1127.36 338.528C1127.61 338.341 1127.79 338.105 1127.89 337.82C1128.01 337.527 1128.07 337.214 1128.07 336.88V335.928C1128.07 335.594 1128 335.281 1127.87 334.988C1127.75 334.695 1127.56 334.459 1127.3 334.28C1127.04 334.101 1126.72 334.011 1126.33 334.011C1125.95 334.011 1125.63 334.101 1125.38 334.28C1125.13 334.459 1124.94 334.695 1124.81 334.988C1124.68 335.281 1124.62 335.594 1124.62 335.928ZM1127.06 325.051L1118.39 338.943L1116.88 338.076L1125.56 324.185L1127.06 325.051Z" fill="#0E0E76"/>
<path d="M1465 677.5C1465 636.079 1431.42 602.5 1390 602.5C1348.58 602.5 1315 636.079 1315 677.5C1315 718.921 1348.58 752.5 1390 752.5C1431.42 752.5 1465 718.921 1465 677.5Z" fill="#E8EEF4"/>
<path d="M1390 677.5V602.5C1369.35 602.5 1350.65 611.043 1337.12 624.615L1390 677.5Z" fill="#778700"/>
<path d="M1390 677.5H1315C1315 656.847 1323.54 638.15 1337.12 624.615L1390 677.5Z" fill="#8CAF00"/>
<path d="M1390 677.5H1315C1315 698.153 1323.54 716.85 1337.12 730.385L1390 677.5Z" fill="#132861"/>
<path d="M1390 677.5V752.5C1369.35 752.5 1350.65 743.957 1337.12 730.385L1390 677.5Z" fill="#01174B"/>
<path d="M1390 677.5V752.5C1410.65 752.5 1429.35 743.957 1442.88 730.385L1390 677.5Z" fill="#000336"/>
<mask id="mask1_1_2" style="mask-type:luminance" maskUnits="userSpaceOnUse" x="1261" y="626" width="20" height="81">
<path d="M1281 626.5H1261V706.5H1281V626.5Z" fill="white"/>
</mask>
<g mask="url(#mask1_1_2)">
<mask id="mask2_1_2" style="mask-type:luminance" maskUnits="userSpaceOnUse" x="1261" y="626" width="20" height="21">
<path d="M1281 626.5H1261V646.5H1281V626.5Z" fill="white"/>
</mask>
<g mask="url(#mask2_1_2)">
<path d="M1277 626.5H1265C1262.79 626.5 1261 628.291 1261 630.5V642.5C1261 644.709 1262.79 646.5 1265 646.5H1277C1279.21 646.5 1281 644.709 1281 642.5V630.5C1281 628.291 1279.21 626.5 1277 626.5Z" fill="#000336"/>
</g>
<mask id="mask3_1_2" style="mask-type:luminance" maskUnits="userSpaceOnUse" x="1261" y="656" width="20" height="21">
<path d="M1281 656.5H1261V676.5H1281V656.5Z" fill="white"/>
</mask>
<g mask="url(#mask3_1_2)">
<path d="M1277 656.5H1265C1262.79 656.5 1261 658.291 1261 660.5V672.5C1261 674.709 1262.79 676.5 1265 676.5H1277C1279.21 676.5 1281 674.709 1281 672.5V660.5C1281 658.291 1279.21 656.5 1277 656.5Z" fill="#01174B"/>
</g>
<mask id="mask4_1_2" style="mask-type:luminance" maskUnits="userSpaceOnUse" x="1261" y="686" width="20" height="21">
<path d="M1281 686.5H1261V706.5H1281V686.5Z" fill="white"/>
</mask>
<g mask="url(#mask4_1_2)">
<path d="M1277 686.5H1265C1262.79 686.5 1261 688.291 1261 690.5V702.5C1261 704.709 1262.79 706.5 1265 706.5H1277C1279.21 706.5 1281 704.709 1281 702.5V690.5C1281 688.291 1279.21 686.5 1277 686.5Z" fill="#132861"/>
</g>
</g>
<path d="M1277 717.5H1265C1262.79 717.5 1261 719.291 1261 721.5V733.5C1261 735.709 1262.79 737.5 1265 737.5H1277C1279.21 737.5 1281 735.709 1281 733.5V721.5C1281 719.291 1279.21 717.5 1277 717.5Z" fill="#8CAF00"/>
<path d="M1277 749.5H1265C1262.79 749.5 1261 751.291 1261 753.5V765.5C1261 767.709 1262.79 769.5 1265 769.5H1277C1279.21 769.5 1281 767.709 1281 765.5V753.5C1281 751.291 1279.21 749.5 1277 749.5Z" fill="#778700"/>
<path d="M864 656.5C869.6 657.7 872.667 655.333 873.5 654L879 646L883.5 638L891 632.5H900L909 636L917 640H931L936.5 642.5L944 648.5L951 651.5L958 648.5L964 646L968 638L972.5 632.5L979 625.5L986.5 624" stroke="#8CAF00" stroke-width="3" stroke-linecap="round" stroke-linejoin="round"/>
<path d="M185 633.613C265.11 685.38 315.82 706.554 331.161 710.671L465.184 663.745L572.908 621.758L657 672.5L754 735.5L831.5 780L922 710.671L1003 641L1130 522.473L1204.5 456L1261.5 400L1348.5 507.5L1435.21 612.867L1470 654L1515 710.671L1542 744L1637 612.867" stroke="url(#paint0_linear_1_2)" stroke-width="10" stroke-linecap="round" stroke-linejoin="round"/>
<defs>
<filter id="filter0_d_1_2" x="1066" y="275" width="745" height="415" filterUnits="userSpaceOnUse" color-interpolation-filters="sRGB">
<feFlood flood-opacity="0" result="BackgroundImageFix"/>
<feColorMatrix in="SourceAlpha" type="matrix" values="0 0 0 0 0 0 0 0 0 0 0 0 0 0 0 0 0 0 127 0" result="hardAlpha"/>
<feOffset dy="4"/>
<feGaussianBlur stdDeviation="12.5"/>
<feComposite in2="hardAlpha" operator="out"/>
<feColorMatrix type="matrix" values="0 0 0 0 0 0 0 0 0 0 0 0 0 0 0 0 0 0 0.05 0"/>
<feBlend mode="normal" in2="BackgroundImageFix" result="effect1_dropShadow_1_2"/>
<feBlend mode="normal" in="SourceGraphic" in2="effect1_dropShadow_1_2" result="shape"/>
</filter>
<filter id="filter1_d_1_2" x="919" y="220" width="322" height="234" filterUnits="userSpaceOnUse" color-interpolation-filters="sRGB">
<feFlood flood-opacity="0" result="BackgroundImageFix"/>
<feColorMatrix in="SourceAlpha" type="matrix" values="0 0 0 0 0 0 0 0 0 0 0 0 0 0 0 0 0 0 127 0" result="hardAlpha"/>
<feOffset dy="4"/>
<feGaussianBlur stdDeviation="8"/>
<feComposite in2="hardAlpha" operator="out"/>
<feColorMatrix type="matrix" values="0 0 0 0 0 0 0 0 0 0 0 0 0 0 0 0 0 0 0.15 0"/>
<feBlend mode="normal" in2="BackgroundImageFix" result="effect1_dropShadow_1_2"/>
<feBlend mode="normal" in="SourceGraphic" in2="effect1_dropShadow_1_2" result="shape"/>
</filter>
<filter id="filter2_d_1_2" x="1644" y="345" width="132" height="132" filterUnits="userSpaceOnUse" color-interpolation-filters="sRGB">
<feFlood flood-opacity="0" result="BackgroundImageFix"/>
<feColorMatrix in="SourceAlpha" type="matrix" values="0 0 0 0 0 0 0 0 0 0 0 0 0 0 0 0 0 0 127 0" result="hardAlpha"/>
<feOffset dy="4"/>
<feGaussianBlur stdDeviation="8"/>
<feComposite in2="hardAlpha" operator="out"/>
<feColorMatrix type="matrix" values="0 0 0 0 0 0 0 0 0 0 0 0 0 0 0 0 0 0 0.15 0"/>
<feBlend mode="normal" in2="BackgroundImageFix" result="effect1_dropShadow_1_2"/>
<feBlend mode="normal" in="SourceGraphic" in2="effect1_dropShadow_1_2" result="shape"/>
</filter>
<filter id="filter3_d_1_2" x="836" y="576" width="149" height="129" filterUnits="userSpaceOnUse" color-interpolation-filters="sRGB">
<feFlood flood-opacity="0" result="BackgroundImageFix"/>
<feColorMatrix in="SourceAlpha" type="matrix" values="0 0 0 0 0 0 0 0 0 0 0 0 0 0 0 0 0 0 127 0" result="hardAlpha"/>
<feOffset dy="4"/>
<feGaussianBlur stdDeviation="8"/>
<feComposite in2="hardAlpha" operator="out"/>
<feColorMatrix type="matrix" values="0 0 0 0 0 0 0 0 0 0 0 0 0 0 0 0 0 0 0.15 0"/>
<feBlend mode="normal" in2="BackgroundImageFix" result="effect1_dropShadow_1_2"/>
<feBlend mode="normal" in="SourceGraphic" in2="effect1_dropShadow_1_2" result="shape"/>
</filter>
<filter id="filter4_d_1_2" x="1220" y="576" width="282" height="181" filterUnits="userSpaceOnUse" color-interpolation-filters="sRGB">
<feFlood flood-opacity="0" result="BackgroundImageFix"/>
<feColorMatrix in="SourceAlpha" type="matrix" values="0 0 0 0 0 0 0 0 0 0 0 0 0 0 0 0 0 0 127 0" result="hardAlpha"/>
<feOffset dy="4"/>
<feGaussianBlur stdDeviation="8"/>
<feComposite in2="hardAlpha" operator="out"/>
<feColorMatrix type="matrix" values="0 0 0 0 0 0 0 0 0 0 0 0 0 0 0 0 0 0 0.15 0"/>
<feBlend mode="normal" in2="BackgroundImageFix" result="effect1_dropShadow_1_2"/>
<feBlend mode="normal" in="SourceGraphic" in2="effect1_dropShadow_1_2" result="shape"/>
</filter>
<filter id="filter5_d_1_2" x="1048.58" y="272.856" width="114.856" height="115.301" filterUnits="userSpaceOnUse" color-interpolation-filters="sRGB">
<feFlood flood-opacity="0" result="BackgroundImageFix"/>
<feColorMatrix in="SourceAlpha" type="matrix" values="0 0 0 0 0 0 0 0 0 0 0 0 0 0 0 0 0 0 127 0" result="hardAlpha"/>
<feOffset/>
<feGaussianBlur stdDeviation="6"/>
<feComposite in2="hardAlpha" operator="out"/>
<feColorMatrix type="matrix" values="0 0 0 0 0 0 0 0 0 0 0 0 0 0 0 0 0 0 0.08 0"/>
<feBlend mode="normal" in2="BackgroundImageFix" result="effect1_dropShadow_1_2"/>
<feBlend mode="normal" in="SourceGraphic" in2="effect1_dropShadow_1_2" result="shape"/>
</filter>
<linearGradient id="paint0_linear_1_2" x1="1703.25" y1="659.296" x2="164.999" y2="657.425" gradientUnits="userSpaceOnUse">
<stop offset="0.0208333" stop-color="#9AC70B"/>
<stop offset="0.979167" stop-color="#EEBD00" stop-opacity="0"/>
</linearGradient>
</defs>
</svg>
