<svg width="221" height="221" viewBox="0 0 221 221" fill="none" xmlns="http://www.w3.org/2000/svg">
<g id="potted-plant 1" opacity="0.8">
<path id="Vector" d="M110.552 132.85C108.825 132.85 107.444 131.469 107.444 129.742V117.343C107.444 116.886 107.143 116.483 106.706 116.352L78.0468 107.766C77.4991 107.601 77.1876 107.024 77.352 106.476L78.5565 102.455C78.7208 101.907 79.2982 101.596 79.8459 101.76L106.111 109.628C106.775 109.827 107.444 109.33 107.444 108.636V108.126C107.444 101.219 109.378 94.3822 113.245 88.5809C114.194 87.1472 115.008 85.6492 115.683 84.0995C115.925 83.5442 115.615 82.9116 115.036 82.7383L82.1898 72.8906C81.6415 72.7263 81.3307 72.1489 81.4951 71.6005L82.7002 67.5799C82.8646 67.0318 83.4419 66.7207 83.9903 66.885L116.629 76.6704C117.229 76.85 117.851 76.4612 117.926 75.8396C118.074 74.6207 118.149 73.3872 118.149 72.1441V58.6768C118.149 58.1047 118.613 57.6409 119.185 57.6409H123.328C123.901 57.6409 124.364 58.1047 124.364 58.6768V72.1441C124.364 72.4445 124.361 72.7435 124.353 73.0426C124.336 73.7643 125.022 74.3106 125.714 74.1041L150.098 66.8144C150.647 66.6506 151.224 66.9621 151.388 67.5102L152.59 71.5322C152.754 72.0798 152.442 72.6572 151.895 72.8216L123.721 81.2437C123.376 81.3466 123.11 81.6222 123.012 81.9689C122.029 85.4414 120.517 88.7571 118.494 91.8269C115.317 96.6613 113.66 102.324 113.66 108.126V113.588C113.66 114.281 114.328 114.779 114.993 114.58L141.188 106.732C141.736 106.568 142.314 106.879 142.477 107.427L143.682 111.448C143.846 111.997 143.535 112.574 142.987 112.738L114.399 121.303C113.96 121.434 113.66 121.837 113.66 122.295V129.742C113.66 131.469 112.278 132.85 110.552 132.85Z" fill="#497426"/>
<path id="Vector_2" d="M110.552 132.85C108.825 132.85 107.444 131.469 107.444 129.742V108.126C107.444 101.219 109.378 94.3822 113.245 88.5809C116.491 83.6775 118.149 78.0144 118.149 72.1441V57.6409H124.364V72.1441C124.364 79.1884 122.361 85.9566 118.494 91.8269C115.317 96.6613 113.659 102.324 113.659 108.126V129.742C113.659 131.469 112.278 132.85 110.552 132.85Z" fill="#497426"/>
<path id="Vector_3" d="M110.552 132.85C108.825 132.85 107.444 131.469 107.444 129.742V108.126C107.444 101.219 109.378 94.3822 113.245 88.5809C116.491 83.6775 118.149 78.0144 118.149 72.1441V57.6409H124.364V72.1441C124.364 79.1884 122.361 85.9566 118.494 91.8269C115.317 96.6613 113.659 102.324 113.659 108.126V129.742C113.659 131.469 112.278 132.85 110.552 132.85Z" fill="url(#paint0_linear_1732_5400)"/>
<g id="Group">
<path id="Vector_4" d="M77.9541 104.465L111.38 114.479" stroke="#497426" stroke-width="0.9078" stroke-miterlimit="10"/>
<path id="Vector_5" d="M77.9541 104.465L111.38 114.479" stroke="url(#paint1_linear_1732_5400)" stroke-width="0.9078" stroke-miterlimit="10"/>
<path id="Vector_6" d="M82.0977 69.5901L118.494 80.502" stroke="#497426" stroke-width="0.9078" stroke-miterlimit="10"/>
<path id="Vector_7" d="M82.0977 69.5901L118.494 80.502" stroke="url(#paint2_linear_1732_5400)" stroke-width="0.9078" stroke-miterlimit="10"/>
<path id="Vector_8" d="M143.08 109.438L109.653 119.452" stroke="#497426" stroke-width="0.9078" stroke-miterlimit="10"/>
<path id="Vector_9" d="M143.08 109.438L109.653 119.452" stroke="url(#paint3_radial_1732_5400)" stroke-width="0.9078" stroke-miterlimit="10"/>
<path id="Vector_10" d="M143.08 109.438L109.653 119.452" stroke="url(#paint4_linear_1732_5400)" stroke-width="0.9078" stroke-miterlimit="10"/>
<path id="Vector_11" d="M151.988 69.5211L119.184 79.3279" stroke="#497426" stroke-width="0.9078" stroke-miterlimit="10"/>
<path id="Vector_12" d="M151.988 69.5211L119.184 79.3279" stroke="url(#paint5_linear_1732_5400)" stroke-width="0.9078" stroke-miterlimit="10"/>
<path id="Vector_13" d="M151.988 69.5211L119.184 79.3279" stroke="url(#paint6_linear_1732_5400)" stroke-width="0.9078" stroke-miterlimit="10"/>
</g>
<g id="Group_2">
<path id="Vector_14" d="M100.842 74.3499L119.564 79.9613" stroke="url(#paint7_linear_1732_5400)" stroke-width="0.25" stroke-linecap="round"/>
</g>
<g id="Group_3">
<path id="Vector_15" d="M91.0547 107.695L109.778 113.305" stroke="url(#paint8_linear_1732_5400)" stroke-width="0.25" stroke-linecap="round"/>
</g>
<g id="Group_4">
<path id="Vector_16" d="M127.854 113.84L109.132 119.451" stroke="url(#paint9_linear_1732_5400)" stroke-width="0.25" stroke-linecap="round"/>
</g>
<g id="Group_5">
<path id="Vector_17" d="M137.216 73.3706L118.494 78.9819" stroke="url(#paint10_linear_1732_5400)" stroke-width="0.25" stroke-linecap="round"/>
</g>
<g id="Group_6">
<path id="Vector_18" d="M121.256 62.0601V73.535C121.256 77.8576 120.242 82.1202 118.294 85.9794L114.341 93.8138C111.907 98.6378 110.639 103.966 110.639 109.369V127.019" stroke="url(#paint11_linear_1732_5400)" stroke-width="0.25" stroke-linecap="round"/>
</g>
<path id="Vector_19" d="M150.125 138.099C139.144 129.467 125.4 124.287 110.552 124.287C95.7034 124.287 81.9599 129.467 70.979 138.099H150.125Z" fill="url(#paint12_radial_1732_5400)"/>
<path id="Vector_20" d="M120.566 14.2704C106.546 27.8066 106.132 50.1138 119.668 64.1335C120.29 64.7551 121.326 64.8241 121.947 64.2026C135.967 50.6663 136.381 28.3591 122.845 14.3394C122.224 13.6488 121.188 13.6488 120.566 14.2704Z" fill="url(#paint13_radial_1732_5400)"/>
<g id="Group_7">
<path id="Vector_21" d="M120.779 18.7938C111.095 29.8763 110.81 48.1399 120.159 59.6181C120.589 60.1271 121.304 60.1836 121.734 59.6747C131.417 48.5922 131.704 30.3287 122.353 18.8503C121.924 18.2849 121.209 18.2849 120.779 18.7938Z" fill="url(#paint14_linear_1732_5400)"/>
</g>
<g id="Group_8">
<path id="Vector_22" d="M73.6034 79.6035L51.0858 72.8485C50.1721 72.5743 49.2028 73.0937 48.9903 74.0233C45.9988 87.1092 53.645 100.422 66.6279 104.397L89.1528 111.155C90.0637 111.428 91.0299 110.913 91.2461 109.987C94.3049 96.8926 86.6555 83.5125 73.6034 79.6035Z" fill="#7AAD33"/>
<path id="Vector_23" d="M73.6034 79.6035L51.0858 72.8485C50.1721 72.5743 49.2028 73.0937 48.9903 74.0233C45.9988 87.1092 53.645 100.422 66.6279 104.397L89.1528 111.155C90.0637 111.428 91.0299 110.913 91.2461 109.987C94.3049 96.8926 86.6555 83.5125 73.6034 79.6035Z" fill="url(#paint15_radial_1732_5400)"/>
</g>
<g id="Group_9">
<path id="Vector_24" d="M83.7556 46.5224L61.2458 39.7696C60.3291 39.4946 59.3572 40.0183 59.1481 40.9521C56.2184 54.0348 63.8033 67.3425 76.8493 71.316L99.3665 78.071C100.28 78.3452 101.249 77.8258 101.462 76.8963C104.454 63.8049 96.8042 50.4305 83.7556 46.5224Z" fill="#7AAD33"/>
<path id="Vector_25" d="M83.7556 46.5224L61.2458 39.7696C60.3291 39.4946 59.3572 40.0183 59.1481 40.9521C56.2184 54.0348 63.8033 67.3425 76.8493 71.316L99.3665 78.071C100.28 78.3452 101.249 77.8258 101.462 76.8963C104.454 63.8049 96.8042 50.4305 83.7556 46.5224Z" fill="url(#paint16_radial_1732_5400)"/>
</g>
<g id="Group_10">
<path id="Vector_26" d="M141.837 86.2335L164.354 79.4778C165.268 79.2043 166.237 79.7237 166.449 80.6533C169.441 93.7392 161.795 107.052 148.812 111.027L126.287 117.784C125.377 118.058 124.41 117.542 124.194 116.617C121.135 103.527 128.785 90.2088 141.837 86.2335Z" fill="#7AAD33"/>
<path id="Vector_27" d="M141.837 86.2335L164.354 79.4778C165.268 79.2043 166.237 79.7237 166.449 80.6533C169.441 93.7392 161.795 107.052 148.812 111.027L126.287 117.784C125.377 118.058 124.41 117.542 124.194 116.617C121.135 103.527 128.785 90.2088 141.837 86.2335Z" fill="url(#paint17_radial_1732_5400)"/>
<path id="Vector_28" d="M141.837 86.2335L164.354 79.4778C165.268 79.2043 166.237 79.7237 166.449 80.6533C169.441 93.7392 161.795 107.052 148.812 111.027L126.287 117.784C125.377 118.058 124.41 117.542 124.194 116.617C121.135 103.527 128.785 90.2088 141.837 86.2335Z" fill="url(#paint18_radial_1732_5400)"/>
</g>
<g id="Group_11">
<path id="Vector_29" d="M147.5 47.2829L170.017 40.5277C170.931 40.2536 171.901 40.7729 172.113 41.7028C175.105 54.7886 167.459 68.102 154.476 72.0764L131.953 78.8328C131.041 79.1063 130.074 78.5904 129.858 77.6635C126.797 64.5118 134.446 51.1924 147.5 47.2829Z" fill="#7AAD33"/>
<path id="Vector_30" d="M147.5 47.2829L170.017 40.5277C170.931 40.2536 171.901 40.7729 172.113 41.7028C175.105 54.7886 167.459 68.102 154.476 72.0764L131.953 78.8328C131.041 79.1063 130.074 78.5904 129.858 77.6635C126.797 64.5118 134.446 51.1924 147.5 47.2829Z" fill="url(#paint19_radial_1732_5400)"/>
<path id="Vector_31" d="M147.5 47.2829L170.017 40.5277C170.931 40.2536 171.901 40.7729 172.113 41.7028C175.105 54.7886 167.459 68.102 154.476 72.0764L131.953 78.8328C131.041 79.1063 130.074 78.5904 129.858 77.6635C126.797 64.5118 134.446 51.1924 147.5 47.2829Z" fill="url(#paint20_radial_1732_5400)"/>
</g>
<path id="Vector_32" d="M162.348 165.724H58.7544C56.8206 165.724 55.3013 164.205 55.3013 162.271V141.553C55.3013 139.619 56.8206 138.099 58.7544 138.099H162.348C164.282 138.099 165.801 139.619 165.801 141.553V162.271C165.801 164.205 164.282 165.724 162.348 165.724Z" fill="url(#paint21_radial_1732_5400)"/>
<path id="Vector_33" d="M162.348 165.724H58.7544C56.8206 165.724 55.3013 164.205 55.3013 162.271V141.553C55.3013 139.619 56.8206 138.099 58.7544 138.099H162.348C164.282 138.099 165.801 139.619 165.801 141.553V162.271C165.801 164.205 164.282 165.724 162.348 165.724Z" fill="url(#paint22_linear_1732_5400)"/>
<path id="Vector_34" d="M162.348 165.724H58.7544C56.8206 165.724 55.3013 164.205 55.3013 162.271V141.553C55.3013 139.619 56.8206 138.099 58.7544 138.099H162.348C164.282 138.099 165.801 139.619 165.801 141.553V162.271C165.801 164.205 164.282 165.724 162.348 165.724Z" fill="url(#paint23_linear_1732_5400)"/>
<path id="Vector_35" d="M162.348 165.724H58.7544C56.8206 165.724 55.3013 164.205 55.3013 162.271V141.553C55.3013 139.619 56.8206 138.099 58.7544 138.099H162.348C164.282 138.099 165.801 139.619 165.801 141.553V162.271C165.801 164.205 164.282 165.724 162.348 165.724Z" fill="url(#paint24_linear_1732_5400)"/>
<g id="Group_12">
<path id="Vector_36" d="M76.3286 141.386H162.039" stroke="url(#paint25_linear_1732_5400)" stroke-width="0.4" stroke-linecap="round"/>
</g>
<g id="Group_13">
<path id="Vector_37" d="M122.115 19.3277C125.397 24.926 130.715 37.1841 125.6 54.2683" stroke="url(#paint26_linear_1732_5400)" stroke-width="0.5" stroke-linecap="round"/>
</g>
<g id="Group_14">
<path id="Vector_38" d="M77.0474 48.02L84.6829 50.6176C86.5656 51.2581 88.4061 52.0604 89.9317 53.3354C93.333 56.1774 97.6515 61.3197 98.1984 67.8755" stroke="url(#paint27_radial_1732_5400)" stroke-width="0.4" stroke-linecap="round"/>
</g>
<g id="Group_15">
<path id="Vector_39" d="M67.3789 82.5566L75.0142 85.1541C76.8969 85.7943 78.7374 86.5968 80.263 87.8717C83.6643 90.7136 87.9828 95.856 88.5291 102.412" stroke="url(#paint28_radial_1732_5400)" stroke-width="0.4" stroke-linecap="round"/>
</g>
</g>
<defs>
<linearGradient id="paint0_linear_1732_5400" x1="118.328" y1="61.784" x2="118.328" y2="67.0134" gradientUnits="userSpaceOnUse">
<stop stop-color="#3F6928"/>
<stop offset="1" stop-color="#3F6928" stop-opacity="0"/>
</linearGradient>
<linearGradient id="paint1_linear_1732_5400" x1="89.5663" y1="112.633" x2="91.1492" y2="108.573" gradientUnits="userSpaceOnUse">
<stop stop-color="#4A5B3B"/>
<stop offset="1" stop-color="#4A5B3B" stop-opacity="0"/>
</linearGradient>
<linearGradient id="paint2_linear_1732_5400" x1="95.484" y1="79.1235" x2="97.4081" y2="73.8244" gradientUnits="userSpaceOnUse">
<stop stop-color="#4A5B3B"/>
<stop offset="1" stop-color="#4A5B3B" stop-opacity="0"/>
</linearGradient>
<radialGradient id="paint3_radial_1732_5400" cx="0" cy="0" r="1" gradientUnits="userSpaceOnUse" gradientTransform="translate(126.366 117.037) rotate(163.277) scale(8.39316 12.9096)">
<stop stop-color="#4A5B3B"/>
<stop offset="1" stop-color="#4A5B3B" stop-opacity="0"/>
</radialGradient>
<linearGradient id="paint4_linear_1732_5400" x1="120.118" y1="120.477" x2="119.292" y2="117.931" gradientUnits="userSpaceOnUse">
<stop stop-color="#4A5B3B"/>
<stop offset="1" stop-color="#4A5B3B" stop-opacity="0"/>
</linearGradient>
<linearGradient id="paint5_linear_1732_5400" x1="129.888" y1="80.3618" x2="128.646" y2="77.8376" gradientUnits="userSpaceOnUse">
<stop stop-color="#4A5B3B"/>
<stop offset="1" stop-color="#4A5B3B" stop-opacity="0"/>
</linearGradient>
<linearGradient id="paint6_linear_1732_5400" x1="131.745" y1="76.9909" x2="126.721" y2="78.3604" gradientUnits="userSpaceOnUse">
<stop stop-color="#4A5B3B"/>
<stop offset="1" stop-color="#4A5B3B" stop-opacity="0"/>
</linearGradient>
<linearGradient id="paint7_linear_1732_5400" x1="104.511" y1="75.2671" x2="123.179" y2="81.6878" gradientUnits="userSpaceOnUse">
<stop stop-color="#608246"/>
<stop offset="1" stop-color="#608246" stop-opacity="0"/>
</linearGradient>
<linearGradient id="paint8_linear_1732_5400" x1="94.724" y1="108.611" x2="124.658" y2="116.761" gradientUnits="userSpaceOnUse">
<stop stop-color="#648746"/>
<stop offset="1" stop-color="#648746" stop-opacity="0"/>
</linearGradient>
<linearGradient id="paint9_linear_1732_5400" x1="124.186" y1="114.757" x2="94.2507" y2="122.907" gradientUnits="userSpaceOnUse">
<stop stop-color="#648746"/>
<stop offset="1" stop-color="#648746" stop-opacity="0"/>
</linearGradient>
<linearGradient id="paint10_linear_1732_5400" x1="133.547" y1="74.2871" x2="103.613" y2="82.4378" gradientUnits="userSpaceOnUse">
<stop stop-color="#648746"/>
<stop offset="1" stop-color="#648746" stop-opacity="0"/>
</linearGradient>
<linearGradient id="paint11_linear_1732_5400" x1="119.044" y1="74.3541" x2="119.044" y2="132.846" gradientUnits="userSpaceOnUse">
<stop stop-color="#608246"/>
<stop offset="1" stop-color="#728C5B"/>
</linearGradient>
<radialGradient id="paint12_radial_1732_5400" cx="0" cy="0" r="1" gradientUnits="userSpaceOnUse" gradientTransform="translate(100.835 139.649) rotate(-90) scale(16.4086 65.6343)">
<stop stop-color="#774336"/>
<stop offset="1" stop-color="#714F4A"/>
</radialGradient>
<radialGradient id="paint13_radial_1732_5400" cx="0" cy="0" r="1" gradientUnits="userSpaceOnUse" gradientTransform="translate(128.826 39.224) rotate(180) scale(16.9877 48.0241)">
<stop stop-color="#A5D949"/>
<stop offset="1" stop-color="#80B93F"/>
</radialGradient>
<linearGradient id="paint14_linear_1732_5400" x1="121.257" y1="18.4189" x2="121.257" y2="60.0293" gradientUnits="userSpaceOnUse">
<stop stop-color="#9CD740"/>
<stop offset="1" stop-color="#9CD740" stop-opacity="0"/>
</linearGradient>
<radialGradient id="paint15_radial_1732_5400" cx="0" cy="0" r="1" gradientUnits="userSpaceOnUse" gradientTransform="translate(96.6399 95.2372) rotate(-150.851) scale(68.6788 25.2032)">
<stop stop-color="#AAE057"/>
<stop offset="1" stop-color="#AAE057" stop-opacity="0"/>
</radialGradient>
<radialGradient id="paint16_radial_1732_5400" cx="0" cy="0" r="1" gradientUnits="userSpaceOnUse" gradientTransform="translate(106.831 62.1563) rotate(-150.858) scale(68.6936 25.2048)">
<stop stop-color="#AAE057"/>
<stop offset="1" stop-color="#AAE057" stop-opacity="0"/>
</radialGradient>
<radialGradient id="paint17_radial_1732_5400" cx="0" cy="0" r="1" gradientUnits="userSpaceOnUse" gradientTransform="translate(165.809 81.7576) rotate(139.185) scale(55.8745 24.6869)">
<stop stop-color="#AAE057"/>
<stop offset="1" stop-color="#AAE057" stop-opacity="0"/>
</radialGradient>
<radialGradient id="paint18_radial_1732_5400" cx="0" cy="0" r="1" gradientUnits="userSpaceOnUse" gradientTransform="translate(167.097 77.705) rotate(123.495) scale(15.6304 3.62156)">
<stop stop-color="#ACE461"/>
<stop offset="1" stop-color="#ACE461" stop-opacity="0"/>
</radialGradient>
<radialGradient id="paint19_radial_1732_5400" cx="0" cy="0" r="1" gradientUnits="userSpaceOnUse" gradientTransform="translate(171.473 42.8073) rotate(139.185) scale(55.8745 24.6869)">
<stop stop-color="#AAE057"/>
<stop offset="1" stop-color="#AAE057" stop-opacity="0"/>
</radialGradient>
<radialGradient id="paint20_radial_1732_5400" cx="0" cy="0" r="1" gradientUnits="userSpaceOnUse" gradientTransform="translate(172.76 38.7545) rotate(123.495) scale(15.6304 3.62156)">
<stop stop-color="#ACE461"/>
<stop offset="1" stop-color="#ACE461" stop-opacity="0"/>
</radialGradient>
<radialGradient id="paint21_radial_1732_5400" cx="0" cy="0" r="1" gradientUnits="userSpaceOnUse" gradientTransform="translate(146.758 159.275) rotate(-132.669) scale(53.4207 41.3749)">
<stop offset="0.313107" stop-color="#FFBD80"/>
<stop offset="1" stop-color="#E09369"/>
</radialGradient>
<linearGradient id="paint22_linear_1732_5400" x1="51.7967" y1="165.724" x2="117.406" y2="165.724" gradientUnits="userSpaceOnUse">
<stop stop-color="#AE7F61"/>
<stop offset="1" stop-color="#AE7F61" stop-opacity="0"/>
</linearGradient>
<linearGradient id="paint23_linear_1732_5400" x1="110.551" y1="162.621" x2="110.551" y2="165.724" gradientUnits="userSpaceOnUse">
<stop stop-color="#D1556C" stop-opacity="0"/>
<stop offset="1" stop-color="#D1556C"/>
</linearGradient>
<linearGradient id="paint24_linear_1732_5400" x1="110.551" y1="135.883" x2="110.551" y2="140.312" gradientUnits="userSpaceOnUse">
<stop stop-color="#E6AB68"/>
<stop offset="1" stop-color="#E6AB68" stop-opacity="0"/>
</linearGradient>
<linearGradient id="paint25_linear_1732_5400" x1="-nan" y1="-nan" x2="-nan" y2="-nan" gradientUnits="userSpaceOnUse">
<stop stop-color="#FCD08F" stop-opacity="0"/>
<stop offset="0.28734" stop-color="#FFCD91"/>
<stop offset="0.795198" stop-color="#FCD08F" stop-opacity="0"/>
</linearGradient>
<linearGradient id="paint26_linear_1732_5400" x1="126.555" y1="17.4938" x2="126.555" y2="66.1405" gradientUnits="userSpaceOnUse">
<stop stop-color="#B9EE6E"/>
<stop offset="1" stop-color="#B9EE6E" stop-opacity="0"/>
</linearGradient>
<radialGradient id="paint27_radial_1732_5400" cx="0" cy="0" r="1" gradientUnits="userSpaceOnUse" gradientTransform="translate(92.2632 55.3579) rotate(131.285) scale(5.88778 1048.92)">
<stop stop-color="#B3E468"/>
<stop offset="1" stop-color="#B3E468" stop-opacity="0"/>
</radialGradient>
<radialGradient id="paint28_radial_1732_5400" cx="0" cy="0" r="1" gradientUnits="userSpaceOnUse" gradientTransform="translate(82.5946 89.8946) rotate(131.285) scale(5.88778 1048.92)">
<stop stop-color="#B3E468"/>
<stop offset="1" stop-color="#B3E468" stop-opacity="0"/>
</radialGradient>
</defs>
</svg>
