<svg width="20" height="18" viewBox="0 0 20 18" fill="none" xmlns="http://www.w3.org/2000/svg">
<path d="M6.09 8.63103H1.4C1.48 3.96103 2.4 3.19103 5.27 1.49103C5.6 1.29103 5.71 0.871029 5.51 0.531029C5.46394 0.452305 5.40267 0.383542 5.32975 0.328749C5.25683 0.273956 5.17374 0.234231 5.08531 0.211891C4.99688 0.189551 4.90489 0.185043 4.8147 0.19863C4.7245 0.212217 4.63792 0.243627 4.56 0.291029C1.18 2.29103 0 3.51103 0 9.32103V14.711C0 16.421 1.39 17.801 3.09 17.801H6.09C7.85 17.801 9.18 16.471 9.18 14.711V11.711C9.18 9.96103 7.85 8.63103 6.09 8.63103ZM16.909 8.63103H12.219C12.299 3.96103 13.219 3.19103 16.089 1.49103C16.419 1.29103 16.529 0.871029 16.329 0.531029C16.2819 0.452065 16.2196 0.383188 16.1458 0.328356C16.072 0.273523 15.9881 0.233816 15.8989 0.211514C15.8097 0.189213 15.7169 0.184757 15.626 0.198403C15.5351 0.212048 15.4477 0.243526 15.369 0.291029C11.989 2.29103 10.809 3.51103 10.809 9.33103V14.721C10.809 16.431 12.199 17.811 13.899 17.811H16.899C18.659 17.811 19.989 16.481 19.989 14.721V11.721C19.999 9.96103 18.669 8.63103 16.909 8.63103Z" fill="#11D07D"/>
</svg>
