<svg width="32" height="32" viewBox="0 0 32 32" fill="none" xmlns="http://www.w3.org/2000/svg">
<g id="two-cookies 1">
<g id="Group">
<path id="Vector" fill-rule="evenodd" clip-rule="evenodd" d="M18.9201 14.525C19.6107 13.1662 20 11.6286 20 10C20 4.47715 15.5228 0 10 0C4.47715 0 0 4.47715 0 10C0 15.5228 4.47715 20 10 20C10.7665 20 11.5129 19.9138 12.23 19.7504C12.0814 19.3621 12 18.9406 12 18.5C12 16.567 13.567 15 15.5 15C15.841 15 16.1707 15.0488 16.4823 15.1397C17.0526 14.7368 17.7486 14.5 18.5 14.5C18.6422 14.5 18.7823 14.5085 18.9201 14.525Z" fill="#9C4D4D"/>
<g id="Group_2">
<path id="Vector_2" d="M9 7C9.82843 7 10.5 6.32843 10.5 5.5C10.5 4.67157 9.82843 4 9 4C8.17157 4 7.5 4.67157 7.5 5.5C7.5 6.32843 8.17157 7 9 7Z" fill="#BD7575"/>
<path id="Vector_3" d="M15.25 11.5C16.2165 11.5 17 10.7165 17 9.75C17 8.7835 16.2165 8 15.25 8C14.2835 8 13.5 8.7835 13.5 9.75C13.5 10.7165 14.2835 11.5 15.25 11.5Z" fill="#BD7575"/>
<path id="Vector_4" d="M6.75 16C7.44036 16 8 15.4404 8 14.75C8 14.0596 7.44036 13.5 6.75 13.5C6.05964 13.5 5.5 14.0596 5.5 14.75C5.5 15.4404 6.05964 16 6.75 16Z" fill="#BD7575"/>
<path id="Vector_5" fill-rule="evenodd" clip-rule="evenodd" d="M26.4959 21.1437C26.823 20.1551 27 19.0982 27 18C27 12.4772 22.5228 8 17 8C11.4772 8 7 12.4772 7 18C7 23.5228 11.4772 28 17 28C17.7665 28 18.5129 27.9138 19.23 27.7504C19.0814 27.3621 19 26.9406 19 26.5C19 24.6223 20.4786 23.09 22.335 23.0038C22.896 21.8193 24.1023 21 25.5 21C25.846 21 26.1802 21.0502 26.4959 21.1437Z" fill="#BD7575"/>
</g>
<path id="Vector_6" d="M16 15C16.8284 15 17.5 14.3284 17.5 13.5C17.5 12.6716 16.8284 12 16 12C15.1716 12 14.5 12.6716 14.5 13.5C14.5 14.3284 15.1716 15 16 15Z" fill="#9C4D4D"/>
<path id="Vector_7" d="M22.25 19.5C23.2165 19.5 24 18.7165 24 17.75C24 16.7835 23.2165 16 22.25 16C21.2835 16 20.5 16.7835 20.5 17.75C20.5 18.7165 21.2835 19.5 22.25 19.5Z" fill="#9C4D4D"/>
<path id="Vector_8" d="M13.75 24C14.4404 24 15 23.4404 15 22.75C15 22.0596 14.4404 21.5 13.75 21.5C13.0596 21.5 12.5 22.0596 12.5 22.75C12.5 23.4404 13.0596 24 13.75 24Z" fill="#9C4D4D"/>
</g>
</g>
</svg>
